<svg width="60" height="56" viewBox="0 0 60 56" fill="none" xmlns="http://www.w3.org/2000/svg">
<path d="M12.4 41.4L15.2 41.4C15.9426 41.4 16.6548 41.695 17.1799 42.2201C17.705 42.7452 18 43.4574 18 44.2C18 44.9426 17.705 45.6548 17.1799 46.1799C16.6548 46.705 15.9426 47 15.2 47L12.4 47C10.1729 46.9976 8.03777 46.1118 6.46299 44.537C4.88821 42.9622 4.00243 40.8271 4 38.6L4 35.8C4 35.0574 4.295 34.3452 4.8201 33.8201C5.34521 33.295 6.05739 33 6.8 33C7.54261 33 8.2548 33.295 8.7799 33.8201C9.305 34.3452 9.6 35.0574 9.6 35.8L9.6 38.6C9.60074 39.3424 9.89598 40.0541 10.4209 40.5791C10.9459 41.104 11.6576 41.3993 12.4 41.4Z" fill="#666666"/>
<path d="M42.6 14.6H39.8C39.0574 14.6 38.3452 14.305 37.8201 13.7799C37.295 13.2548 37 12.5426 37 11.8C37 11.0574 37.295 10.3452 37.8201 9.8201C38.3452 9.295 39.0574 9 39.8 9H42.6C44.8271 9.00243 46.9622 9.88821 48.537 11.463C50.1118 13.0378 50.9976 15.1729 51 17.4V20.2C51 20.9426 50.705 21.6548 50.1799 22.1799C49.6548 22.705 48.9426 23 48.2 23C47.4574 23 46.7452 22.705 46.2201 22.1799C45.695 21.6548 45.4 20.9426 45.4 20.2V17.4C45.3993 16.6576 45.104 15.9459 44.5791 15.4209C44.0541 14.896 43.3424 14.6007 42.6 14.6Z" fill="#666666"/>
<path d="M29.9209 39.3291C29.9209 39.6657 29.835 39.9056 29.6631 40.0488C29.4984 40.1921 29.3086 40.2637 29.0938 40.2637H21.4883C21.4883 40.9082 21.5527 41.4883 21.6816 42.0039C21.8105 42.5195 22.0254 42.9635 22.3262 43.3359C22.627 43.7012 23.0173 43.984 23.4971 44.1846C23.9769 44.3779 24.5641 44.4746 25.2588 44.4746C25.8102 44.4746 26.3008 44.4316 26.7305 44.3457C27.1602 44.2526 27.5326 44.1523 27.8477 44.0449C28.1628 43.9303 28.4206 43.8301 28.6211 43.7441C28.8216 43.651 28.9756 43.6045 29.083 43.6045C29.1403 43.6045 29.1904 43.6188 29.2334 43.6475C29.2835 43.6761 29.3193 43.7227 29.3408 43.7871C29.3695 43.8444 29.391 43.9268 29.4053 44.0342C29.4196 44.1416 29.4268 44.2705 29.4268 44.4209C29.4268 44.5355 29.4232 44.6357 29.416 44.7217C29.4089 44.8005 29.3981 44.8721 29.3838 44.9365C29.3695 45.001 29.348 45.0583 29.3193 45.1084C29.2907 45.1585 29.2513 45.2087 29.2012 45.2588C29.151 45.3018 29.0114 45.377 28.7822 45.4844C28.5531 45.5918 28.2523 45.6992 27.8799 45.8066C27.5075 45.9069 27.0778 45.9964 26.5908 46.0752C26.111 46.1611 25.5954 46.2041 25.0439 46.2041C24.0915 46.2041 23.2536 46.0716 22.5303 45.8066C21.8141 45.5417 21.2126 45.1478 20.7256 44.625C20.2386 44.0951 19.8698 43.4362 19.6191 42.6484C19.3685 41.8535 19.2432 40.9333 19.2432 39.8877C19.2432 38.8923 19.3721 37.9971 19.6299 37.2021C19.8877 36.4072 20.2601 35.734 20.7471 35.1826C21.234 34.624 21.8213 34.1979 22.5088 33.9043C23.1963 33.6035 23.9626 33.4531 24.8076 33.4531C25.7243 33.4531 26.5013 33.5999 27.1387 33.8936C27.776 34.1872 28.3024 34.5811 28.7178 35.0752C29.1331 35.5693 29.4375 36.1494 29.6309 36.8154C29.8242 37.4814 29.9209 38.1904 29.9209 38.9424V39.3291ZM27.7725 38.7061C27.8011 37.5889 27.554 36.7116 27.0312 36.0742C26.5156 35.4368 25.7458 35.1182 24.7217 35.1182C24.1989 35.1182 23.737 35.2184 23.3359 35.4189C22.9421 35.6123 22.6126 35.8737 22.3477 36.2031C22.0827 36.5254 21.875 36.9049 21.7246 37.3418C21.5814 37.7786 21.5026 38.2334 21.4883 38.7061H27.7725ZM42.1885 45.667C42.1885 45.7314 42.1706 45.7887 42.1348 45.8389C42.099 45.889 42.0417 45.932 41.9629 45.9678C41.8913 45.9964 41.7839 46.0179 41.6406 46.0322C41.5046 46.0537 41.3363 46.0645 41.1357 46.0645C40.9209 46.0645 40.7419 46.0537 40.5986 46.0322C40.4626 46.0179 40.3551 45.9964 40.2764 45.9678C40.2048 45.932 40.151 45.889 40.1152 45.8389C40.0794 45.7887 40.0615 45.7314 40.0615 45.667V38.8672C40.0615 38.2083 40.0078 37.6784 39.9004 37.2773C39.8001 36.8691 39.6497 36.5218 39.4492 36.2354C39.2559 35.9417 39.0016 35.7161 38.6865 35.5586C38.3714 35.401 38.0098 35.3223 37.6016 35.3223C37.0645 35.3223 36.5309 35.512 36.001 35.8916C35.471 36.2712 34.9124 36.8262 34.3252 37.5566V45.667C34.3252 45.7314 34.3073 45.7887 34.2715 45.8389C34.2357 45.889 34.1784 45.932 34.0996 45.9678C34.028 45.9964 33.9206 46.0179 33.7773 46.0322C33.6413 46.0537 33.4658 46.0645 33.251 46.0645C33.0505 46.0645 32.8786 46.0537 32.7354 46.0322C32.5993 46.0179 32.4883 45.9964 32.4023 45.9678C32.3236 45.932 32.2699 45.889 32.2412 45.8389C32.2126 45.7887 32.1982 45.7314 32.1982 45.667V34.0654C32.1982 33.9938 32.209 33.9365 32.2305 33.8936C32.2591 33.8434 32.3128 33.8005 32.3916 33.7646C32.4704 33.7217 32.5671 33.6966 32.6816 33.6895C32.8034 33.6751 32.9645 33.668 33.165 33.668C33.3512 33.668 33.5052 33.6751 33.627 33.6895C33.7559 33.6966 33.8525 33.7217 33.917 33.7646C33.9886 33.8005 34.0387 33.8434 34.0674 33.8936C34.1032 33.9365 34.1211 33.9938 34.1211 34.0654V35.6016C34.7728 34.8711 35.4209 34.3376 36.0654 34.001C36.7171 33.6572 37.376 33.4854 38.042 33.4854C38.8154 33.4854 39.4635 33.6178 39.9863 33.8828C40.5163 34.1406 40.9424 34.488 41.2646 34.9248C41.5941 35.3617 41.8304 35.8773 41.9736 36.4717C42.1169 37.0589 42.1885 37.7643 42.1885 38.5879V45.667ZM54.9932 33.8184C54.9932 34.1191 54.9538 34.3376 54.875 34.4736C54.7962 34.6025 54.6924 34.667 54.5635 34.667H52.8984C53.1992 34.9821 53.4069 35.3258 53.5215 35.6982C53.6432 36.0706 53.7041 36.4574 53.7041 36.8584C53.7041 37.5316 53.5967 38.126 53.3818 38.6416C53.167 39.1572 52.859 39.5941 52.458 39.9521C52.0641 40.3102 51.5915 40.5824 51.04 40.7686C50.4886 40.9548 49.8799 41.0479 49.2139 41.0479C48.7412 41.0479 48.29 40.987 47.8604 40.8652C47.4378 40.7435 47.1084 40.5859 46.8721 40.3926C46.7217 40.5501 46.5964 40.7292 46.4961 40.9297C46.3958 41.123 46.3457 41.3486 46.3457 41.6064C46.3457 41.9072 46.4854 42.1579 46.7646 42.3584C47.0439 42.5518 47.4163 42.6592 47.8818 42.6807L50.9111 42.8096C51.484 42.8239 52.0104 42.9027 52.4902 43.0459C52.9772 43.1891 53.3962 43.3932 53.7471 43.6582C54.098 43.916 54.3701 44.2383 54.5635 44.625C54.764 45.0046 54.8643 45.445 54.8643 45.9463C54.8643 46.4834 54.7533 46.9919 54.5312 47.4717C54.3092 47.9515 53.9691 48.374 53.5107 48.7393C53.0524 49.1045 52.4652 49.391 51.749 49.5986C51.0329 49.8135 50.1914 49.9209 49.2246 49.9209C48.2865 49.9209 47.488 49.8421 46.8291 49.6846C46.1702 49.527 45.6296 49.3086 45.207 49.0293C44.7917 48.7572 44.4873 48.4277 44.2939 48.041C44.1077 47.6615 44.0146 47.2497 44.0146 46.8057C44.0146 46.5192 44.0469 46.2435 44.1113 45.9785C44.1829 45.7135 44.2904 45.4593 44.4336 45.2158C44.5768 44.9723 44.7523 44.7432 44.96 44.5283C45.1748 44.3063 45.4183 44.0879 45.6904 43.873C45.2679 43.6582 44.9564 43.3896 44.7559 43.0674C44.5553 42.738 44.4551 42.3835 44.4551 42.0039C44.4551 41.4811 44.5625 41.0156 44.7773 40.6074C44.9922 40.1921 45.2572 39.8197 45.5723 39.4902C45.3073 39.1751 45.096 38.8171 44.9385 38.416C44.7881 38.015 44.7129 37.5316 44.7129 36.9658C44.7129 36.307 44.8239 35.7161 45.0459 35.1934C45.2679 34.6634 45.5758 34.2194 45.9697 33.8613C46.3708 33.4961 46.847 33.2168 47.3984 33.0234C47.9499 32.8301 48.555 32.7334 49.2139 32.7334C49.5648 32.7334 49.8906 32.7549 50.1914 32.7979C50.4993 32.8337 50.7858 32.8874 51.0508 32.959H54.5635C54.7067 32.959 54.8141 33.0306 54.8857 33.1738C54.9574 33.3099 54.9932 33.5247 54.9932 33.8184ZM51.6738 36.8799C51.6738 36.085 51.4554 35.4691 51.0186 35.0322C50.5889 34.5882 49.973 34.3662 49.1709 34.3662C48.7555 34.3662 48.3939 34.4342 48.0859 34.5703C47.7852 34.7064 47.5345 34.8962 47.334 35.1396C47.1335 35.376 46.9831 35.6517 46.8828 35.9668C46.7826 36.2819 46.7324 36.6113 46.7324 36.9551C46.7324 37.7214 46.9473 38.3229 47.377 38.7598C47.8138 39.1966 48.4261 39.415 49.2139 39.415C49.6292 39.415 49.9909 39.3506 50.2988 39.2217C50.6139 39.0856 50.8717 38.8994 51.0723 38.6631C51.2728 38.4268 51.4232 38.1546 51.5234 37.8467C51.6237 37.5316 51.6738 37.2093 51.6738 36.8799ZM52.7373 46.0645C52.7373 45.5703 52.5332 45.1872 52.125 44.915C51.7168 44.6429 51.1654 44.4997 50.4707 44.4854L47.4736 44.3779C47.1943 44.5928 46.9652 44.7969 46.7861 44.9902C46.6143 45.1836 46.4746 45.3698 46.3672 45.5488C46.2669 45.7207 46.1953 45.8926 46.1523 46.0645C46.1165 46.2363 46.0986 46.4118 46.0986 46.5908C46.0986 47.1494 46.3815 47.5719 46.9473 47.8584C47.5202 48.152 48.3115 48.2988 49.3213 48.2988C49.9658 48.2988 50.5065 48.2344 50.9434 48.1055C51.3802 47.9837 51.7311 47.819 51.9961 47.6113C52.2611 47.4036 52.4508 47.1673 52.5654 46.9023C52.68 46.6374 52.7373 46.3581 52.7373 46.0645Z" fill="#666666"/>
<path d="M29.6631 40.0488L29.5734 39.9413L29.5712 39.9432L29.6631 40.0488ZM21.4883 40.2637V40.1237H21.3483V40.2637H21.4883ZM22.3262 43.3359L22.2173 43.4239L22.2181 43.4249L22.3262 43.3359ZM23.4971 44.1846L23.4431 44.3138L23.4447 44.3144L23.4971 44.1846ZM26.7305 44.3457L26.7579 44.483L26.7601 44.4825L26.7305 44.3457ZM27.8477 44.0449L27.8928 44.1775L27.8955 44.1765L27.8477 44.0449ZM28.6211 43.7441L28.6763 43.8729L28.68 43.8711L28.6211 43.7441ZM29.2334 43.6475L29.1556 43.7642L29.1639 43.769L29.2334 43.6475ZM29.3408 43.7871L29.208 43.8314L29.2112 43.8408L29.2156 43.8497L29.3408 43.7871ZM29.416 44.7217L29.5554 44.7344L29.5555 44.7333L29.416 44.7217ZM29.2012 45.2588L29.2926 45.3654L29.3002 45.3578L29.2012 45.2588ZM27.8799 45.8066L27.9163 45.9418L27.9187 45.9412L27.8799 45.8066ZM26.5908 46.0752L26.5685 45.937L26.5661 45.9374L26.5908 46.0752ZM22.5303 45.8066L22.4817 45.9379L22.4821 45.9381L22.5303 45.8066ZM20.7256 44.625L20.6225 44.7197L20.6231 44.7204L20.7256 44.625ZM19.6191 42.6484L19.4856 42.6905L19.4857 42.6909L19.6191 42.6484ZM20.7471 35.1826L20.852 35.2753L20.8526 35.2746L20.7471 35.1826ZM22.5088 33.9043L22.5638 34.0331L22.5649 34.0326L22.5088 33.9043ZM27.7725 38.7061V38.8461H27.9089L27.9124 38.7096L27.7725 38.7061ZM27.0312 36.0742L26.9224 36.1623L26.923 36.163L27.0312 36.0742ZM23.3359 35.4189L23.3976 35.5446L23.3985 35.5442L23.3359 35.4189ZM22.3477 36.2031L22.4558 36.292L22.4567 36.2909L22.3477 36.2031ZM21.7246 37.3418L21.5922 37.2962L21.5916 37.2982L21.7246 37.3418ZM21.4883 38.7061L21.3483 38.7018L21.344 38.8461H21.4883V38.7061ZM29.7809 39.3291C29.7809 39.6454 29.7 39.8358 29.5735 39.9413L29.7527 40.1564C29.9699 39.9754 30.0609 39.6859 30.0609 39.3291H29.7809ZM29.5712 39.9432C29.4315 40.0646 29.2742 40.1237 29.0938 40.1237V40.4037C29.3429 40.4037 29.5652 40.3195 29.755 40.1545L29.5712 39.9432ZM29.0938 40.1237H21.4883V40.4037H29.0938V40.1237ZM21.3483 40.2637C21.3483 40.9173 21.4136 41.5091 21.5458 42.0379L21.8175 41.97C21.6918 41.4675 21.6283 40.8991 21.6283 40.2637H21.3483ZM21.5458 42.0379C21.6791 42.571 21.9023 43.034 22.2173 43.4239L22.4351 43.248C22.1484 42.8931 21.942 42.468 21.8175 41.97L21.5458 42.0379ZM22.2181 43.4249C22.5348 43.8095 22.9444 44.1053 23.4431 44.3137L23.5511 44.0554C23.0901 43.8628 22.7191 43.5929 22.4342 43.2469L22.2181 43.4249ZM23.4447 44.3144C23.9458 44.5164 24.552 44.6146 25.2588 44.6146V44.3346C24.5763 44.3346 24.0079 44.2395 23.5494 44.0547L23.4447 44.3144ZM25.2588 44.6146C25.8172 44.6146 26.3172 44.5711 26.7579 44.483L26.703 44.2084C26.2843 44.2922 25.8032 44.3346 25.2588 44.3346V44.6146ZM26.7601 44.4825C27.1935 44.3886 27.5713 44.287 27.8928 44.1774L27.8025 43.9124C27.4938 44.0176 27.1268 44.1166 26.7008 44.2089L26.7601 44.4825ZM27.8955 44.1765C28.2119 44.0614 28.4724 43.9602 28.6762 43.8728L28.5659 43.6155C28.3687 43.7 28.1136 43.7992 27.7998 43.9134L27.8955 44.1765ZM28.68 43.8711C28.8776 43.7794 29.008 43.7445 29.083 43.7445V43.4645C28.9432 43.4645 28.7656 43.5227 28.5621 43.6172L28.68 43.8711ZM29.083 43.7445C29.1158 43.7445 29.1383 43.7523 29.1557 43.7639L29.3111 43.531C29.2426 43.4853 29.1648 43.4645 29.083 43.4645V43.7445ZM29.1639 43.769C29.179 43.7776 29.1954 43.7935 29.208 43.8314L29.4736 43.7428C29.4433 43.6518 29.3881 43.5746 29.3029 43.5259L29.1639 43.769ZM29.2156 43.8497C29.2342 43.8868 29.253 43.9515 29.2665 44.0527L29.544 44.0157C29.5289 43.902 29.5048 43.802 29.466 43.7245L29.2156 43.8497ZM29.2665 44.0527C29.2798 44.1521 29.2868 44.2745 29.2868 44.4209H29.5668C29.5668 44.2665 29.5594 44.1311 29.544 44.0157L29.2665 44.0527ZM29.2868 44.4209C29.2868 44.5328 29.2833 44.629 29.2765 44.7101L29.5555 44.7333C29.5631 44.6425 29.5668 44.5382 29.5668 44.4209H29.2868ZM29.2766 44.709C29.2699 44.783 29.2599 44.8485 29.2471 44.9062L29.5205 44.9669C29.5363 44.8956 29.5478 44.818 29.5554 44.7344L29.2766 44.709ZM29.2471 44.9062C29.2354 44.9588 29.2185 45.0026 29.1978 45.0389L29.4409 45.1779C29.4774 45.1139 29.5035 45.0431 29.5205 44.9669L29.2471 44.9062ZM29.1978 45.0389C29.1765 45.0761 29.1454 45.1165 29.1022 45.1598L29.3002 45.3578C29.3572 45.3008 29.4049 45.2409 29.4409 45.1779L29.1978 45.0389ZM29.1101 45.1525C29.0976 45.1631 29.0623 45.1865 28.9925 45.2241C28.9259 45.26 28.8362 45.3044 28.7228 45.3576L28.8416 45.6111C28.9574 45.5569 29.0522 45.51 29.1252 45.4707C29.195 45.4331 29.2546 45.3974 29.2923 45.3651L29.1101 45.1525ZM28.7228 45.3576C28.5028 45.4607 28.2097 45.5658 27.8411 45.6721L27.9187 45.9412C28.2949 45.8326 28.6033 45.7229 28.8416 45.6111L28.7228 45.3576ZM27.8435 45.6715C27.4768 45.7702 27.0519 45.8588 26.5685 45.937L26.6132 46.2134C27.1037 46.1341 27.5382 46.0436 27.9163 45.9418L27.8435 45.6715ZM26.5661 45.9374C26.0954 46.0217 25.5882 46.0641 25.0439 46.0641V46.3441C25.6026 46.3441 26.1266 46.3006 26.6155 46.213L26.5661 45.9374ZM25.0439 46.0641C24.1042 46.0641 23.2831 45.9333 22.5784 45.6752L22.4821 45.9381C23.224 46.2099 24.0788 46.3441 25.0439 46.3441V46.0641ZM22.5789 45.6753C21.8818 45.4174 21.2991 45.0353 20.828 44.5296L20.6231 44.7204C21.126 45.2603 21.7465 45.6659 22.4817 45.9379L22.5789 45.6753ZM20.8287 44.5303C20.3574 44.0174 19.9979 43.3772 19.7526 42.606L19.4857 42.6909C19.7416 43.4952 20.1198 44.1727 20.6225 44.7197L20.8287 44.5303ZM19.7527 42.6063C19.5072 41.828 19.3832 40.9225 19.3832 39.8877H19.1032C19.1032 40.9441 19.2297 41.879 19.4856 42.6905L19.7527 42.6063ZM19.3832 39.8877C19.3832 38.9042 19.5105 38.0239 19.7631 37.2453L19.4967 37.159C19.2336 37.9702 19.1032 38.8803 19.1032 39.8877H19.3832ZM19.7631 37.2453C20.0157 36.4662 20.3793 35.8105 20.852 35.2753L20.6421 35.0899C20.1408 35.6576 19.7596 36.3483 19.4967 37.159L19.7631 37.2453ZM20.8526 35.2746C21.3256 34.7321 21.8955 34.3185 22.5638 34.033L22.4538 33.7755C21.7471 34.0774 21.1425 34.516 20.6415 35.0906L20.8526 35.2746ZM22.5649 34.0326C23.2326 33.7404 23.9794 33.5931 24.8076 33.5931V33.3131C23.9457 33.3131 23.16 33.4666 22.4527 33.776L22.5649 34.0326ZM24.8076 33.5931C25.71 33.5931 26.4658 33.7377 27.0801 34.0207L27.1972 33.7664C26.5368 33.4621 25.7386 33.3131 24.8076 33.3131V33.5931ZM27.0801 34.0207C27.7004 34.3065 28.2096 34.6883 28.6106 35.1653L28.8249 34.9851C28.3952 34.4738 27.8517 34.0679 27.1972 33.7664L27.0801 34.0207ZM28.6106 35.1653C29.0125 35.6434 29.3081 36.2058 29.4964 36.8545L29.7653 36.7764C29.5669 36.0931 29.2538 35.4953 28.8249 34.9851L28.6106 35.1653ZM29.4964 36.8545C29.6858 37.5068 29.7809 38.2025 29.7809 38.9424H30.0609C30.0609 38.1783 29.9626 37.4561 29.7653 36.7764L29.4964 36.8545ZM29.7809 38.9424V39.3291H30.0609V38.9424H29.7809ZM27.9124 38.7096C27.9416 37.5709 27.6901 36.6568 27.1395 35.9854L26.923 36.163C27.4179 36.7664 27.6606 37.6069 27.6325 38.7025L27.9124 38.7096ZM27.1401 35.9862C26.5914 35.3079 25.7765 34.9782 24.7217 34.9782V35.2582C25.715 35.2582 26.4399 35.5658 26.9224 36.1623L27.1401 35.9862ZM24.7217 34.9782C24.1808 34.9782 23.6968 35.082 23.2733 35.2937L23.3985 35.5442C23.7772 35.3549 24.217 35.2582 24.7217 35.2582V34.9782ZM23.2742 35.2933C22.8627 35.4953 22.5169 35.7694 22.2386 36.1154L22.4567 36.2909C22.7084 35.978 23.0214 35.7293 23.3976 35.5446L23.2742 35.2933ZM22.2395 36.1142C21.9629 36.4507 21.7475 36.8453 21.5922 37.2962L21.857 37.3874C22.0025 36.9646 22.2025 36.6001 22.4558 36.292L22.2395 36.1142ZM21.5916 37.2982C21.4441 37.7481 21.3631 38.2162 21.3483 38.7018L21.6282 38.7103C21.6421 38.2506 21.7187 37.8092 21.8576 37.3854L21.5916 37.2982ZM21.4883 38.8461H27.7725V38.5661H21.4883V38.8461ZM41.9629 45.9678L42.0149 46.0979L42.0208 46.0952L41.9629 45.9678ZM41.6406 46.0322L41.6267 45.8927L41.6188 45.8939L41.6406 46.0322ZM40.5986 46.0322L40.6194 45.8936L40.6133 45.893L40.5986 46.0322ZM40.2764 45.9678L40.2138 46.093L40.221 46.0966L40.2285 46.0993L40.2764 45.9678ZM40.1152 45.8389L40.0013 45.9202L40.1152 45.8389ZM39.9004 37.2773L39.7644 37.3107L39.7652 37.3136L39.9004 37.2773ZM39.4492 36.2354L39.3322 36.3124L39.3345 36.3156L39.4492 36.2354ZM38.6865 35.5586L38.6239 35.6838L38.6865 35.5586ZM36.001 35.8916L35.9195 35.7778L36.001 35.8916ZM34.3252 37.5566L34.2161 37.4689L34.1852 37.5073V37.5566H34.3252ZM34.0996 45.9678L34.1517 46.0979L34.1575 46.0952L34.0996 45.9678ZM33.7773 46.0322L33.7634 45.8927L33.7555 45.8939L33.7773 46.0322ZM32.7354 46.0322L32.7561 45.8936L32.75 45.893L32.7354 46.0322ZM32.4023 45.9678L32.3444 46.0952L32.3511 46.0983L32.3581 46.1006L32.4023 45.9678ZM32.2412 45.8389L32.1197 45.9083L32.2412 45.8389ZM32.2305 33.8936L32.1087 33.824L32.1052 33.8309L32.2305 33.8936ZM32.3916 33.7646L32.4497 33.8924L32.4586 33.8876L32.3916 33.7646ZM32.6816 33.6895L32.6904 33.8294L32.698 33.8285L32.6816 33.6895ZM33.627 33.6895L33.6106 33.8288L33.6192 33.8292L33.627 33.6895ZM33.917 33.7646L33.8393 33.8811L33.8466 33.886L33.8544 33.8899L33.917 33.7646ZM34.0674 33.8936L33.9458 33.963L33.9519 33.9737L33.9598 33.9832L34.0674 33.8936ZM34.1211 35.6016H33.9811V35.9688L34.2256 35.6948L34.1211 35.6016ZM36.0654 34.001L36.1302 34.1251L36.1307 34.1248L36.0654 34.001ZM39.9863 33.8828L39.923 34.0077L39.9251 34.0087L39.9863 33.8828ZM41.2646 34.9248L41.152 35.0079L41.1529 35.0091L41.2646 34.9248ZM41.9736 36.4717L41.8375 36.5045L41.8376 36.5049L41.9736 36.4717ZM42.0485 45.667C42.0485 45.7037 42.0389 45.7322 42.0208 45.7575L42.2487 45.9202C42.3023 45.8452 42.3285 45.7592 42.3285 45.667H42.0485ZM42.0208 45.7575C42.004 45.7811 41.9699 45.8108 41.905 45.8403L42.0208 46.0952C42.1134 46.0531 42.194 45.9969 42.2487 45.9202L42.0208 45.7575ZM41.9109 45.8378C41.8578 45.859 41.7661 45.879 41.6267 45.8929L41.6546 46.1715C41.8016 46.1568 41.9247 46.1338 42.0149 46.0978L41.9109 45.8378ZM41.6188 45.8939C41.4924 45.9139 41.3319 45.9245 41.1357 45.9245V46.2045C41.3406 46.2045 41.5167 46.1935 41.6625 46.1705L41.6188 45.8939ZM41.1357 45.9245C40.9249 45.9245 40.7533 45.9139 40.6194 45.8938L40.5779 46.1707C40.7304 46.1936 40.9169 46.2045 41.1357 46.2045V45.9245ZM40.6133 45.893C40.4824 45.8792 40.3877 45.8593 40.3242 45.8362L40.2285 46.0993C40.3226 46.1335 40.4427 46.1566 40.584 46.1715L40.6133 45.893ZM40.339 45.8426C40.2819 45.814 40.2483 45.7843 40.2292 45.7575L40.0013 45.9202C40.0538 45.9937 40.1276 46.0499 40.2138 46.093L40.339 45.8426ZM40.2292 45.7575C40.2111 45.7322 40.2015 45.7037 40.2015 45.667H39.9215C39.9215 45.7592 39.9477 45.8452 40.0013 45.9202L40.2292 45.7575ZM40.2015 45.667V38.8672H39.9215V45.667H40.2015ZM40.2015 38.8672C40.2015 38.2024 40.1475 37.6588 40.0356 37.2411L39.7652 37.3136C39.8681 37.698 39.9215 38.2143 39.9215 38.8672H40.2015ZM40.0364 37.244C39.9328 36.8222 39.7761 36.4583 39.5639 36.1551L39.3345 36.3156C39.5233 36.5854 39.6675 36.916 39.7644 37.3107L40.0364 37.244ZM39.5661 36.1584C39.3592 35.8441 39.0862 35.6019 38.7491 35.4334L38.6239 35.6838C38.917 35.8304 39.1525 36.0393 39.3323 36.3124L39.5661 36.1584ZM38.7491 35.4334C38.4117 35.2647 38.028 35.1823 37.6016 35.1823V35.4623C37.9915 35.4623 38.3311 35.5374 38.6239 35.6838L38.7491 35.4334ZM37.6016 35.1823C37.0294 35.1823 36.468 35.3849 35.9195 35.7778L36.0825 36.0054C36.5938 35.6392 37.0995 35.4623 37.6016 35.4623V35.1823ZM35.9195 35.7778C35.3757 36.1672 34.8081 36.7325 34.2161 37.4689L34.4343 37.6444C35.0167 36.9199 35.5663 36.3751 36.0825 36.0054L35.9195 35.7778ZM34.1852 37.5566V45.667H34.4652V37.5566H34.1852ZM34.1852 45.667C34.1852 45.7037 34.1756 45.7322 34.1576 45.7575L34.3854 45.9202C34.439 45.8452 34.4652 45.7592 34.4652 45.667H34.1852ZM34.1576 45.7575C34.1407 45.7811 34.1067 45.8108 34.0417 45.8403L34.1575 46.0952C34.2501 46.0531 34.3307 45.9969 34.3854 45.9202L34.1576 45.7575ZM34.0476 45.8378C33.9945 45.859 33.9028 45.879 33.7634 45.8929L33.7913 46.1715C33.9384 46.1568 34.0615 46.1338 34.1516 46.0978L34.0476 45.8378ZM33.7555 45.8939C33.6295 45.9138 33.4621 45.9245 33.251 45.9245V46.2045C33.4696 46.2045 33.6531 46.1936 33.7992 46.1705L33.7555 45.8939ZM33.251 45.9245C33.055 45.9245 32.8904 45.9139 32.7561 45.8938L32.7146 46.1707C32.8667 46.1935 33.0459 46.2045 33.251 46.2045V45.9245ZM32.75 45.893C32.6195 45.8793 32.5194 45.8592 32.4466 45.835L32.3581 46.1006C32.4572 46.1336 32.5791 46.1566 32.7207 46.1715L32.75 45.893ZM32.4603 45.8403C32.3956 45.8109 32.3712 45.7841 32.3628 45.7694L32.1197 45.9083C32.1685 45.9939 32.2515 46.053 32.3444 46.0952L32.4603 45.8403ZM32.3628 45.7694C32.3476 45.7428 32.3382 45.71 32.3382 45.667H32.0582C32.0582 45.7529 32.0776 45.8347 32.1197 45.9083L32.3628 45.7694ZM32.3382 45.667V34.0654H32.0582V45.667H32.3382ZM32.3382 34.0654C32.3382 34.0058 32.3475 33.9725 32.3557 33.9562L32.1052 33.8309C32.0705 33.9005 32.0582 33.9819 32.0582 34.0654H32.3382ZM32.352 33.963C32.3604 33.9483 32.3849 33.9215 32.4495 33.8921L32.3337 33.6372C32.2408 33.6794 32.1578 33.7386 32.1089 33.8241L32.352 33.963ZM32.4586 33.8876C32.5152 33.8567 32.5907 33.8354 32.6904 33.8292L32.6729 33.5497C32.5434 33.5578 32.4256 33.5866 32.3246 33.6417L32.4586 33.8876ZM32.698 33.8285C32.812 33.8151 32.967 33.808 33.165 33.808V33.528C32.962 33.528 32.7948 33.5352 32.6653 33.5504L32.698 33.8285ZM33.165 33.808C33.3483 33.808 33.4963 33.815 33.6106 33.8285L33.6433 33.5504C33.5141 33.5352 33.3542 33.528 33.165 33.528V33.808ZM33.6192 33.8292C33.7379 33.8358 33.8053 33.8584 33.8393 33.8811L33.9946 33.6482C33.8998 33.5849 33.7738 33.5574 33.6347 33.5497L33.6192 33.8292ZM33.8544 33.8899C33.9105 33.9179 33.9353 33.9445 33.9458 33.963L34.1889 33.8241C34.1422 33.7423 34.0667 33.683 33.9796 33.6394L33.8544 33.8899ZM33.9598 33.9832C33.9694 33.9946 33.9811 34.0172 33.9811 34.0654H34.2611C34.2611 33.9704 34.237 33.8784 34.1749 33.8039L33.9598 33.9832ZM33.9811 34.0654V35.6016H34.2611V34.0654H33.9811ZM34.2256 35.6948C34.8697 34.9728 35.5049 34.4517 36.1302 34.1251L36.0006 33.8769C35.3369 34.2235 34.6759 34.7694 34.0166 35.5084L34.2256 35.6948ZM36.1307 34.1248C36.7645 33.7905 37.4011 33.6254 38.042 33.6254V33.3454C37.3509 33.3454 36.6698 33.5239 36.0001 33.8771L36.1307 34.1248ZM38.042 33.6254C38.8002 33.6254 39.4251 33.7553 39.923 34.0077L40.0496 33.7579C39.502 33.4804 38.8307 33.3454 38.042 33.3454V33.6254ZM39.9251 34.0087C40.4365 34.2575 40.8443 34.5908 41.152 35.0079L41.3773 34.8417C41.0405 34.3851 40.5961 34.0238 40.0476 33.7569L39.9251 34.0087ZM41.1529 35.0091C41.4695 35.4289 41.6983 35.9265 41.8375 36.5045L42.1097 36.4389C41.9625 35.828 41.7187 35.2944 41.3764 34.8405L41.1529 35.0091ZM41.8376 36.5049C41.9774 37.0781 42.0485 37.7718 42.0485 38.5879H42.3285C42.3285 37.7569 42.2563 37.0397 42.1096 36.4385L41.8376 36.5049ZM42.0485 38.5879V45.667H42.3285V38.5879H42.0485ZM54.875 34.4736L54.9945 34.5467L54.9962 34.5438L54.875 34.4736ZM52.8984 34.667V34.527H52.5713L52.7972 34.7637L52.8984 34.667ZM53.5215 35.6982L53.3877 35.7394L53.3884 35.7417L53.5215 35.6982ZM52.458 39.9521L52.3648 39.8477L52.3638 39.8486L52.458 39.9521ZM51.04 40.7686L50.9953 40.6359L51.04 40.7686ZM47.8604 40.8652L47.8216 40.9998L47.8222 40.9999L47.8604 40.8652ZM46.8721 40.3926L46.9607 40.2842L46.8603 40.2021L46.7708 40.2959L46.8721 40.3926ZM46.4961 40.9297L46.6204 40.9941L46.6213 40.9923L46.4961 40.9297ZM46.7646 42.3584L46.683 42.4721L46.685 42.4735L46.7646 42.3584ZM47.8818 42.6807L47.8754 42.8205L47.8759 42.8205L47.8818 42.6807ZM50.9111 42.8096L50.9052 42.9495L50.9076 42.9495L50.9111 42.8096ZM52.4902 43.0459L52.4502 43.18L52.4507 43.1802L52.4902 43.0459ZM53.7471 43.6582L53.6627 43.7699L53.6642 43.771L53.7471 43.6582ZM54.5635 44.625L54.4382 44.6876L54.4397 44.6904L54.5635 44.625ZM54.5312 47.4717L54.4042 47.4129L54.5312 47.4717ZM51.749 49.5986L51.71 49.4642L51.7088 49.4645L51.749 49.5986ZM45.207 49.0293L45.2842 48.9125L45.2838 48.9122L45.207 49.0293ZM44.2939 48.041L44.1683 48.1027L44.1687 48.1036L44.2939 48.041ZM44.1113 45.9785L43.9761 45.942L43.9753 45.9454L44.1113 45.9785ZM44.96 44.5283L44.8594 44.431L44.8593 44.431L44.96 44.5283ZM45.6904 43.873L45.7772 43.9829L45.9489 43.8474L45.7539 43.7483L45.6904 43.873ZM44.7559 43.0674L44.6363 43.1402L44.637 43.1413L44.7559 43.0674ZM44.7773 40.6074L44.9012 40.6726L44.9017 40.6717L44.7773 40.6074ZM45.5723 39.4902L45.6734 39.587L45.7602 39.4963L45.6794 39.4001L45.5723 39.4902ZM44.9385 38.416L44.8074 38.4652L44.8082 38.4672L44.9385 38.416ZM45.0459 35.1934L45.1748 35.2481L45.175 35.2475L45.0459 35.1934ZM45.9697 33.8613L46.0639 33.9649L46.064 33.9648L45.9697 33.8613ZM50.1914 32.7979L50.1716 32.9365L50.1752 32.9369L50.1914 32.7979ZM51.0508 32.959L51.0143 33.0941L51.0322 33.099H51.0508V32.959ZM54.8857 33.1738L54.7605 33.2365L54.7619 33.239L54.8857 33.1738ZM51.0186 35.0322L50.9179 35.1296L50.9196 35.1312L51.0186 35.0322ZM48.0859 34.5703L48.0294 34.4423L48.0282 34.4428L48.0859 34.5703ZM47.334 35.1396L47.4407 35.2302L47.4421 35.2286L47.334 35.1396ZM47.377 38.7598L47.2771 38.8579L47.278 38.8588L47.377 38.7598ZM50.2988 39.2217L50.3529 39.3508L50.3543 39.3502L50.2988 39.2217ZM51.5234 37.8467L51.6566 37.89L51.6568 37.8891L51.5234 37.8467ZM50.4707 44.4854L50.4657 44.6253L50.4678 44.6253L50.4707 44.4854ZM47.4736 44.3779L47.4786 44.238L47.4282 44.2362L47.3883 44.267L47.4736 44.3779ZM46.7861 44.9902L46.6834 44.8951L46.6815 44.8972L46.7861 44.9902ZM46.3672 45.5488L46.2471 45.4768L46.2463 45.4783L46.3672 45.5488ZM46.1523 46.0645L46.0164 46.0305L46.0153 46.0359L46.1523 46.0645ZM46.9473 47.8584L47.0111 47.7338L47.0105 47.7335L46.9473 47.8584ZM50.9434 48.1055L50.9058 47.9706L50.9037 47.9712L50.9434 48.1055ZM52.5654 46.9023L52.4369 46.8468L52.5654 46.9023ZM54.8532 33.8184C54.8532 34.1133 54.8134 34.3006 54.7538 34.4035L54.9962 34.5438C55.0941 34.3746 55.1332 34.125 55.1332 33.8184H54.8532ZM54.7555 34.4006C54.6971 34.4963 54.6345 34.527 54.5635 34.527V34.807C54.7503 34.807 54.8954 34.7087 54.9945 34.5466L54.7555 34.4006ZM54.5635 34.527H52.8984V34.807H54.5635V34.527ZM52.7972 34.7637C53.0847 35.0649 53.2802 35.3901 53.3877 35.7394L53.6553 35.6571C53.5336 35.2616 53.3137 34.8993 52.9997 34.5703L52.7972 34.7637ZM53.3884 35.7417C53.5055 36.0998 53.5641 36.4718 53.5641 36.8584H53.8441C53.8441 36.4429 53.781 36.0415 53.6546 35.6547L53.3884 35.7417ZM53.5641 36.8584C53.5641 37.5168 53.459 38.0923 53.2526 38.5878L53.5111 38.6954C53.7343 38.1596 53.8441 37.5464 53.8441 36.8584H53.5641ZM53.2526 38.5878C53.0455 39.0848 52.7496 39.5041 52.3648 39.8477L52.5513 40.0566C52.9685 39.684 53.2885 39.2296 53.5111 38.6954L53.2526 38.5878ZM52.3638 39.8486C51.9855 40.1925 51.5301 40.4553 50.9953 40.6359L51.0848 40.9012C51.6528 40.7094 52.1427 40.428 52.5522 40.0557L52.3638 39.8486ZM50.9953 40.6359C50.4602 40.8166 49.8668 40.9079 49.2139 40.9079V41.1879C49.893 41.1879 50.5171 41.0929 51.0848 40.9012L50.9953 40.6359ZM49.2139 40.9079C48.7534 40.9079 48.3151 40.8486 47.8985 40.7305L47.8222 40.9999C48.265 41.1254 48.7291 41.1879 49.2139 41.1879V40.9079ZM47.8991 40.7307C47.4874 40.6121 47.1774 40.4615 46.9607 40.2842L46.7834 40.5009C47.0394 40.7104 47.3882 40.8749 47.8216 40.9998L47.8991 40.7307ZM46.7708 40.2959C46.6105 40.4639 46.4772 40.6544 46.3709 40.8671L46.6213 40.9923C46.7155 40.8039 46.8329 40.6364 46.9733 40.4892L46.7708 40.2959ZM46.3718 40.8652C46.2595 41.0819 46.2057 41.3303 46.2057 41.6064H46.4857C46.4857 41.367 46.5322 41.1642 46.6204 40.9941L46.3718 40.8652ZM46.2057 41.6064C46.2057 41.9593 46.3731 42.2496 46.683 42.4721L46.8463 42.2447C46.5976 42.0661 46.4857 41.8552 46.4857 41.6064H46.2057ZM46.685 42.4735C46.9925 42.6864 47.393 42.7983 47.8754 42.8205L47.8883 42.5408C47.4396 42.5201 47.0954 42.4171 46.8443 42.2433L46.685 42.4735ZM47.8759 42.8205L50.9052 42.9494L50.9171 42.6697L47.8878 42.5408L47.8759 42.8205ZM50.9076 42.9495C51.4699 42.9636 51.9838 43.0408 52.4502 43.18L52.5303 42.9117C52.037 42.7645 51.4982 42.6842 50.9146 42.6696L50.9076 42.9495ZM52.4507 43.1802C52.924 43.3194 53.3272 43.5166 53.6627 43.7699L53.8314 43.5465C53.4651 43.2699 53.0304 43.0589 52.5297 42.9116L52.4507 43.1802ZM53.6642 43.771C53.9973 44.0158 54.2549 44.3209 54.4383 44.6876L54.6887 44.5624C54.4853 44.1557 54.1986 43.8162 53.83 43.5454L53.6642 43.771ZM54.4397 44.6904C54.6279 45.0467 54.7243 45.4639 54.7243 45.9463H55.0043C55.0043 45.426 54.9001 44.9625 54.6873 44.5596L54.4397 44.6904ZM54.7243 45.9463C54.7243 46.4634 54.6175 46.9518 54.4042 47.4129L54.6583 47.5305C54.889 47.0319 55.0043 46.5034 55.0043 45.9463H54.7243ZM54.4042 47.4129C54.1923 47.8709 53.8667 48.2766 53.4235 48.6298L53.598 48.8487C54.0715 48.4714 54.4262 48.0321 54.6583 47.5305L54.4042 47.4129ZM53.4235 48.6298C52.9828 48.981 52.4132 49.2603 51.71 49.4642L51.788 49.7331C52.5171 49.5216 53.122 49.228 53.598 48.8487L53.4235 48.6298ZM51.7088 49.4645C51.0089 49.6745 50.1815 49.7809 49.2246 49.7809V50.0609C50.2013 50.0609 51.0569 49.9524 51.7893 49.7327L51.7088 49.4645ZM49.2246 49.7809C48.2936 49.7809 47.5067 49.7026 46.8617 49.5484L46.7965 49.8207C47.4693 49.9816 48.2794 50.0609 49.2246 50.0609V49.7809ZM46.8617 49.5484C46.2137 49.3935 45.6894 49.1803 45.2842 48.9125L45.1298 49.1461C45.5697 49.4369 46.1268 49.6606 46.7965 49.8207L46.8617 49.5484ZM45.2838 48.9122C44.886 48.6516 44.5999 48.3399 44.4192 47.9784L44.1687 48.1036C44.3747 48.5156 44.6974 48.8628 45.1303 49.1464L45.2838 48.9122ZM44.4196 47.9794C44.2433 47.62 44.1546 47.2294 44.1546 46.8057H43.8746C43.8746 47.2699 43.9722 47.703 44.1683 48.1027L44.4196 47.9794ZM44.1546 46.8057C44.1546 46.5298 44.1857 46.2652 44.2474 46.0116L43.9753 45.9454C43.9081 46.2218 43.8746 46.5086 43.8746 46.8057H44.1546ZM44.2465 46.015C44.3147 45.7625 44.4172 45.5198 44.5543 45.2868L44.3129 45.1448C44.1635 45.3988 44.0512 45.6646 43.9762 45.942L44.2465 46.015ZM44.5543 45.2868C44.6916 45.0534 44.8602 44.833 45.0606 44.6256L44.8593 44.431C44.6444 44.6534 44.4621 44.8913 44.3129 45.1448L44.5543 45.2868ZM45.0606 44.6257C45.2706 44.4087 45.5094 44.1944 45.7772 43.9829L45.6037 43.7632C45.3272 43.9814 45.079 44.204 44.8594 44.431L45.0606 44.6257ZM45.7539 43.7483C45.3485 43.5421 45.0588 43.2892 44.8747 42.9934L44.637 43.1413C44.854 43.4901 45.1873 43.7743 45.627 43.9978L45.7539 43.7483ZM44.8754 42.9946C44.6881 42.6867 44.5951 42.3574 44.5951 42.0039H44.3151C44.3151 42.4096 44.4226 42.7892 44.6363 43.1402L44.8754 42.9946ZM44.5951 42.0039C44.5951 41.5008 44.6983 41.0582 44.9012 40.6726L44.6535 40.5422C44.4267 40.9731 44.3151 41.4615 44.3151 42.0039H44.5951ZM44.9017 40.6717C45.1106 40.2679 45.3678 39.9065 45.6734 39.587L45.4711 39.3935C45.1465 39.7328 44.8738 40.1162 44.653 40.5431L44.9017 40.6717ZM45.6794 39.4001C45.4247 39.0972 45.221 38.7524 45.0688 38.3648L44.8082 38.4672C44.971 38.8817 45.1899 39.2531 45.4651 39.5803L45.6794 39.4001ZM45.0696 38.3669C44.9266 37.9857 44.8529 37.5199 44.8529 36.9658H44.5729C44.5729 37.5433 44.6496 38.0443 44.8074 38.4652L45.0696 38.3669ZM44.8529 36.9658C44.8529 36.3228 44.9612 35.751 45.1748 35.2481L44.917 35.1386C44.6866 35.6813 44.5729 36.2911 44.5729 36.9658H44.8529ZM45.175 35.2475C45.3898 34.7348 45.6863 34.3082 46.0639 33.9649L45.8756 33.7577C45.4654 34.1306 45.146 34.592 44.9168 35.1393L45.175 35.2475ZM46.064 33.9648C46.4501 33.6132 46.9097 33.3432 47.4448 33.1556L47.3521 32.8913C46.7843 33.0904 46.2914 33.379 45.8755 33.7578L46.064 33.9648ZM47.4448 33.1556C47.9795 32.968 48.5688 32.8734 49.2139 32.8734V32.5934C48.5412 32.5934 47.9202 32.6921 47.3521 32.8913L47.4448 33.1556ZM49.2139 32.8734C49.5591 32.8734 49.8783 32.8945 50.1716 32.9364L50.2112 32.6593C49.903 32.6152 49.5704 32.5934 49.2139 32.5934V32.8734ZM50.1752 32.9369C50.4772 32.972 50.7568 33.0245 51.0143 33.0941L51.0873 32.8238C50.8149 32.7502 50.5215 32.6953 50.2076 32.6588L50.1752 32.9369ZM51.0508 33.099H54.5635V32.819H51.0508V33.099ZM54.5635 33.099C54.6106 33.099 54.6456 33.1104 54.6738 33.1292C54.7029 33.1486 54.733 33.1814 54.7605 33.2364L55.011 33.1112C54.9669 33.023 54.9074 32.9484 54.8291 32.8962C54.7499 32.8434 54.6596 32.819 54.5635 32.819V33.099ZM54.7619 33.239C54.8171 33.3439 54.8532 33.5303 54.8532 33.8184H55.1332C55.1332 33.5191 55.0976 33.2759 55.0096 33.1086L54.7619 33.239ZM51.8138 36.8799C51.8138 36.059 51.5876 35.4033 51.1175 34.9332L50.9196 35.1312C51.3232 35.5349 51.5338 36.111 51.5338 36.8799H51.8138ZM51.1192 34.9349C50.6559 34.4561 49.9991 34.2262 49.1709 34.2262V34.5062C49.9469 34.5062 50.5219 34.7203 50.9179 35.1296L51.1192 34.9349ZM49.1709 34.2262C48.7405 34.2262 48.3588 34.2967 48.0294 34.4423L48.1425 34.6984C48.429 34.5718 48.7706 34.5062 49.1709 34.5062V34.2262ZM48.0282 34.4428C47.7089 34.5872 47.4407 34.7898 47.2259 35.0506L47.4421 35.2286C47.6283 35.0025 47.8614 34.8255 48.1436 34.6979L48.0282 34.4428ZM47.2272 35.0491C47.0139 35.3004 46.8549 35.5928 46.7494 35.9243L47.0162 36.0092C47.1112 35.7106 47.253 35.4515 47.4407 35.2302L47.2272 35.0491ZM46.7494 35.9243C46.6446 36.2537 46.5924 36.5975 46.5924 36.9551H46.8724C46.8724 36.6252 46.9205 36.3101 47.0162 36.0092L46.7494 35.9243ZM46.5924 36.9551C46.5924 37.7484 46.8156 38.3887 47.2771 38.8579L47.4768 38.6616C47.0789 38.2571 46.8724 37.6943 46.8724 36.9551H46.5924ZM47.278 38.8588C47.7478 39.3286 48.3997 39.555 49.2139 39.555V39.275C48.4525 39.275 47.8798 39.0646 47.4759 38.6608L47.278 38.8588ZM49.2139 39.555C49.6434 39.555 50.0242 39.4884 50.3529 39.3508L50.2448 39.0925C49.9576 39.2128 49.6151 39.275 49.2139 39.275V39.555ZM50.3543 39.3502C50.6871 39.2065 50.9631 39.0081 51.179 38.7537L50.9655 38.5725C50.7804 38.7907 50.5408 38.9647 50.2433 39.0932L50.3543 39.3502ZM51.179 38.7537C51.3918 38.5028 51.5509 38.2145 51.6566 37.89L51.3903 37.8033C51.2954 38.0948 51.1537 38.3507 50.9655 38.5725L51.179 38.7537ZM51.6568 37.8891C51.7615 37.5604 51.8138 37.2238 51.8138 36.8799H51.5338C51.5338 37.1949 51.4859 37.5028 51.39 37.8042L51.6568 37.8891ZM52.8773 46.0645C52.8773 45.5239 52.6501 45.0969 52.2027 44.7986L52.0473 45.0315C52.4163 45.2775 52.5973 45.6167 52.5973 46.0645H52.8773ZM52.2027 44.7986C51.7649 44.5067 51.1843 44.36 50.4736 44.3454L50.4678 44.6253C51.1464 44.6393 51.6687 44.7791 52.0473 45.0315L52.2027 44.7986ZM50.4757 44.3454L47.4786 44.238L47.4686 44.5178L50.4657 44.6253L50.4757 44.3454ZM47.3883 44.267C47.1047 44.4851 46.8692 44.6944 46.6834 44.8951L46.8889 45.0854C47.0611 44.8993 47.284 44.7004 47.559 44.4889L47.3883 44.267ZM46.6815 44.8972C46.5052 45.0956 46.3599 45.2888 46.2471 45.4768L46.4872 45.6209C46.5893 45.4508 46.7234 45.2716 46.8908 45.0832L46.6815 44.8972ZM46.2463 45.4783C46.1401 45.6602 46.0631 45.8443 46.0165 46.0305L46.2882 46.0984C46.3276 45.9408 46.3937 45.7812 46.4881 45.6194L46.2463 45.4783ZM46.0153 46.0359C45.9775 46.2174 45.9586 46.4024 45.9586 46.5908H46.2386C46.2386 46.4212 46.2556 46.2553 46.2894 46.093L46.0153 46.0359ZM45.9586 46.5908C45.9586 46.895 46.0361 47.168 46.1945 47.4045C46.3522 47.6401 46.5849 47.8319 46.884 47.9833L47.0105 47.7335C46.7438 47.5985 46.5523 47.4357 46.4271 47.2488C46.3026 47.0628 46.2386 46.8452 46.2386 46.5908H45.9586ZM46.8834 47.983C47.4842 48.2909 48.3007 48.4388 49.3213 48.4388V48.1588C48.3224 48.1588 47.5562 48.0131 47.0111 47.7338L46.8834 47.983ZM49.3213 48.4388C49.9741 48.4388 50.5292 48.3737 50.983 48.2397L50.9037 47.9712C50.4839 48.0951 49.9575 48.1588 49.3213 48.1588V48.4388ZM50.9809 48.2403C51.4297 48.1153 51.7989 47.9437 52.0825 47.7215L51.9097 47.5011C51.6633 47.6943 51.3307 47.8522 50.9058 47.9706L50.9809 48.2403ZM52.0825 47.7215C52.3627 47.5018 52.5686 47.2476 52.6939 46.9579L52.4369 46.8468C52.333 47.087 52.1594 47.3055 51.9097 47.5011L52.0825 47.7215ZM52.6939 46.9579C52.8162 46.6751 52.8773 46.3769 52.8773 46.0645H52.5973C52.5973 46.3393 52.5438 46.5997 52.4369 46.8468L52.6939 46.9579Z" fill="#666666"/>
<path d="M10.4287 11.7412C9.18262 11.7555 8.15137 12.1816 7.33496 13.0195C6.51855 13.8574 6.10319 14.8851 6.08887 16.1025C6.13184 17.363 6.55436 18.387 7.35645 19.1748C8.15853 19.9554 9.18262 20.3851 10.4287 20.4639C11.6748 20.4137 12.6989 19.9912 13.501 19.1963C14.3102 18.3942 14.7363 17.363 14.7793 16.1025C14.7507 14.8278 14.321 13.7858 13.4902 12.9766C12.6667 12.1673 11.6462 11.7555 10.4287 11.7412ZM16.7451 16.1025C16.7308 16.9619 16.5518 17.7712 16.208 18.5303C15.8643 19.2822 15.4095 19.9411 14.8438 20.5068C14.2852 21.0726 13.6227 21.5202 12.8564 21.8496C12.0973 22.1719 11.2881 22.333 10.4287 22.333C9.56934 22.333 8.76009 22.1719 8.00098 21.8496C7.24902 21.5202 6.59017 21.0726 6.02441 20.5068C5.45866 19.9411 5.01107 19.2822 4.68164 18.5303C4.35938 17.7712 4.19824 16.9619 4.19824 16.1025C4.19824 15.2432 4.35938 14.4375 4.68164 13.6855C5.01107 12.9264 5.45866 12.264 6.02441 11.6982C6.59017 11.1325 7.24902 10.6885 8.00098 10.3662C8.76009 10.0368 9.56934 9.87207 10.4287 9.87207C11.5602 9.87207 12.5951 10.1478 13.5332 10.6992C14.4714 11.2507 15.2126 11.9704 15.7568 12.8584C17.0531 10.8818 18.8327 9.87923 21.0957 9.85059C22.6354 9.80762 24.0534 10.3698 25.3496 11.5371C26.653 12.6973 27.3333 14.2191 27.3906 16.1025C27.362 17.9144 26.7676 19.3968 25.6074 20.5498C24.4473 21.6956 22.9434 22.29 21.0957 22.333C20.2578 22.333 19.4486 22.1611 18.668 21.8174C18.5176 21.7458 18.3994 21.667 18.3135 21.5811C18.2347 21.4951 18.1774 21.377 18.1416 21.2266C18.1058 21.069 18.1022 20.9222 18.1309 20.7861C18.1595 20.6501 18.224 20.5212 18.3242 20.3994C18.4316 20.2705 18.5426 20.1738 18.6572 20.1094C18.779 20.0449 18.9043 20.0127 19.0332 20.0127C19.1621 20.0055 19.2731 20.0199 19.3662 20.0557C19.5882 20.1631 19.8174 20.2454 20.0537 20.3027C20.376 20.3958 20.7233 20.4424 21.0957 20.4424H21.1816C21.776 20.4424 22.3346 20.3278 22.8574 20.0986C23.3874 19.8695 23.8457 19.5651 24.2324 19.1855C24.6263 18.7988 24.9378 18.3405 25.167 17.8105C25.4033 17.2806 25.5286 16.7113 25.543 16.1025V16.0166C25.543 15.4365 25.432 14.8851 25.21 14.3623C24.988 13.8324 24.68 13.3776 24.2861 12.998C23.8923 12.6113 23.4339 12.307 22.9111 12.085C22.3883 11.8558 21.8369 11.7412 21.2568 11.7412H21.0957C20.5013 11.7699 19.9427 11.8988 19.4199 12.1279C18.8971 12.3499 18.4388 12.6543 18.0449 13.041C17.6582 13.4277 17.3467 13.8825 17.1104 14.4053C16.8812 14.9281 16.7594 15.4938 16.7451 16.1025ZM21.2568 2.43848C21.2568 2.71777 21.3571 2.9541 21.5576 3.14746C21.751 3.34082 21.9837 3.4375 22.2559 3.4375C22.5495 3.4375 22.7894 3.34082 22.9756 3.14746C23.1618 2.9541 23.2549 2.71777 23.2549 2.43848C23.2549 2.15202 23.1618 1.91569 22.9756 1.72949C22.7894 1.53613 22.5495 1.43945 22.2559 1.43945C21.9837 1.43945 21.751 1.53613 21.5576 1.72949C21.3571 1.91569 21.2568 2.15202 21.2568 2.43848ZM20.666 9.06641H19.3662C19.8818 8.77279 20.376 8.41471 20.8486 7.99219C21.2354 7.63411 21.6292 7.1901 22.0303 6.66016C22.4313 6.13021 22.7321 5.49284 22.9326 4.74805C22.6891 4.81966 22.4635 4.85547 22.2559 4.85547C21.9264 4.85547 21.6185 4.7946 21.332 4.67285C21.0384 4.55111 20.7842 4.38281 20.5693 4.16797C20.3473 3.94596 20.1755 3.69173 20.0537 3.40527C19.932 3.11165 19.8711 2.79655 19.8711 2.45996C19.8711 2.14486 19.932 1.84049 20.0537 1.54688C20.1755 1.25326 20.3473 0.999023 20.5693 0.78418C20.7842 0.569336 21.0384 0.401042 21.332 0.279297C21.6185 0.150391 21.9264 0.0859375 22.2559 0.0859375C22.5781 0.0859375 22.8861 0.150391 23.1797 0.279297C23.4661 0.401042 23.7168 0.569336 23.9316 0.78418C24.1465 0.999023 24.3184 1.25326 24.4473 1.54688C24.569 1.84049 24.6299 2.14486 24.6299 2.45996C24.6299 2.79655 24.6048 3.22982 24.5547 3.75977C24.5046 4.28971 24.3649 4.86263 24.1357 5.47852C23.8994 6.08724 23.5449 6.70671 23.0723 7.33691C22.5996 7.96712 21.9479 8.54362 21.1172 9.06641H20.666ZM29.0557 12.8584C29.0557 12.5218 29.1165 12.2103 29.2383 11.9238C29.3672 11.6302 29.5391 11.376 29.7539 11.1611C29.9688 10.9391 30.2194 10.7673 30.5059 10.6455C30.7995 10.5238 31.1146 10.4629 31.4512 10.4629C31.7806 10.4629 32.0885 10.5238 32.375 10.6455C32.6686 10.7673 32.9264 10.9391 33.1484 11.1611C33.3704 11.376 33.5423 11.6302 33.6641 11.9238C33.7858 12.2103 33.8467 12.5218 33.8467 12.8584C33.8467 13.1878 33.7858 13.4993 33.6641 13.793C33.5423 14.0794 33.3704 14.3337 33.1484 14.5557C32.9264 14.7705 32.6686 14.9388 32.375 15.0605C32.0885 15.1823 31.7806 15.2432 31.4512 15.2432C31.1146 15.2432 30.7995 15.1823 30.5059 15.0605C30.2194 14.9388 29.9688 14.7705 29.7539 14.5557C29.5391 14.3337 29.3672 14.0794 29.2383 13.793C29.1165 13.4993 29.0557 13.1878 29.0557 12.8584ZM29.0557 19.6475C29.0557 19.318 29.1165 19.0101 29.2383 18.7236C29.3672 18.43 29.5391 18.1722 29.7539 17.9502C29.9688 17.7282 30.2194 17.5563 30.5059 17.4346C30.7995 17.3128 31.1146 17.252 31.4512 17.252C31.7806 17.252 32.0885 17.3128 32.375 17.4346C32.6686 17.5563 32.9264 17.7282 33.1484 17.9502C33.3704 18.1722 33.5423 18.43 33.6641 18.7236C33.7858 19.0101 33.8467 19.318 33.8467 19.6475C33.8467 19.984 33.7858 20.2992 33.6641 20.5928C33.5423 20.8792 33.3704 21.1299 33.1484 21.3447C32.9264 21.5596 32.6686 21.7314 32.375 21.8604C32.0885 21.9821 31.7806 22.043 31.4512 22.043C31.1146 22.043 30.7995 21.9821 30.5059 21.8604C30.2194 21.7314 29.9688 21.5596 29.7539 21.3447C29.5391 21.1299 29.3672 20.8792 29.2383 20.5928C29.1165 20.2992 29.0557 19.984 29.0557 19.6475ZM30.3877 19.6475C30.3877 19.9554 30.4915 20.2132 30.6992 20.4209C30.9069 20.6286 31.1647 20.7324 31.4727 20.7324C31.7591 20.7324 32.0098 20.6286 32.2246 20.4209C32.4395 20.2132 32.5469 19.9554 32.5469 19.6475C32.5469 19.361 32.4395 19.1104 32.2246 18.8955C32.0098 18.6807 31.7591 18.5732 31.4727 18.5732C31.1647 18.5732 30.9069 18.6807 30.6992 18.8955C30.4915 19.1104 30.3877 19.361 30.3877 19.6475ZM30.3662 12.8799C30.3662 13.1807 30.4665 13.4385 30.667 13.6533C30.8675 13.861 31.1217 13.9648 31.4297 13.9648C31.7305 13.9648 31.9847 13.861 32.1924 13.6533C32.4001 13.4385 32.5039 13.1807 32.5039 12.8799C32.5039 12.5863 32.4001 12.3356 32.1924 12.1279C31.9847 11.9202 31.7305 11.8164 31.4297 11.8164C31.1217 11.8164 30.8675 11.9202 30.667 12.1279C30.4665 12.3356 30.3662 12.5863 30.3662 12.8799Z" fill="#666666"/>
<path d="M10.4287 11.7412L10.432 11.4612L10.4255 11.4612L10.4287 11.7412ZM6.08887 16.1025L5.80859 16.0992L5.80903 16.1121L6.08887 16.1025ZM7.35645 19.1748L7.16024 19.3746L7.16116 19.3755L7.35645 19.1748ZM10.4287 20.4639L10.411 20.7433L10.4255 20.7442L10.44 20.7436L10.4287 20.4639ZM13.501 19.1963L13.6981 19.3952L13.6981 19.3952L13.501 19.1963ZM14.7793 16.1025L15.0591 16.1121L15.0594 16.1042L15.0592 16.0962L14.7793 16.1025ZM13.4902 12.9766L13.294 13.1763L13.2949 13.1771L13.4902 12.9766ZM16.7451 16.1025L16.4652 16.096L16.4652 16.0979L16.7451 16.1025ZM16.208 18.5303L16.4627 18.6467L16.4631 18.6458L16.208 18.5303ZM14.8438 20.5068L14.6458 20.3088L14.6445 20.3101L14.8438 20.5068ZM12.8564 21.8496L12.9659 22.1073L12.967 22.1068L12.8564 21.8496ZM8.00098 21.8496L7.88861 22.1061L7.89156 22.1073L8.00098 21.8496ZM4.68164 18.5303L4.42389 18.6397L4.42517 18.6426L4.68164 18.5303ZM4.68164 13.6855L4.42478 13.5741L4.42428 13.5752L4.68164 13.6855ZM8.00098 10.3662L8.11128 10.6236L8.11244 10.6231L8.00098 10.3662ZM13.5332 10.6992L13.6751 10.4578L13.5332 10.6992ZM15.7568 12.8584L15.5181 13.0047L15.7488 13.3812L15.991 13.0119L15.7568 12.8584ZM21.0957 9.85059L21.0992 10.1306L21.1035 10.1305L21.0957 9.85059ZM25.3496 11.5371L25.1622 11.7452L25.1634 11.7463L25.3496 11.5371ZM27.3906 16.1025L27.6709 16.107L27.6705 16.094L27.3906 16.1025ZM25.6074 20.5498L25.8042 20.749L25.8048 20.7484L25.6074 20.5498ZM21.0957 22.333V22.6131L21.1022 22.6129L21.0957 22.333ZM18.668 21.8174L18.5475 22.0703L18.5551 22.0736L18.668 21.8174ZM18.3135 21.5811L18.1069 21.7704L18.1155 21.779L18.3135 21.5811ZM18.1416 21.2266L17.8686 21.2886L17.8692 21.2914L18.1416 21.2266ZM18.3242 20.3994L18.1091 20.2202L18.1081 20.2214L18.3242 20.3994ZM18.6572 20.1094L18.5262 19.8618L18.52 19.8653L18.6572 20.1094ZM19.0332 20.0127V20.2927H19.041L19.0487 20.2923L19.0332 20.0127ZM19.3662 20.0557L19.4882 19.8036L19.4776 19.7985L19.4667 19.7943L19.3662 20.0557ZM20.0537 20.3027L20.1315 20.0335L20.1197 20.0306L20.0537 20.3027ZM22.8574 20.0986L22.7463 19.8416L22.745 19.8422L22.8574 20.0986ZM24.2324 19.1855L24.4286 19.3854L24.4286 19.3853L24.2324 19.1855ZM25.167 17.8105L24.9113 17.6965L24.91 17.6994L25.167 17.8105ZM25.543 16.1025L25.823 16.1091V16.1025H25.543ZM25.21 14.3623L24.9517 14.4705L24.9522 14.4717L25.21 14.3623ZM24.2861 12.998L24.09 13.1979L24.0918 13.1997L24.2861 12.998ZM22.9111 12.085L22.7987 12.3414L22.8017 12.3427L22.9111 12.085ZM21.0957 11.7412V11.4609L21.0822 11.4615L21.0957 11.7412ZM19.4199 12.1279L19.5294 12.3857L19.5323 12.3844L19.4199 12.1279ZM18.0449 13.041L17.8487 12.8412L17.8469 12.843L18.0449 13.041ZM17.1104 14.4053L16.8552 14.2899L16.8539 14.2929L17.1104 14.4053ZM10.4255 11.4612C9.11038 11.4763 8.00639 11.9292 7.13442 12.8241L7.53551 13.2149C8.29635 12.4341 9.25485 12.0347 10.4319 12.0212L10.4255 11.4612ZM7.13442 12.8241C6.26564 13.7158 5.82402 14.8132 5.80889 16.0992L6.36885 16.1058C6.38236 14.957 6.77147 13.9991 7.53551 13.2149L7.13442 12.8241ZM5.80903 16.1121C5.85412 17.4348 6.30053 18.5302 7.16025 19.3746L7.55264 18.975C6.8082 18.2439 6.40955 17.2911 6.3687 16.093L5.80903 16.1121ZM7.16116 19.3755C8.01676 20.2081 9.10649 20.6608 10.411 20.7433L10.4464 20.1844C9.25875 20.1093 8.3003 19.7027 7.55173 18.9741L7.16116 19.3755ZM10.44 20.7436C11.748 20.691 12.841 20.2446 13.6981 19.3952L13.3039 18.9974C12.5568 19.7378 11.6016 20.1365 10.4175 20.1841L10.44 20.7436ZM13.6981 19.3952C14.5636 18.5373 15.014 17.4356 15.0591 16.1121L14.4995 16.093C14.4586 17.2904 14.0568 18.2511 13.3039 18.9974L13.6981 19.3952ZM15.0592 16.0962C15.0291 14.7562 14.5743 13.6417 13.6856 12.776L13.2949 13.1771C14.0676 13.9299 14.4722 14.8994 14.4994 16.1088L15.0592 16.0962ZM13.6865 12.7768C12.8083 11.914 11.7174 11.4764 10.432 11.4612L10.4254 12.0212C11.5749 12.0347 12.525 12.4207 13.294 13.1763L13.6865 12.7768ZM16.4652 16.0979C16.4515 16.9202 16.2804 17.6916 15.9529 18.4148L16.4631 18.6458C16.8231 17.8507 17.0101 17.0036 17.0251 16.1072L16.4652 16.0979ZM15.9534 18.4139C15.623 19.1365 15.1871 19.7675 14.6458 20.3088L15.0417 20.7048C15.6319 20.1147 16.1055 19.428 16.4627 18.6467L15.9534 18.4139ZM14.6445 20.3101C14.1125 20.8489 13.4806 21.2765 12.7459 21.5924L12.967 22.1068C13.7648 21.7639 14.4578 21.2963 15.043 20.7036L14.6445 20.3101ZM12.747 21.5919C12.024 21.8988 11.2521 22.053 10.4287 22.053V22.613C11.3241 22.613 12.1707 22.4449 12.9659 22.1073L12.747 21.5919ZM10.4287 22.053C9.60532 22.053 8.83345 21.8988 8.11039 21.5919L7.89156 22.1073C8.68674 22.4449 9.53335 22.613 10.4287 22.613V22.053ZM8.11333 21.5931C7.39247 21.2773 6.76286 20.8493 6.2224 20.3088L5.82642 20.7048C6.41748 21.2959 7.10558 21.763 7.88862 22.1061L8.11333 21.5931ZM6.2224 20.3088C5.68195 19.7684 5.25392 19.1388 4.93811 18.4179L4.42517 18.6426C4.76822 19.4257 5.23537 20.1138 5.82642 20.7048L6.2224 20.3088ZM4.93938 18.4209C4.63242 17.6978 4.47824 16.9259 4.47824 16.1025H3.91824C3.91824 16.9979 4.08633 17.8445 4.4239 18.6397L4.93938 18.4209ZM4.47824 16.1025C4.47824 15.2791 4.63242 14.5112 4.939 13.7958L4.42428 13.5752C4.08633 14.3638 3.91824 15.2072 3.91824 16.1025H4.47824ZM4.9385 13.797C5.2544 13.0691 5.68239 12.4362 6.2224 11.8962L5.82642 11.5003C5.23493 12.0917 4.76773 12.7838 4.42478 13.5741L4.9385 13.797ZM6.2224 11.8962C6.7624 11.3562 7.39131 10.9321 8.11127 10.6236L7.89068 10.1089C7.10674 10.4448 6.41794 10.9087 5.82642 11.5003L6.2224 11.8962ZM8.11244 10.6231C8.83502 10.3095 9.60617 10.1521 10.4287 10.1521V9.59207C9.5325 9.59207 8.68516 9.76407 7.88951 10.1094L8.11244 10.6231ZM10.4287 10.1521C11.5124 10.1521 12.4979 10.4155 13.3913 10.9406L13.6751 10.4578C12.6922 9.88009 11.608 9.59207 10.4287 9.59207V10.1521ZM13.3913 10.9406C14.2917 11.4698 14.9989 12.1576 15.5181 13.0047L15.9956 12.7121C15.4262 11.7831 14.651 11.0315 13.6751 10.4578L13.3913 10.9406ZM15.991 13.0119C17.2388 11.1091 18.9342 10.158 21.0992 10.1306L21.0922 9.57061C18.7312 9.60049 16.8673 10.6546 15.5227 12.7048L15.991 13.0119ZM21.1035 10.1305C22.5617 10.0898 23.9118 10.6191 25.1622 11.7452L25.537 11.329C24.195 10.1205 22.7092 9.52545 21.0879 9.57069L21.1035 10.1305ZM25.1634 11.7463C26.4044 12.8509 27.0556 14.2977 27.1108 16.1111L27.6705 16.094C27.6111 14.1405 26.9016 12.5437 25.5358 11.328L25.1634 11.7463ZM27.1107 16.0981C27.083 17.8455 26.5126 19.2554 25.41 20.3512L25.8048 20.7484C27.0225 19.5382 27.6409 17.9832 27.6706 16.107L27.1107 16.0981ZM25.4107 20.3506C24.3082 21.4395 22.8757 22.0115 21.0892 22.0531L21.1022 22.6129C23.011 22.5685 24.5863 21.9518 25.8042 20.749L25.4107 20.3506ZM21.0957 22.053C20.2974 22.053 19.5265 21.8895 18.7808 21.5611L18.5551 22.0736C19.3706 22.4328 20.2182 22.613 21.0957 22.613V22.053ZM18.7884 21.5646C18.6568 21.502 18.5682 21.4398 18.5115 21.3831L18.1155 21.779C18.2306 21.8942 18.3783 21.9896 18.5476 22.0702L18.7884 21.5646ZM18.5199 21.3919C18.4821 21.3507 18.4422 21.2803 18.414 21.1617L17.8692 21.2914C17.9126 21.4736 17.9873 21.6395 18.1071 21.7703L18.5199 21.3919ZM18.4146 21.1645C18.3863 21.04 18.3858 20.9345 18.4049 20.8438L17.8569 20.7284C17.8187 20.9099 17.8252 21.098 17.8686 21.2886L18.4146 21.1645ZM18.4049 20.8438C18.423 20.7576 18.4649 20.669 18.5404 20.5774L18.1081 20.2214C17.983 20.3733 17.896 20.5426 17.8569 20.7284L18.4049 20.8438ZM18.5393 20.5787C18.6307 20.469 18.7165 20.3973 18.7945 20.3534L18.52 19.8653C18.3688 19.9504 18.2326 20.072 18.1091 20.2202L18.5393 20.5787ZM18.7882 20.3568C18.8725 20.3122 18.9531 20.2927 19.0332 20.2927V19.7327C18.8555 19.7327 18.6855 19.7776 18.5262 19.8619L18.7882 20.3568ZM19.0487 20.2923C19.1493 20.2867 19.2187 20.2989 19.2657 20.317L19.4667 19.7943C19.3275 19.7408 19.175 19.7244 19.0177 19.7331L19.0487 20.2923ZM19.2443 20.3077C19.4839 20.4237 19.7318 20.5128 19.9877 20.5749L20.1197 20.0306C19.9029 19.9781 19.6925 19.9025 19.4882 19.8036L19.2443 20.3077ZM19.976 20.5717C20.3261 20.6729 20.6999 20.7224 21.0957 20.7224V20.1624C20.7467 20.1624 20.4258 20.1188 20.1314 20.0337L19.976 20.5717ZM21.0957 20.7224H21.1816V20.1624H21.0957V20.7224ZM21.1816 20.7224C21.8131 20.7224 22.4101 20.6004 22.9698 20.3551L22.745 19.8422C22.2591 20.0552 21.739 20.1624 21.1816 20.1624V20.7224ZM22.9686 20.3556C23.528 20.1137 24.0157 19.7906 24.4286 19.3854L24.0363 18.9857C23.6757 19.3396 23.2467 19.6252 22.7463 19.8416L22.9686 20.3556ZM24.4286 19.3853C24.8495 18.9721 25.1811 18.4833 25.424 17.9217L24.91 17.6994C24.6945 18.1977 24.4031 18.6255 24.0363 18.9857L24.4286 19.3853ZM25.4227 17.9246C25.6749 17.3591 25.8077 16.7531 25.8229 16.1091L25.263 16.096C25.2496 16.6695 25.1318 17.2021 24.9113 17.6965L25.4227 17.9246ZM25.823 16.1025V16.0166H25.263V16.1025H25.823ZM25.823 16.0166C25.823 15.3997 25.7047 14.811 25.4677 14.2529L24.9522 14.4717C25.1592 14.9592 25.263 15.4733 25.263 16.0166H25.823ZM25.4682 14.2541C25.2322 13.6908 24.9031 13.2038 24.4804 12.7964L24.0918 13.1997C24.4569 13.5514 24.7437 13.9739 24.9517 14.4705L25.4682 14.2541ZM24.4823 12.7982C24.0627 12.3862 23.5747 12.0625 23.0206 11.8272L22.8017 12.3427C23.2931 12.5514 23.7218 12.8364 24.09 13.1978L24.4823 12.7982ZM23.0235 11.8285C22.4647 11.5836 21.875 11.4612 21.2568 11.4612V12.0212C21.7989 12.0212 22.312 12.128 22.7987 12.3414L23.0235 11.8285ZM21.2568 11.4612H21.0957V12.0212H21.2568V11.4612ZM21.0822 11.4615C20.4552 11.4918 19.8629 11.628 19.3075 11.8715L19.5323 12.3844C20.0225 12.1695 20.5474 12.048 21.1092 12.0209L21.0822 11.4615ZM19.3105 11.8702C18.7564 12.1055 18.2684 12.4292 17.8488 12.8412L18.2411 13.2408C18.6092 12.8794 19.0379 12.5944 19.5294 12.3857L19.3105 11.8702ZM17.8469 12.843C17.4352 13.2548 17.1048 13.7379 16.8552 14.2899L17.3655 14.5206C17.5886 14.0271 17.8812 13.6007 18.2429 13.239L17.8469 12.843ZM16.8539 14.2929C16.6091 14.8512 16.4803 15.4532 16.4652 16.096L17.025 16.1091C17.0386 15.5344 17.1532 15.0049 17.3668 14.5177L16.8539 14.2929ZM21.5576 3.14746L21.7556 2.94944L21.752 2.9459L21.5576 3.14746ZM22.9756 1.72949L22.7739 1.92375L22.7776 1.92748L22.9756 1.72949ZM21.5576 1.72949L21.7483 1.93482L21.7556 1.92748L21.5576 1.72949ZM19.3662 9.06641L19.2277 8.82309L18.3087 9.34641H19.3662V9.06641ZM20.8486 7.99219L21.0353 8.20097L21.0389 8.19764L20.8486 7.99219ZM22.9326 4.74805L23.203 4.82084L23.3329 4.33847L22.8536 4.47942L22.9326 4.74805ZM21.332 4.67285L21.4416 4.41515L21.4393 4.4142L21.332 4.67285ZM20.5693 4.16797L20.3713 4.36596L20.5693 4.16797ZM20.0537 3.40527L19.7951 3.51252L19.796 3.51479L20.0537 3.40527ZM20.5693 0.78418L20.7641 0.985415L20.7673 0.982169L20.5693 0.78418ZM21.332 0.279297L21.4393 0.538059L21.4469 0.534635L21.332 0.279297ZM23.1797 0.279297L23.0671 0.535695L23.0702 0.536989L23.1797 0.279297ZM24.4473 1.54688L24.706 1.43961L24.7036 1.43432L24.4473 1.54688ZM24.1357 5.47852L24.3968 5.57986L24.3982 5.57616L24.1357 5.47852ZM21.1172 9.06641V9.34641H21.198L21.2663 9.30339L21.1172 9.06641ZM20.9768 2.43848C20.9768 2.79357 21.1078 3.10273 21.3633 3.34902L21.752 2.9459C21.6063 2.80548 21.5368 2.64197 21.5368 2.43848H20.9768ZM21.3596 3.34545C21.6052 3.59103 21.9091 3.7175 22.2559 3.7175V3.1575C22.0584 3.1575 21.8967 3.09061 21.7556 2.94947L21.3596 3.34545ZM22.2559 3.7175C22.6177 3.7175 22.9331 3.59529 23.1773 3.34168L22.7739 2.95324C22.6457 3.08635 22.4813 3.1575 22.2559 3.1575V3.7175ZM23.1773 3.34168C23.4159 3.09385 23.5349 2.78695 23.5349 2.43848H22.9749C22.9749 2.64859 22.9076 2.81435 22.7739 2.95324L23.1773 3.34168ZM23.5349 2.43848C23.5349 2.08495 23.4172 1.77509 23.1736 1.5315L22.7776 1.92748C22.9064 2.0563 22.9749 2.21909 22.9749 2.43848H23.5349ZM23.1773 1.53527C22.9331 1.28166 22.6177 1.15945 22.2559 1.15945V1.71945C22.4813 1.71945 22.6457 1.79061 22.7739 1.92371L23.1773 1.53527ZM22.2559 1.15945C21.9091 1.15945 21.6052 1.28592 21.3596 1.5315L21.7556 1.92748C21.8967 1.78635 22.0584 1.71945 22.2559 1.71945V1.15945ZM21.3671 1.52431C21.1066 1.76622 20.9768 2.07827 20.9768 2.43848H21.5368C21.5368 2.22577 21.6076 2.06516 21.7481 1.93467L21.3671 1.52431ZM20.666 8.78641H19.3662V9.34641H20.666V8.78641ZM19.5048 9.30972C20.0387 9.00567 20.5488 8.63576 21.0352 8.20094L20.662 7.78344C20.2031 8.19367 19.725 8.53991 19.2277 8.82309L19.5048 9.30972ZM21.0389 8.19764C21.4403 7.82595 21.845 7.36896 22.2535 6.82912L21.807 6.49119C21.4134 7.01125 21.0304 7.44228 20.6584 7.78673L21.0389 8.19764ZM22.2535 6.82912C22.6795 6.26622 22.9946 5.5949 23.203 4.82084L22.6622 4.67525C22.4696 5.39077 22.1831 5.9942 21.807 6.49119L22.2535 6.82912ZM22.8536 4.47942C22.6303 4.5451 22.4316 4.57547 22.2559 4.57547V5.13547C22.4954 5.13547 22.7479 5.09422 23.0116 5.01667L22.8536 4.47942ZM22.2559 4.57547C21.9618 4.57547 21.6914 4.52133 21.4416 4.41516L21.2225 4.93054C21.5456 5.06786 21.891 5.13547 22.2559 5.13547V4.57547ZM21.4393 4.4142C21.178 4.30587 20.955 4.15765 20.7673 3.96998L20.3713 4.36596C20.6134 4.60797 20.8988 4.79634 21.2248 4.9315L21.4393 4.4142ZM20.7673 3.96998C20.5705 3.77314 20.419 3.54887 20.3114 3.29575L19.796 3.51479C19.9319 3.83459 20.1242 4.11879 20.3713 4.36596L20.7673 3.96998ZM20.3124 3.29803C20.2055 3.04038 20.1511 2.76195 20.1511 2.45996H19.5911C19.5911 2.83115 19.6584 3.18293 19.7951 3.51252L20.3124 3.29803ZM20.1511 2.45996C20.1511 2.18199 20.2046 1.91405 20.3124 1.65412L19.7951 1.43963C19.6593 1.76694 19.5911 2.10772 19.5911 2.45996H20.1511ZM20.3124 1.65412C20.4199 1.39482 20.5704 1.17283 20.7641 0.985389L20.3746 0.582971C20.1243 0.825213 19.931 1.11169 19.7951 1.43963L20.3124 1.65412ZM20.7673 0.982169C20.955 0.794496 21.178 0.64628 21.4393 0.537945L21.2248 0.020649C20.8988 0.155804 20.6134 0.344176 20.3713 0.58619L20.7673 0.982169ZM21.4469 0.534635C21.6955 0.422775 21.9641 0.365937 22.2559 0.365937V-0.194062C21.8888 -0.194062 21.5415 -0.121994 21.2171 0.0239592L21.4469 0.534635ZM22.2559 0.365937C22.5396 0.365937 22.8092 0.422427 23.0671 0.535677L23.2922 0.0229168C22.963 -0.121646 22.6167 -0.194062 22.2559 -0.194062V0.365937ZM23.0702 0.536989C23.3244 0.645041 23.5448 0.793342 23.7337 0.982169L24.1296 0.58619C23.8888 0.34533 23.6079 0.157043 23.2892 0.0216045L23.0702 0.536989ZM23.7337 0.982169C23.9225 1.17107 24.0752 1.39588 24.1909 1.65943L24.7036 1.43432C24.5615 1.11063 24.3704 0.826979 24.1296 0.58619L23.7337 0.982169ZM24.1886 1.65412C24.2964 1.91405 24.3499 2.18199 24.3499 2.45996H24.9099C24.9099 2.10772 24.8416 1.76694 24.7059 1.43963L24.1886 1.65412ZM24.3499 2.45996C24.3499 2.78422 24.3256 3.20781 24.2759 3.7334L24.8334 3.78613C24.884 3.25182 24.9099 2.80888 24.9099 2.45996H24.3499ZM24.2759 3.7334C24.2286 4.23407 24.0959 4.78279 23.8733 5.38087L24.3982 5.57616C24.634 4.94247 24.7805 4.34536 24.8334 3.78613L24.2759 3.7334ZM23.8747 5.37718C23.6493 5.95779 23.3086 6.55508 22.8483 7.16891L23.2963 7.50491C23.7812 6.85833 24.1495 6.21669 24.3968 5.57985L23.8747 5.37718ZM22.8483 7.16891C22.4005 7.76594 21.7767 8.32055 20.9681 8.82943L21.2663 9.30339C22.1192 8.76669 22.7987 8.16831 23.2963 7.50491L22.8483 7.16891ZM21.1172 8.78641H20.666V9.34641H21.1172V8.78641ZM29.2383 11.9238L28.9819 11.8113L28.9806 11.8143L29.2383 11.9238ZM29.7539 11.1611L29.9519 11.3591L29.9551 11.3559L29.7539 11.1611ZM30.5059 10.6455L30.3986 10.3868L30.3963 10.3878L30.5059 10.6455ZM32.375 10.6455L32.2655 10.9032L32.2678 10.9042L32.375 10.6455ZM33.1484 11.1611L32.9504 11.3591L32.9537 11.3623L33.1484 11.1611ZM33.6641 11.9238L33.4054 12.0311L33.4064 12.0333L33.6641 11.9238ZM33.6641 13.793L33.9218 13.9025L33.9227 13.9002L33.6641 13.793ZM33.1484 14.5557L33.3432 14.7569L33.3464 14.7537L33.1484 14.5557ZM32.375 15.0605L32.2678 14.8019L32.2655 14.8029L32.375 15.0605ZM30.5059 15.0605L30.3963 15.3182L30.3986 15.3192L30.5059 15.0605ZM29.7539 14.5557L29.5527 14.7504L29.5559 14.7537L29.7539 14.5557ZM29.2383 13.793L28.9795 13.9003L28.9829 13.9079L29.2383 13.793ZM29.2383 18.7236L28.9819 18.6111L28.9806 18.6141L29.2383 18.7236ZM29.7539 17.9502L29.9551 18.1449L29.7539 17.9502ZM30.5059 17.4346L30.3986 17.1759L30.3963 17.1769L30.5059 17.4346ZM32.375 17.4346L32.2655 17.6923L32.2678 17.6932L32.375 17.4346ZM33.1484 17.9502L32.9504 18.1482L33.1484 17.9502ZM33.6641 18.7236L33.4054 18.8309L33.4064 18.8332L33.6641 18.7236ZM33.6641 20.5928L33.9218 20.7023L33.9227 20.7L33.6641 20.5928ZM33.1484 21.3447L32.9537 21.1435L33.1484 21.3447ZM32.375 21.8604L32.4845 22.1181L32.4876 22.1167L32.375 21.8604ZM30.5059 21.8604L30.3909 22.1158L30.3986 22.119L30.5059 21.8604ZM29.2383 20.5928L28.9795 20.7001L28.9829 20.7077L29.2383 20.5928ZM30.6992 20.4209L30.5012 20.6189L30.6992 20.4209ZM30.667 13.6533L30.4623 13.8444L30.4656 13.8478L30.667 13.6533ZM32.1924 13.6533L32.3904 13.8513L32.3937 13.8479L32.1924 13.6533ZM29.3357 12.8584C29.3357 12.5564 29.3901 12.2824 29.496 12.0333L28.9806 11.8143C28.843 12.1381 28.7757 12.4873 28.7757 12.8584H29.3357ZM29.4947 12.0364C29.6104 11.7728 29.763 11.548 29.9519 11.3591L29.5559 10.9631C29.3151 11.2039 29.124 11.4876 28.9819 11.8113L29.4947 12.0364ZM29.9551 11.3559C30.1437 11.161 30.3631 11.0104 30.6154 10.9032L30.3963 10.3878C30.0757 10.5241 29.7938 10.7173 29.5527 10.9664L29.9551 11.3559ZM30.6131 10.9042C30.8708 10.7973 31.1492 10.7429 31.4512 10.7429V10.1829C31.08 10.1829 30.7282 10.2502 30.3986 10.3869L30.6131 10.9042ZM31.4512 10.7429C31.7452 10.7429 32.0157 10.797 32.2655 10.9032L32.4845 10.3878C32.1614 10.2505 31.816 10.1829 31.4512 10.1829V10.7429ZM32.2678 10.9042C32.5279 11.012 32.7547 11.1634 32.9504 11.3591L33.3464 10.9631C33.0981 10.7148 32.8094 10.5225 32.4822 10.3869L32.2678 10.9042ZM32.9537 11.3623C33.1474 11.5498 33.2979 11.7718 33.4054 12.0311L33.9227 11.8166C33.7867 11.4886 33.5935 11.2022 33.3432 10.9599L32.9537 11.3623ZM33.4064 12.0333C33.5122 12.2824 33.5667 12.5564 33.5667 12.8584H34.1267C34.1267 12.4873 34.0594 12.1381 33.9218 11.8143L33.4064 12.0333ZM33.5667 12.8584C33.5667 13.1524 33.5125 13.4273 33.4054 13.6857L33.9227 13.9002C34.0591 13.5714 34.1267 13.2233 34.1267 12.8584H33.5667ZM33.4064 13.6834C33.2988 13.9366 33.1473 14.1608 32.9504 14.3577L33.3464 14.7537C33.5936 14.5065 33.7858 14.2223 33.9218 13.9025L33.4064 13.6834ZM32.9537 14.3545C32.7577 14.5441 32.5298 14.6932 32.2678 14.8019L32.4822 15.3192C32.8074 15.1844 33.0951 14.9969 33.3432 14.7569L32.9537 14.3545ZM32.2655 14.8029C32.0157 14.909 31.7452 14.9632 31.4512 14.9632V15.5232C31.816 15.5232 32.1614 15.4556 32.4845 15.3182L32.2655 14.8029ZM31.4512 14.9632C31.1492 14.9632 30.8708 14.9087 30.6131 14.8019L30.3986 15.3192C30.7282 15.4559 31.08 15.5232 31.4512 15.5232V14.9632ZM30.6154 14.8029C30.3611 14.6948 30.1407 14.5465 29.9519 14.3577L29.5559 14.7537C29.7968 14.9945 30.0777 15.1828 30.3963 15.3182L30.6154 14.8029ZM29.9551 14.3609C29.7632 14.1626 29.6095 13.9355 29.4936 13.6781L28.9829 13.9079C29.1249 14.2234 29.3149 14.5047 29.5527 14.7504L29.9551 14.3609ZM29.4969 13.6857C29.3898 13.4273 29.3357 13.1524 29.3357 12.8584H28.7757C28.7757 13.2233 28.8433 13.5714 28.9796 13.9002L29.4969 13.6857ZM29.3357 19.6475C29.3357 19.3534 29.3898 19.083 29.496 18.8332L28.9806 18.6141C28.8433 18.9372 28.7757 19.2826 28.7757 19.6475H29.3357ZM29.4947 18.8362C29.6107 18.5718 29.7643 18.3421 29.9551 18.1449L29.5527 17.7555C29.3139 18.0023 29.1237 18.2882 28.9819 18.6111L29.4947 18.8362ZM29.9551 18.1449C30.1437 17.95 30.3631 17.7995 30.6154 17.6923L30.3963 17.1769C30.0757 17.3132 29.7938 17.5064 29.5527 17.7555L29.9551 18.1449ZM30.6131 17.6932C30.8708 17.5864 31.1492 17.532 31.4512 17.532V16.972C31.08 16.972 30.7282 17.0393 30.3986 17.1759L30.6131 17.6932ZM31.4512 17.532C31.7452 17.532 32.0157 17.5861 32.2655 17.6923L32.4845 17.1769C32.1614 17.0396 31.816 16.972 31.4512 16.972V17.532ZM32.2678 17.6932C32.5279 17.8011 32.7547 17.9525 32.9504 18.1482L33.3464 17.7522C33.0981 17.5039 32.8094 17.3116 32.4822 17.1759L32.2678 17.6932ZM32.9504 18.1482C33.1461 18.3439 33.2976 18.5708 33.4054 18.8309L33.9227 18.6164C33.7871 18.2893 33.5947 18.0005 33.3464 17.7522L32.9504 18.1482ZM33.4064 18.8332C33.5125 19.083 33.5667 19.3534 33.5667 19.6475H34.1267C34.1267 19.2826 34.0591 18.9372 33.9218 18.6141L33.4064 18.8332ZM33.5667 19.6475C33.5667 19.9494 33.5122 20.2279 33.4054 20.4855L33.9227 20.7C34.0594 20.3704 34.1267 20.0187 34.1267 19.6475H33.5667ZM33.4064 20.4833C33.2992 20.7355 33.1486 20.9549 32.9537 21.1435L33.3432 21.5459C33.5923 21.3048 33.7855 21.023 33.9218 20.7023L33.4064 20.4833ZM32.9537 21.1435C32.7565 21.3344 32.5268 21.4879 32.2624 21.604L32.4876 22.1167C32.8104 21.975 33.0964 21.7848 33.3432 21.5459L32.9537 21.1435ZM32.2655 21.6027C32.0157 21.7088 31.7452 21.763 31.4512 21.763V22.323C31.816 22.323 32.1614 22.2554 32.4845 22.118L32.2655 21.6027ZM31.4512 21.763C31.1492 21.763 30.8708 21.7085 30.6131 21.6017L30.3986 22.119C30.7282 22.2557 31.08 22.323 31.4512 22.323V21.763ZM30.6208 21.605C30.3642 21.4896 30.1419 21.3368 29.9519 21.1467L29.5559 21.5427C29.7956 21.7824 30.0746 21.9733 30.391 22.1157L30.6208 21.605ZM29.9519 21.1467C29.7619 20.9567 29.6091 20.7345 29.4936 20.4779L28.9829 20.7077C29.1253 21.024 29.3163 21.3031 29.5559 21.5427L29.9519 21.1467ZM29.4969 20.4855C29.3901 20.2279 29.3357 19.9494 29.3357 19.6475H28.7757C28.7757 20.0187 28.843 20.3704 28.9796 20.7L29.4969 20.4855ZM30.1077 19.6475C30.1077 20.0257 30.2383 20.3559 30.5012 20.6189L30.8972 20.2229C30.7448 20.0705 30.6677 19.8851 30.6677 19.6475H30.1077ZM30.5012 20.6189C30.7642 20.8818 31.0945 21.0124 31.4727 21.0124V20.4524C31.235 20.4524 31.0496 20.3753 30.8972 20.2229L30.5012 20.6189ZM31.4727 21.0124C31.8351 21.0124 32.1547 20.878 32.4192 20.6222L32.03 20.2196C31.8649 20.3792 31.6831 20.4524 31.4727 20.4524V21.0124ZM32.4192 20.6222C32.6905 20.36 32.8269 20.0287 32.8269 19.6475H32.2669C32.2669 19.8821 32.1884 20.0664 32.03 20.2196L32.4192 20.6222ZM32.8269 19.6475C32.8269 19.2819 32.6864 18.9613 32.4226 18.6975L32.0266 19.0935C32.1925 19.2594 32.2669 19.4401 32.2669 19.6475H32.8269ZM32.4226 18.6975C32.1588 18.4337 31.8382 18.2932 31.4727 18.2932V18.8532C31.68 18.8532 31.8608 18.9276 32.0266 19.0935L32.4226 18.6975ZM31.4727 18.2932C31.0914 18.2932 30.7601 18.4296 30.4979 18.7009L30.9005 19.0901C31.0537 18.9317 31.238 18.8532 31.4727 18.8532V18.2932ZM30.4979 18.7009C30.2422 18.9655 30.1077 19.285 30.1077 19.6475H30.6677C30.6677 19.437 30.7409 19.2552 30.9005 19.0901L30.4979 18.7009ZM30.0862 12.8799C30.0862 13.2497 30.2121 13.5763 30.4623 13.8444L30.8717 13.4623C30.7208 13.3006 30.6462 13.1116 30.6462 12.8799H30.0862ZM30.4656 13.8478C30.7226 14.1141 31.0514 14.2448 31.4297 14.2448V13.6848C31.1921 13.6848 31.0124 13.6079 30.8684 13.4588L30.4656 13.8478ZM31.4297 14.2448C31.8027 14.2448 32.1288 14.1129 32.3904 13.8513L31.9944 13.4553C31.8406 13.6091 31.6582 13.6848 31.4297 13.6848V14.2448ZM32.3937 13.8479C32.6522 13.5805 32.7839 13.2527 32.7839 12.8799H32.2239C32.2239 13.1086 32.1479 13.2965 31.9911 13.4587L32.3937 13.8479ZM32.7839 12.8799C32.7839 12.512 32.6505 12.1901 32.3904 11.9299L31.9944 12.3259C32.1496 12.4811 32.2239 12.6605 32.2239 12.8799H32.7839ZM32.3904 11.9299C32.1288 11.6683 31.8027 11.5364 31.4297 11.5364V12.0964C31.6582 12.0964 31.8406 12.1721 31.9944 12.3259L32.3904 11.9299ZM31.4297 11.5364C31.0514 11.5364 30.7226 11.6672 30.4656 11.9334L30.8684 12.3224C31.0124 12.1733 31.1921 12.0964 31.4297 12.0964V11.5364ZM30.4656 11.9334C30.2137 12.1943 30.0862 12.5151 30.0862 12.8799H30.6462C30.6462 12.6574 30.7193 12.4769 30.8684 12.3224L30.4656 11.9334Z" fill="#666666"/>
</svg>
