<svg width="60" height="55" viewBox="0 0 60 55" fill="none" xmlns="http://www.w3.org/2000/svg">
<path d="M9.8 43.4L12.4 43.4C13.0896 43.4 13.7509 43.695 14.2385 44.2201C14.7261 44.7452 15 45.4574 15 46.2C15 46.9426 14.7261 47.6548 14.2385 48.1799C13.7509 48.705 13.0896 49 12.4 49L9.8 49C7.732 48.9976 5.74935 48.1118 4.28706 46.537C2.82476 44.9622 2.00226 42.8271 2 40.6L2 37.8C2 37.0574 2.27393 36.3452 2.76152 35.8201C3.24912 35.295 3.91044 35 4.6 35C5.28956 35 5.95088 35.295 6.43848 35.8201C6.92607 36.3452 7.2 37.0574 7.2 37.8L7.2 40.6C7.20069 41.3424 7.47484 42.0541 7.96228 42.5791C8.44973 43.104 9.11065 43.3993 9.8 43.4Z" fill="#666666"/>
<path d="M41.2 16.6H38.6C37.9104 16.6 37.2491 16.305 36.7615 15.7799C36.2739 15.2548 36 14.5426 36 13.8C36 13.0574 36.2739 12.3452 36.7615 11.8201C37.2491 11.295 37.9104 11 38.6 11H41.2C43.268 11.0024 45.2506 11.8882 46.7129 13.463C48.1752 15.0378 48.9977 17.1729 49 19.4V22.2C49 22.9426 48.7261 23.6548 48.2385 24.1799C47.7509 24.705 47.0896 25 46.4 25C45.7104 25 45.0491 24.705 44.5615 24.1799C44.0739 23.6548 43.8 22.9426 43.8 22.2V19.4C43.7993 18.6576 43.5252 17.9459 43.0377 17.4209C42.5503 16.896 41.8894 16.6007 41.2 16.6Z" fill="#666666"/>
<path d="M25.4287 37.7412C24.1826 37.7555 23.1514 38.1816 22.335 39.0195C21.5186 39.8574 21.1032 40.8851 21.0889 42.1025C21.1318 43.363 21.5544 44.387 22.3564 45.1748C23.1585 45.9554 24.1826 46.3851 25.4287 46.4639C26.6748 46.4137 27.6989 45.9912 28.501 45.1963C29.3102 44.3942 29.7363 43.363 29.7793 42.1025C29.7507 40.8278 29.321 39.7858 28.4902 38.9766C27.6667 38.1673 26.6462 37.7555 25.4287 37.7412ZM31.7451 42.1025C31.7308 42.9619 31.5518 43.7712 31.208 44.5303C30.8643 45.2822 30.4095 45.9411 29.8438 46.5068C29.2852 47.0726 28.6227 47.5202 27.8564 47.8496C27.0973 48.1719 26.2881 48.333 25.4287 48.333C24.5693 48.333 23.7601 48.1719 23.001 47.8496C22.249 47.5202 21.5902 47.0726 21.0244 46.5068C20.4587 45.9411 20.0111 45.2822 19.6816 44.5303C19.3594 43.7712 19.1982 42.9619 19.1982 42.1025C19.1982 41.2432 19.3594 40.4375 19.6816 39.6855C20.0111 38.9264 20.4587 38.264 21.0244 37.6982C21.5902 37.1325 22.249 36.6885 23.001 36.3662C23.7601 36.0368 24.5693 35.8721 25.4287 35.8721C26.5602 35.8721 27.5951 36.1478 28.5332 36.6992C29.4714 37.2507 30.2126 37.9704 30.7568 38.8584C32.0531 36.8818 33.8327 35.8792 36.0957 35.8506C37.6354 35.8076 39.0534 36.3698 40.3496 37.5371C41.653 38.6973 42.3333 40.2191 42.3906 42.1025C42.362 43.9144 41.7676 45.3968 40.6074 46.5498C39.4473 47.6956 37.9434 48.29 36.0957 48.333C35.2578 48.333 34.4486 48.1611 33.668 47.8174C33.5176 47.7458 33.3994 47.667 33.3135 47.5811C33.2347 47.4951 33.1774 47.377 33.1416 47.2266C33.1058 47.069 33.1022 46.9222 33.1309 46.7861C33.1595 46.6501 33.224 46.5212 33.3242 46.3994C33.4316 46.2705 33.5426 46.1738 33.6572 46.1094C33.779 46.0449 33.9043 46.0127 34.0332 46.0127C34.1621 46.0055 34.2731 46.0199 34.3662 46.0557C34.5882 46.1631 34.8174 46.2454 35.0537 46.3027C35.376 46.3958 35.7233 46.4424 36.0957 46.4424H36.1816C36.776 46.4424 37.3346 46.3278 37.8574 46.0986C38.3874 45.8695 38.8457 45.5651 39.2324 45.1855C39.6263 44.7988 39.9378 44.3405 40.167 43.8105C40.4033 43.2806 40.5286 42.7113 40.543 42.1025V42.0166C40.543 41.4365 40.432 40.8851 40.21 40.3623C39.988 39.8324 39.68 39.3776 39.2861 38.998C38.8923 38.6113 38.4339 38.307 37.9111 38.085C37.3883 37.8558 36.8369 37.7412 36.2568 37.7412H36.0957C35.5013 37.7699 34.9427 37.8988 34.4199 38.1279C33.8971 38.3499 33.4388 38.6543 33.0449 39.041C32.6582 39.4277 32.3467 39.8825 32.1104 40.4053C31.8812 40.9281 31.7594 41.4938 31.7451 42.1025ZM36.2568 28.4385C36.2568 28.7178 36.3571 28.9541 36.5576 29.1475C36.751 29.3408 36.9837 29.4375 37.2559 29.4375C37.5495 29.4375 37.7894 29.3408 37.9756 29.1475C38.1618 28.9541 38.2549 28.7178 38.2549 28.4385C38.2549 28.152 38.1618 27.9157 37.9756 27.7295C37.7894 27.5361 37.5495 27.4395 37.2559 27.4395C36.9837 27.4395 36.751 27.5361 36.5576 27.7295C36.3571 27.9157 36.2568 28.152 36.2568 28.4385ZM35.666 35.0664H34.3662C34.8818 34.7728 35.376 34.4147 35.8486 33.9922C36.2354 33.6341 36.6292 33.1901 37.0303 32.6602C37.4313 32.1302 37.7321 31.4928 37.9326 30.748C37.6891 30.8197 37.4635 30.8555 37.2559 30.8555C36.9264 30.8555 36.6185 30.7946 36.332 30.6729C36.0384 30.5511 35.7842 30.3828 35.5693 30.168C35.3473 29.946 35.1755 29.6917 35.0537 29.4053C34.932 29.1117 34.8711 28.7965 34.8711 28.46C34.8711 28.1449 34.932 27.8405 35.0537 27.5469C35.1755 27.2533 35.3473 26.999 35.5693 26.7842C35.7842 26.5693 36.0384 26.401 36.332 26.2793C36.6185 26.1504 36.9264 26.0859 37.2559 26.0859C37.5781 26.0859 37.8861 26.1504 38.1797 26.2793C38.4661 26.401 38.7168 26.5693 38.9316 26.7842C39.1465 26.999 39.3184 27.2533 39.4473 27.5469C39.569 27.8405 39.6299 28.1449 39.6299 28.46C39.6299 28.7965 39.6048 29.2298 39.5547 29.7598C39.5046 30.2897 39.3649 30.8626 39.1357 31.4785C38.8994 32.0872 38.5449 32.7067 38.0723 33.3369C37.5996 33.9671 36.9479 34.5436 36.1172 35.0664H35.666ZM44.0557 38.8584C44.0557 38.5218 44.1165 38.2103 44.2383 37.9238C44.3672 37.6302 44.5391 37.376 44.7539 37.1611C44.9688 36.9391 45.2194 36.7673 45.5059 36.6455C45.7995 36.5238 46.1146 36.4629 46.4512 36.4629C46.7806 36.4629 47.0885 36.5238 47.375 36.6455C47.6686 36.7673 47.9264 36.9391 48.1484 37.1611C48.3704 37.376 48.5423 37.6302 48.6641 37.9238C48.7858 38.2103 48.8467 38.5218 48.8467 38.8584C48.8467 39.1878 48.7858 39.4993 48.6641 39.793C48.5423 40.0794 48.3704 40.3337 48.1484 40.5557C47.9264 40.7705 47.6686 40.9388 47.375 41.0605C47.0885 41.1823 46.7806 41.2432 46.4512 41.2432C46.1146 41.2432 45.7995 41.1823 45.5059 41.0605C45.2194 40.9388 44.9688 40.7705 44.7539 40.5557C44.5391 40.3337 44.3672 40.0794 44.2383 39.793C44.1165 39.4993 44.0557 39.1878 44.0557 38.8584ZM44.0557 45.6475C44.0557 45.318 44.1165 45.0101 44.2383 44.7236C44.3672 44.43 44.5391 44.1722 44.7539 43.9502C44.9688 43.7282 45.2194 43.5563 45.5059 43.4346C45.7995 43.3128 46.1146 43.252 46.4512 43.252C46.7806 43.252 47.0885 43.3128 47.375 43.4346C47.6686 43.5563 47.9264 43.7282 48.1484 43.9502C48.3704 44.1722 48.5423 44.43 48.6641 44.7236C48.7858 45.0101 48.8467 45.318 48.8467 45.6475C48.8467 45.984 48.7858 46.2992 48.6641 46.5928C48.5423 46.8792 48.3704 47.1299 48.1484 47.3447C47.9264 47.5596 47.6686 47.7314 47.375 47.8604C47.0885 47.9821 46.7806 48.043 46.4512 48.043C46.1146 48.043 45.7995 47.9821 45.5059 47.8604C45.2194 47.7314 44.9688 47.5596 44.7539 47.3447C44.5391 47.1299 44.3672 46.8792 44.2383 46.5928C44.1165 46.2992 44.0557 45.984 44.0557 45.6475ZM45.3877 45.6475C45.3877 45.9554 45.4915 46.2132 45.6992 46.4209C45.9069 46.6286 46.1647 46.7324 46.4727 46.7324C46.7591 46.7324 47.0098 46.6286 47.2246 46.4209C47.4395 46.2132 47.5469 45.9554 47.5469 45.6475C47.5469 45.361 47.4395 45.1104 47.2246 44.8955C47.0098 44.6807 46.7591 44.5732 46.4727 44.5732C46.1647 44.5732 45.9069 44.6807 45.6992 44.8955C45.4915 45.1104 45.3877 45.361 45.3877 45.6475ZM45.3662 38.8799C45.3662 39.1807 45.4665 39.4385 45.667 39.6533C45.8675 39.861 46.1217 39.9648 46.4297 39.9648C46.7305 39.9648 46.9847 39.861 47.1924 39.6533C47.4001 39.4385 47.5039 39.1807 47.5039 38.8799C47.5039 38.5863 47.4001 38.3356 47.1924 38.1279C46.9847 37.9202 46.7305 37.8164 46.4297 37.8164C46.1217 37.8164 45.8675 37.9202 45.667 38.1279C45.4665 38.3356 45.3662 38.5863 45.3662 38.8799Z" fill="#666666"/>
<path d="M25.4287 37.7412L25.432 37.4612L25.4255 37.4612L25.4287 37.7412ZM21.0889 42.1025L20.8086 42.0992L20.809 42.1121L21.0889 42.1025ZM22.3564 45.1748L22.1602 45.3746L22.1612 45.3755L22.3564 45.1748ZM25.4287 46.4639L25.411 46.7433L25.4255 46.7442L25.44 46.7436L25.4287 46.4639ZM28.501 45.1963L28.6981 45.3952L28.6981 45.3952L28.501 45.1963ZM29.7793 42.1025L30.0591 42.1121L30.0594 42.1042L30.0592 42.0962L29.7793 42.1025ZM28.4902 38.9766L28.294 39.1763L28.2949 39.1771L28.4902 38.9766ZM31.7451 42.1025L31.4652 42.096L31.4652 42.0979L31.7451 42.1025ZM31.208 44.5303L31.4627 44.6467L31.4631 44.6458L31.208 44.5303ZM29.8438 46.5068L29.6458 46.3088L29.6445 46.3101L29.8438 46.5068ZM27.8564 47.8496L27.9659 48.1073L27.967 48.1068L27.8564 47.8496ZM23.001 47.8496L22.8886 48.1061L22.8916 48.1073L23.001 47.8496ZM19.6816 44.5303L19.4239 44.6397L19.4252 44.6426L19.6816 44.5303ZM19.6816 39.6855L19.4248 39.5741L19.4243 39.5752L19.6816 39.6855ZM23.001 36.3662L23.1113 36.6236L23.1124 36.6231L23.001 36.3662ZM28.5332 36.6992L28.6751 36.4578L28.5332 36.6992ZM30.7568 38.8584L30.5181 39.0047L30.7488 39.3812L30.991 39.0119L30.7568 38.8584ZM36.0957 35.8506L36.0992 36.1306L36.1035 36.1305L36.0957 35.8506ZM40.3496 37.5371L40.1622 37.7452L40.1634 37.7463L40.3496 37.5371ZM42.3906 42.1025L42.6709 42.107L42.6705 42.094L42.3906 42.1025ZM40.6074 46.5498L40.8042 46.749L40.8048 46.7484L40.6074 46.5498ZM36.0957 48.333V48.6131L36.1022 48.6129L36.0957 48.333ZM33.668 47.8174L33.5475 48.0703L33.5551 48.0736L33.668 47.8174ZM33.3135 47.5811L33.1069 47.7704L33.1155 47.779L33.3135 47.5811ZM33.1416 47.2266L32.8686 47.2886L32.8692 47.2914L33.1416 47.2266ZM33.3242 46.3994L33.1091 46.2202L33.1081 46.2214L33.3242 46.3994ZM33.6572 46.1094L33.5262 45.8618L33.52 45.8653L33.6572 46.1094ZM34.0332 46.0127V46.2927H34.041L34.0487 46.2923L34.0332 46.0127ZM34.3662 46.0557L34.4882 45.8036L34.4776 45.7985L34.4667 45.7943L34.3662 46.0557ZM35.0537 46.3027L35.1315 46.0335L35.1197 46.0306L35.0537 46.3027ZM37.8574 46.0986L37.7463 45.8416L37.745 45.8422L37.8574 46.0986ZM39.2324 45.1855L39.4286 45.3854L39.4286 45.3853L39.2324 45.1855ZM40.167 43.8105L39.9113 43.6965L39.91 43.6994L40.167 43.8105ZM40.543 42.1025L40.823 42.1091V42.1025H40.543ZM40.21 40.3623L39.9517 40.4705L39.9522 40.4717L40.21 40.3623ZM39.2861 38.998L39.09 39.1979L39.0918 39.1997L39.2861 38.998ZM37.9111 38.085L37.7987 38.3414L37.8017 38.3427L37.9111 38.085ZM36.0957 37.7412V37.4609L36.0822 37.4615L36.0957 37.7412ZM34.4199 38.1279L34.5294 38.3857L34.5323 38.3844L34.4199 38.1279ZM33.0449 39.041L32.8487 38.8412L32.8469 38.843L33.0449 39.041ZM32.1104 40.4053L31.8552 40.2899L31.8539 40.2929L32.1104 40.4053ZM25.4255 37.4612C24.1104 37.4763 23.0064 37.9292 22.1344 38.8241L22.5355 39.2149C23.2963 38.4341 24.2549 38.0347 25.4319 38.0212L25.4255 37.4612ZM22.1344 38.8241C21.2656 39.7158 20.824 40.8132 20.8089 42.0992L21.3688 42.1058C21.3824 40.957 21.7715 39.9991 22.5355 39.2149L22.1344 38.8241ZM20.809 42.1121C20.8541 43.4348 21.3005 44.5302 22.1602 45.3746L22.5526 44.975C21.8082 44.2439 21.4095 43.2911 21.3687 42.093L20.809 42.1121ZM22.1612 45.3755C23.0168 46.2081 24.1065 46.6608 25.411 46.7433L25.4464 46.1844C24.2587 46.1093 23.3003 45.7027 22.5517 44.9741L22.1612 45.3755ZM25.44 46.7436C26.748 46.691 27.841 46.2446 28.6981 45.3952L28.3039 44.9974C27.5568 45.7378 26.6016 46.1365 25.4175 46.1841L25.44 46.7436ZM28.6981 45.3952C29.5636 44.5373 30.014 43.4356 30.0591 42.1121L29.4995 42.093C29.4586 43.2904 29.0568 44.2511 28.3039 44.9974L28.6981 45.3952ZM30.0592 42.0962C30.0291 40.7562 29.5743 39.6417 28.6856 38.776L28.2949 39.1771C29.0676 39.9299 29.4722 40.8994 29.4994 42.1088L30.0592 42.0962ZM28.6865 38.7768C27.8083 37.914 26.7174 37.4764 25.432 37.4612L25.4254 38.0212C26.5749 38.0347 27.525 38.4207 28.294 39.1763L28.6865 38.7768ZM31.4652 42.0979C31.4515 42.9202 31.2804 43.6916 30.9529 44.4148L31.4631 44.6458C31.8231 43.8507 32.0101 43.0036 32.0251 42.1072L31.4652 42.0979ZM30.9534 44.4139C30.623 45.1365 30.1871 45.7675 29.6458 46.3088L30.0417 46.7048C30.6319 46.1147 31.1055 45.428 31.4627 44.6467L30.9534 44.4139ZM29.6445 46.3101C29.1125 46.8489 28.4806 47.2765 27.7459 47.5924L27.967 48.1068C28.7648 47.7639 29.4578 47.2963 30.043 46.7036L29.6445 46.3101ZM27.747 47.5919C27.024 47.8988 26.2521 48.053 25.4287 48.053V48.613C26.3241 48.613 27.1707 48.4449 27.9659 48.1073L27.747 47.5919ZM25.4287 48.053C24.6053 48.053 23.8334 47.8988 23.1104 47.5919L22.8916 48.1073C23.6867 48.4449 24.5334 48.613 25.4287 48.613V48.053ZM23.1133 47.5931C22.3925 47.2773 21.7629 46.8493 21.2224 46.3088L20.8264 46.7048C21.4175 47.2959 22.1056 47.763 22.8886 48.1061L23.1133 47.5931ZM21.2224 46.3088C20.6819 45.7684 20.2539 45.1388 19.9381 44.4179L19.4252 44.6426C19.7682 45.4257 20.2354 46.1138 20.8264 46.7048L21.2224 46.3088ZM19.9394 44.4209C19.6324 43.6978 19.4782 42.9259 19.4782 42.1025H18.9182C18.9182 42.9979 19.0863 43.8445 19.4239 44.6397L19.9394 44.4209ZM19.4782 42.1025C19.4782 41.2791 19.6324 40.5112 19.939 39.7958L19.4243 39.5752C19.0863 40.3638 18.9182 41.2072 18.9182 42.1025H19.4782ZM19.9385 39.797C20.2544 39.0691 20.6824 38.4362 21.2224 37.8962L20.8264 37.5003C20.2349 38.0917 19.7677 38.7838 19.4248 39.5741L19.9385 39.797ZM21.2224 37.8962C21.7624 37.3562 22.3913 36.9321 23.1113 36.6236L22.8907 36.1089C22.1067 36.4448 21.4179 36.9087 20.8264 37.5003L21.2224 37.8962ZM23.1124 36.6231C23.835 36.3095 24.6062 36.1521 25.4287 36.1521V35.5921C24.5325 35.5921 23.6852 35.7641 22.8895 36.1094L23.1124 36.6231ZM25.4287 36.1521C26.5124 36.1521 27.4979 36.4155 28.3913 36.9406L28.6751 36.4578C27.6922 35.8801 26.608 35.5921 25.4287 35.5921V36.1521ZM28.3913 36.9406C29.2917 37.4698 29.9989 38.1576 30.5181 39.0047L30.9956 38.7121C30.4262 37.7831 29.651 37.0315 28.6751 36.4578L28.3913 36.9406ZM30.991 39.0119C32.2388 37.1091 33.9342 36.158 36.0992 36.1306L36.0922 35.5706C33.7312 35.6005 31.8673 36.6546 30.5227 38.7048L30.991 39.0119ZM36.1035 36.1305C37.5617 36.0898 38.9118 36.6191 40.1622 37.7452L40.537 37.329C39.195 36.1205 37.7092 35.5255 36.0879 35.5707L36.1035 36.1305ZM40.1634 37.7463C41.4044 38.8509 42.0556 40.2977 42.1108 42.1111L42.6705 42.094C42.6111 40.1405 41.9016 38.5437 40.5358 37.328L40.1634 37.7463ZM42.1107 42.0981C42.083 43.8455 41.5126 45.2554 40.41 46.3512L40.8048 46.7484C42.0225 45.5382 42.6409 43.9832 42.6706 42.107L42.1107 42.0981ZM40.4107 46.3506C39.3082 47.4395 37.8757 48.0115 36.0892 48.0531L36.1022 48.6129C38.011 48.5685 39.5863 47.9518 40.8042 46.749L40.4107 46.3506ZM36.0957 48.053C35.2974 48.053 34.5265 47.8895 33.7808 47.5611L33.5551 48.0736C34.3706 48.4328 35.2182 48.613 36.0957 48.613V48.053ZM33.7884 47.5646C33.6568 47.502 33.5682 47.4398 33.5115 47.3831L33.1155 47.779C33.2306 47.8942 33.3783 47.9896 33.5476 48.0702L33.7884 47.5646ZM33.5199 47.3919C33.4821 47.3507 33.4422 47.2803 33.414 47.1617L32.8692 47.2914C32.9126 47.4736 32.9873 47.6395 33.1071 47.7703L33.5199 47.3919ZM33.4146 47.1645C33.3863 47.04 33.3858 46.9345 33.4049 46.8438L32.8569 46.7284C32.8187 46.9099 32.8252 47.098 32.8686 47.2886L33.4146 47.1645ZM33.4049 46.8438C33.423 46.7576 33.4649 46.669 33.5404 46.5774L33.1081 46.2214C32.983 46.3733 32.896 46.5426 32.8569 46.7284L33.4049 46.8438ZM33.5393 46.5787C33.6307 46.469 33.7165 46.3973 33.7945 46.3534L33.52 45.8653C33.3688 45.9504 33.2326 46.072 33.1091 46.2202L33.5393 46.5787ZM33.7882 46.3568C33.8725 46.3122 33.9531 46.2927 34.0332 46.2927V45.7327C33.8555 45.7327 33.6855 45.7776 33.5262 45.8619L33.7882 46.3568ZM34.0487 46.2923C34.1493 46.2867 34.2187 46.2989 34.2657 46.317L34.4667 45.7943C34.3275 45.7408 34.175 45.7244 34.0177 45.7331L34.0487 46.2923ZM34.2443 46.3077C34.4839 46.4237 34.7318 46.5128 34.9877 46.5749L35.1197 46.0306C34.9029 45.9781 34.6925 45.9025 34.4882 45.8036L34.2443 46.3077ZM34.976 46.5717C35.3261 46.6729 35.6999 46.7224 36.0957 46.7224V46.1624C35.7467 46.1624 35.4258 46.1188 35.1314 46.0337L34.976 46.5717ZM36.0957 46.7224H36.1816V46.1624H36.0957V46.7224ZM36.1816 46.7224C36.8131 46.7224 37.4101 46.6004 37.9698 46.3551L37.745 45.8422C37.2591 46.0552 36.739 46.1624 36.1816 46.1624V46.7224ZM37.9686 46.3556C38.528 46.1137 39.0157 45.7906 39.4286 45.3854L39.0363 44.9857C38.6757 45.3396 38.2467 45.6252 37.7463 45.8416L37.9686 46.3556ZM39.4286 45.3853C39.8495 44.9721 40.1811 44.4833 40.424 43.9217L39.91 43.6994C39.6945 44.1977 39.4031 44.6255 39.0363 44.9857L39.4286 45.3853ZM40.4227 43.9246C40.6749 43.3591 40.8077 42.7531 40.8229 42.1091L40.263 42.096C40.2496 42.6695 40.1318 43.2021 39.9113 43.6965L40.4227 43.9246ZM40.823 42.1025V42.0166H40.263V42.1025H40.823ZM40.823 42.0166C40.823 41.3997 40.7047 40.811 40.4677 40.2529L39.9522 40.4717C40.1592 40.9592 40.263 41.4733 40.263 42.0166H40.823ZM40.4682 40.2541C40.2322 39.6908 39.9031 39.2038 39.4804 38.7964L39.0918 39.1997C39.4569 39.5514 39.7437 39.9739 39.9517 40.4705L40.4682 40.2541ZM39.4823 38.7982C39.0627 38.3862 38.5747 38.0625 38.0206 37.8272L37.8017 38.3427C38.2931 38.5514 38.7218 38.8364 39.09 39.1978L39.4823 38.7982ZM38.0235 37.8285C37.4647 37.5836 36.875 37.4612 36.2568 37.4612V38.0212C36.7989 38.0212 37.312 38.128 37.7987 38.3414L38.0235 37.8285ZM36.2568 37.4612H36.0957V38.0212H36.2568V37.4612ZM36.0822 37.4615C35.4552 37.4918 34.8629 37.628 34.3075 37.8715L34.5323 38.3844C35.0225 38.1695 35.5474 38.048 36.1092 38.0209L36.0822 37.4615ZM34.3105 37.8702C33.7564 38.1055 33.2684 38.4292 32.8488 38.8412L33.2411 39.2408C33.6092 38.8794 34.0379 38.5944 34.5294 38.3857L34.3105 37.8702ZM32.8469 38.843C32.4352 39.2548 32.1048 39.7379 31.8552 40.2899L32.3655 40.5206C32.5886 40.0271 32.8812 39.6007 33.2429 39.239L32.8469 38.843ZM31.8539 40.2929C31.6091 40.8512 31.4803 41.4532 31.4652 42.096L32.025 42.1091C32.0386 41.5344 32.1532 41.0049 32.3668 40.5177L31.8539 40.2929ZM36.5576 29.1475L36.7556 28.9494L36.752 28.9459L36.5576 29.1475ZM37.9756 27.7295L37.7739 27.9237L37.7776 27.9275L37.9756 27.7295ZM36.5576 27.7295L36.7483 27.9348L36.7556 27.9275L36.5576 27.7295ZM34.3662 35.0664L34.2277 34.8231L33.3087 35.3464H34.3662V35.0664ZM35.8486 33.9922L36.0353 34.201L36.0389 34.1976L35.8486 33.9922ZM37.9326 30.748L38.203 30.8208L38.3329 30.3385L37.8536 30.4794L37.9326 30.748ZM36.332 30.6729L36.4416 30.4151L36.4393 30.4142L36.332 30.6729ZM35.5693 30.168L35.3713 30.366L35.5693 30.168ZM35.0537 29.4053L34.7951 29.5125L34.796 29.5148L35.0537 29.4053ZM35.5693 26.7842L35.7641 26.9854L35.7673 26.9822L35.5693 26.7842ZM36.332 26.2793L36.4393 26.5381L36.4469 26.5346L36.332 26.2793ZM38.1797 26.2793L38.0671 26.5357L38.0702 26.537L38.1797 26.2793ZM39.4473 27.5469L39.706 27.4396L39.7036 27.4343L39.4473 27.5469ZM39.1357 31.4785L39.3968 31.5799L39.3982 31.5762L39.1357 31.4785ZM36.1172 35.0664V35.3464H36.198L36.2663 35.3034L36.1172 35.0664ZM35.9768 28.4385C35.9768 28.7936 36.1078 29.1027 36.3633 29.349L36.752 28.9459C36.6063 28.8055 36.5368 28.642 36.5368 28.4385H35.9768ZM36.3596 29.3455C36.6052 29.591 36.9091 29.7175 37.2559 29.7175V29.1575C37.0584 29.1575 36.8967 29.0906 36.7556 28.9495L36.3596 29.3455ZM37.2559 29.7175C37.6177 29.7175 37.9331 29.5953 38.1773 29.3417L37.7739 28.9532C37.6457 29.0863 37.4813 29.1575 37.2559 29.1575V29.7175ZM38.1773 29.3417C38.4159 29.0939 38.5349 28.787 38.5349 28.4385H37.9749C37.9749 28.6486 37.9076 28.8144 37.7739 28.9532L38.1773 29.3417ZM38.5349 28.4385C38.5349 28.0849 38.4172 27.7751 38.1736 27.5315L37.7776 27.9275C37.9064 28.0563 37.9749 28.2191 37.9749 28.4385H38.5349ZM38.1773 27.5353C37.9331 27.2817 37.6177 27.1595 37.2559 27.1595V27.7195C37.4813 27.7195 37.6457 27.7906 37.7739 27.9237L38.1773 27.5353ZM37.2559 27.1595C36.9091 27.1595 36.6052 27.2859 36.3596 27.5315L36.7556 27.9275C36.8967 27.7863 37.0584 27.7195 37.2559 27.7195V27.1595ZM36.3671 27.5243C36.1066 27.7662 35.9768 28.0783 35.9768 28.4385H36.5368C36.5368 28.2258 36.6076 28.0652 36.7481 27.9347L36.3671 27.5243ZM35.666 34.7864H34.3662V35.3464H35.666V34.7864ZM34.5048 35.3097C35.0387 35.0057 35.5488 34.6358 36.0352 34.2009L35.662 33.7834C35.2031 34.1937 34.725 34.5399 34.2277 34.8231L34.5048 35.3097ZM36.0389 34.1976C36.4403 33.826 36.845 33.369 37.2535 32.8291L36.807 32.4912C36.4134 33.0113 36.0304 33.4423 35.6584 33.7867L36.0389 34.1976ZM37.2535 32.8291C37.6795 32.2662 37.9946 31.5949 38.203 30.8208L37.6622 30.6753C37.4696 31.3908 37.1831 31.9942 36.807 32.4912L37.2535 32.8291ZM37.8536 30.4794C37.6303 30.5451 37.4316 30.5755 37.2559 30.5755V31.1355C37.4954 31.1355 37.7479 31.0942 38.0116 31.0167L37.8536 30.4794ZM37.2559 30.5755C36.9618 30.5755 36.6914 30.5213 36.4416 30.4152L36.2225 30.9305C36.5456 31.0679 36.891 31.1355 37.2559 31.1355V30.5755ZM36.4393 30.4142C36.178 30.3059 35.955 30.1577 35.7673 29.97L35.3713 30.366C35.6134 30.608 35.8988 30.7963 36.2248 30.9315L36.4393 30.4142ZM35.7673 29.97C35.5705 29.7731 35.419 29.5489 35.3114 29.2958L34.796 29.5148C34.9319 29.8346 35.1242 30.1188 35.3713 30.366L35.7673 29.97ZM35.3124 29.298C35.2055 29.0404 35.1511 28.7619 35.1511 28.46H34.5911C34.5911 28.8312 34.6584 29.1829 34.7951 29.5125L35.3124 29.298ZM35.1511 28.46C35.1511 28.182 35.2046 27.914 35.3124 27.6541L34.7951 27.4396C34.6593 27.7669 34.5911 28.1077 34.5911 28.46H35.1511ZM35.3124 27.6541C35.4199 27.3948 35.5704 27.1728 35.7641 26.9854L35.3746 26.583C35.1243 26.8252 34.931 27.1117 34.7951 27.4396L35.3124 27.6541ZM35.7673 26.9822C35.955 26.7945 36.178 26.6463 36.4393 26.5379L36.2248 26.0206C35.8988 26.1558 35.6134 26.3442 35.3713 26.5862L35.7673 26.9822ZM36.4469 26.5346C36.6955 26.4228 36.9641 26.3659 37.2559 26.3659V25.8059C36.8888 25.8059 36.5415 25.878 36.2171 26.024L36.4469 26.5346ZM37.2559 26.3659C37.5396 26.3659 37.8092 26.4224 38.0671 26.5357L38.2922 26.0229C37.963 25.8784 37.6167 25.8059 37.2559 25.8059V26.3659ZM38.0702 26.537C38.3244 26.645 38.5448 26.7933 38.7337 26.9822L39.1296 26.5862C38.8888 26.3453 38.6079 26.157 38.2892 26.0216L38.0702 26.537ZM38.7337 26.9822C38.9225 27.1711 39.0752 27.3959 39.1909 27.6594L39.7036 27.4343C39.5615 27.1106 39.3704 26.827 39.1296 26.5862L38.7337 26.9822ZM39.1886 27.6541C39.2964 27.914 39.3499 28.182 39.3499 28.46H39.9099C39.9099 28.1077 39.8416 27.7669 39.7059 27.4396L39.1886 27.6541ZM39.3499 28.46C39.3499 28.7842 39.3256 29.2078 39.2759 29.7334L39.8334 29.7861C39.884 29.2518 39.9099 28.8089 39.9099 28.46H39.3499ZM39.2759 29.7334C39.2286 30.2341 39.0959 30.7828 38.8733 31.3809L39.3982 31.5762C39.634 30.9425 39.7805 30.3454 39.8334 29.7861L39.2759 29.7334ZM38.8747 31.3772C38.6493 31.9578 38.3086 32.5551 37.8483 33.1689L38.2963 33.5049C38.7812 32.8583 39.1495 32.2167 39.3968 31.5799L38.8747 31.3772ZM37.8483 33.1689C37.4005 33.7659 36.7767 34.3205 35.9681 34.8294L36.2663 35.3034C37.1192 34.7667 37.7987 34.1683 38.2963 33.5049L37.8483 33.1689ZM36.1172 34.7864H35.666V35.3464H36.1172V34.7864ZM44.2383 37.9238L43.9819 37.8113L43.9806 37.8143L44.2383 37.9238ZM44.7539 37.1611L44.9519 37.3591L44.9551 37.3559L44.7539 37.1611ZM45.5059 36.6455L45.3986 36.3868L45.3963 36.3878L45.5059 36.6455ZM47.375 36.6455L47.2655 36.9032L47.2678 36.9042L47.375 36.6455ZM48.1484 37.1611L47.9504 37.3591L47.9537 37.3623L48.1484 37.1611ZM48.6641 37.9238L48.4054 38.0311L48.4064 38.0333L48.6641 37.9238ZM48.6641 39.793L48.9218 39.9025L48.9227 39.9002L48.6641 39.793ZM48.1484 40.5557L48.3432 40.7569L48.3464 40.7537L48.1484 40.5557ZM47.375 41.0605L47.2678 40.8019L47.2655 40.8029L47.375 41.0605ZM45.5059 41.0605L45.3963 41.3182L45.3986 41.3192L45.5059 41.0605ZM44.7539 40.5557L44.5527 40.7504L44.5559 40.7537L44.7539 40.5557ZM44.2383 39.793L43.9795 39.9003L43.9829 39.9079L44.2383 39.793ZM44.2383 44.7236L43.9819 44.6111L43.9806 44.6141L44.2383 44.7236ZM44.7539 43.9502L44.9551 44.1449L44.7539 43.9502ZM45.5059 43.4346L45.3986 43.1759L45.3963 43.1769L45.5059 43.4346ZM47.375 43.4346L47.2655 43.6923L47.2678 43.6932L47.375 43.4346ZM48.1484 43.9502L47.9504 44.1482L48.1484 43.9502ZM48.6641 44.7236L48.4054 44.8309L48.4064 44.8332L48.6641 44.7236ZM48.6641 46.5928L48.9218 46.7023L48.9227 46.7L48.6641 46.5928ZM48.1484 47.3447L47.9537 47.1435L48.1484 47.3447ZM47.375 47.8604L47.4845 48.1181L47.4876 48.1167L47.375 47.8604ZM45.5059 47.8604L45.3909 48.1158L45.3986 48.119L45.5059 47.8604ZM44.2383 46.5928L43.9795 46.7001L43.9829 46.7077L44.2383 46.5928ZM45.6992 46.4209L45.5012 46.6189L45.6992 46.4209ZM45.667 39.6533L45.4623 39.8444L45.4656 39.8478L45.667 39.6533ZM47.1924 39.6533L47.3904 39.8513L47.3937 39.8479L47.1924 39.6533ZM44.3357 38.8584C44.3357 38.5564 44.3901 38.2824 44.496 38.0333L43.9806 37.8143C43.843 38.1381 43.7757 38.4873 43.7757 38.8584H44.3357ZM44.4947 38.0364C44.6104 37.7728 44.763 37.548 44.9519 37.3591L44.5559 36.9631C44.3151 37.2039 44.124 37.4876 43.9819 37.8113L44.4947 38.0364ZM44.9551 37.3559C45.1437 37.161 45.3631 37.0104 45.6154 36.9032L45.3963 36.3878C45.0757 36.5241 44.7938 36.7173 44.5527 36.9664L44.9551 37.3559ZM45.6131 36.9042C45.8708 36.7973 46.1492 36.7429 46.4512 36.7429V36.1829C46.08 36.1829 45.7282 36.2502 45.3986 36.3869L45.6131 36.9042ZM46.4512 36.7429C46.7452 36.7429 47.0157 36.797 47.2655 36.9032L47.4845 36.3878C47.1614 36.2505 46.816 36.1829 46.4512 36.1829V36.7429ZM47.2678 36.9042C47.5279 37.012 47.7547 37.1634 47.9504 37.3591L48.3464 36.9631C48.0981 36.7148 47.8094 36.5225 47.4822 36.3869L47.2678 36.9042ZM47.9537 37.3623C48.1474 37.5498 48.2979 37.7718 48.4054 38.0311L48.9227 37.8166C48.7867 37.4886 48.5935 37.2022 48.3432 36.9599L47.9537 37.3623ZM48.4064 38.0333C48.5122 38.2824 48.5667 38.5564 48.5667 38.8584H49.1267C49.1267 38.4873 49.0594 38.1381 48.9218 37.8143L48.4064 38.0333ZM48.5667 38.8584C48.5667 39.1524 48.5125 39.4273 48.4054 39.6857L48.9227 39.9002C49.0591 39.5714 49.1267 39.2233 49.1267 38.8584H48.5667ZM48.4064 39.6834C48.2988 39.9366 48.1473 40.1608 47.9504 40.3577L48.3464 40.7537C48.5936 40.5065 48.7858 40.2223 48.9218 39.9025L48.4064 39.6834ZM47.9537 40.3545C47.7577 40.5441 47.5298 40.6932 47.2678 40.8019L47.4822 41.3192C47.8074 41.1844 48.0951 40.9969 48.3432 40.7569L47.9537 40.3545ZM47.2655 40.8029C47.0157 40.909 46.7452 40.9632 46.4512 40.9632V41.5232C46.816 41.5232 47.1614 41.4556 47.4845 41.3182L47.2655 40.8029ZM46.4512 40.9632C46.1492 40.9632 45.8708 40.9087 45.6131 40.8019L45.3986 41.3192C45.7282 41.4559 46.08 41.5232 46.4512 41.5232V40.9632ZM45.6154 40.8029C45.3611 40.6948 45.1407 40.5465 44.9519 40.3577L44.5559 40.7537C44.7968 40.9945 45.0777 41.1828 45.3963 41.3182L45.6154 40.8029ZM44.9551 40.3609C44.7632 40.1626 44.6095 39.9355 44.4936 39.6781L43.9829 39.9079C44.1249 40.2234 44.3149 40.5047 44.5527 40.7504L44.9551 40.3609ZM44.4969 39.6857C44.3898 39.4273 44.3357 39.1524 44.3357 38.8584H43.7757C43.7757 39.2233 43.8433 39.5714 43.9796 39.9002L44.4969 39.6857ZM44.3357 45.6475C44.3357 45.3534 44.3898 45.083 44.496 44.8332L43.9806 44.6141C43.8433 44.9372 43.7757 45.2826 43.7757 45.6475H44.3357ZM44.4947 44.8362C44.6107 44.5718 44.7643 44.3421 44.9551 44.1449L44.5527 43.7555C44.3139 44.0023 44.1237 44.2882 43.9819 44.6111L44.4947 44.8362ZM44.9551 44.1449C45.1437 43.95 45.3631 43.7995 45.6154 43.6923L45.3963 43.1769C45.0757 43.3132 44.7938 43.5064 44.5527 43.7555L44.9551 44.1449ZM45.6131 43.6932C45.8708 43.5864 46.1492 43.532 46.4512 43.532V42.972C46.08 42.972 45.7282 43.0393 45.3986 43.1759L45.6131 43.6932ZM46.4512 43.532C46.7452 43.532 47.0157 43.5861 47.2655 43.6923L47.4845 43.1769C47.1614 43.0396 46.816 42.972 46.4512 42.972V43.532ZM47.2678 43.6932C47.5279 43.8011 47.7547 43.9525 47.9504 44.1482L48.3464 43.7522C48.0981 43.5039 47.8094 43.3116 47.4822 43.1759L47.2678 43.6932ZM47.9504 44.1482C48.1461 44.3439 48.2976 44.5708 48.4054 44.8309L48.9227 44.6164C48.7871 44.2893 48.5947 44.0005 48.3464 43.7522L47.9504 44.1482ZM48.4064 44.8332C48.5125 45.083 48.5667 45.3534 48.5667 45.6475H49.1267C49.1267 45.2826 49.0591 44.9372 48.9218 44.6141L48.4064 44.8332ZM48.5667 45.6475C48.5667 45.9494 48.5122 46.2279 48.4054 46.4855L48.9227 46.7C49.0594 46.3704 49.1267 46.0187 49.1267 45.6475H48.5667ZM48.4064 46.4833C48.2992 46.7355 48.1486 46.9549 47.9537 47.1435L48.3432 47.5459C48.5923 47.3048 48.7855 47.023 48.9218 46.7023L48.4064 46.4833ZM47.9537 47.1435C47.7565 47.3344 47.5268 47.4879 47.2624 47.604L47.4876 48.1167C47.8104 47.975 48.0964 47.7848 48.3432 47.5459L47.9537 47.1435ZM47.2655 47.6027C47.0157 47.7088 46.7452 47.763 46.4512 47.763V48.323C46.816 48.323 47.1614 48.2554 47.4845 48.118L47.2655 47.6027ZM46.4512 47.763C46.1492 47.763 45.8708 47.7085 45.6131 47.6017L45.3986 48.119C45.7282 48.2557 46.08 48.323 46.4512 48.323V47.763ZM45.6208 47.605C45.3642 47.4896 45.1419 47.3368 44.9519 47.1467L44.5559 47.5427C44.7956 47.7824 45.0746 47.9733 45.391 48.1157L45.6208 47.605ZM44.9519 47.1467C44.7619 46.9567 44.6091 46.7345 44.4936 46.4779L43.9829 46.7077C44.1253 47.024 44.3163 47.3031 44.5559 47.5427L44.9519 47.1467ZM44.4969 46.4855C44.3901 46.2279 44.3357 45.9494 44.3357 45.6475H43.7757C43.7757 46.0187 43.843 46.3704 43.9796 46.7L44.4969 46.4855ZM45.1077 45.6475C45.1077 46.0257 45.2383 46.3559 45.5012 46.6189L45.8972 46.2229C45.7448 46.0705 45.6677 45.8851 45.6677 45.6475H45.1077ZM45.5012 46.6189C45.7642 46.8818 46.0945 47.0124 46.4727 47.0124V46.4524C46.235 46.4524 46.0496 46.3753 45.8972 46.2229L45.5012 46.6189ZM46.4727 47.0124C46.8351 47.0124 47.1547 46.878 47.4192 46.6222L47.03 46.2196C46.8649 46.3792 46.6831 46.4524 46.4727 46.4524V47.0124ZM47.4192 46.6222C47.6905 46.36 47.8269 46.0287 47.8269 45.6475H47.2669C47.2669 45.8821 47.1884 46.0664 47.03 46.2196L47.4192 46.6222ZM47.8269 45.6475C47.8269 45.2819 47.6864 44.9613 47.4226 44.6975L47.0266 45.0935C47.1925 45.2594 47.2669 45.4401 47.2669 45.6475H47.8269ZM47.4226 44.6975C47.1588 44.4337 46.8382 44.2932 46.4727 44.2932V44.8532C46.68 44.8532 46.8608 44.9276 47.0266 45.0935L47.4226 44.6975ZM46.4727 44.2932C46.0914 44.2932 45.7601 44.4296 45.4979 44.7009L45.9005 45.0901C46.0537 44.9317 46.238 44.8532 46.4727 44.8532V44.2932ZM45.4979 44.7009C45.2422 44.9655 45.1077 45.285 45.1077 45.6475H45.6677C45.6677 45.437 45.7409 45.2552 45.9005 45.0901L45.4979 44.7009ZM45.0862 38.8799C45.0862 39.2497 45.2121 39.5763 45.4623 39.8444L45.8717 39.4623C45.7208 39.3006 45.6462 39.1116 45.6462 38.8799H45.0862ZM45.4656 39.8478C45.7226 40.1141 46.0514 40.2448 46.4297 40.2448V39.6848C46.1921 39.6848 46.0124 39.6079 45.8684 39.4588L45.4656 39.8478ZM46.4297 40.2448C46.8027 40.2448 47.1288 40.1129 47.3904 39.8513L46.9944 39.4553C46.8406 39.6091 46.6582 39.6848 46.4297 39.6848V40.2448ZM47.3937 39.8479C47.6522 39.5805 47.7839 39.2527 47.7839 38.8799H47.2239C47.2239 39.1086 47.1479 39.2965 46.9911 39.4587L47.3937 39.8479ZM47.7839 38.8799C47.7839 38.512 47.6505 38.1901 47.3904 37.9299L46.9944 38.3259C47.1496 38.4811 47.2239 38.6605 47.2239 38.8799H47.7839ZM47.3904 37.9299C47.1288 37.6683 46.8027 37.5364 46.4297 37.5364V38.0964C46.6582 38.0964 46.8406 38.1721 46.9944 38.3259L47.3904 37.9299ZM46.4297 37.5364C46.0514 37.5364 45.7226 37.6672 45.4656 37.9334L45.8684 38.3224C46.0124 38.1733 46.1921 38.0964 46.4297 38.0964V37.5364ZM45.4656 37.9334C45.2137 38.1943 45.0862 38.5151 45.0862 38.8799H45.6462C45.6462 38.6574 45.7193 38.4769 45.8684 38.3224L45.4656 37.9334Z" fill="#666666"/>
<path d="M8.42871 14.7412C7.18262 14.7555 6.15137 15.1816 5.33496 16.0195C4.51855 16.8574 4.10319 17.8851 4.08887 19.1025C4.13184 20.363 4.55436 21.387 5.35645 22.1748C6.15853 22.9554 7.18262 23.3851 8.42871 23.4639C9.6748 23.4137 10.6989 22.9912 11.501 22.1963C12.3102 21.3942 12.7363 20.363 12.7793 19.1025C12.7507 17.8278 12.321 16.7858 11.4902 15.9766C10.6667 15.1673 9.64616 14.7555 8.42871 14.7412ZM14.7451 19.1025C14.7308 19.9619 14.5518 20.7712 14.208 21.5303C13.8643 22.2822 13.4095 22.9411 12.8438 23.5068C12.2852 24.0726 11.6227 24.5202 10.8564 24.8496C10.0973 25.1719 9.28809 25.333 8.42871 25.333C7.56934 25.333 6.76009 25.1719 6.00098 24.8496C5.24902 24.5202 4.59017 24.0726 4.02441 23.5068C3.45866 22.9411 3.01107 22.2822 2.68164 21.5303C2.35938 20.7712 2.19824 19.9619 2.19824 19.1025C2.19824 18.2432 2.35938 17.4375 2.68164 16.6855C3.01107 15.9264 3.45866 15.264 4.02441 14.6982C4.59017 14.1325 5.24902 13.6885 6.00098 13.3662C6.76009 13.0368 7.56934 12.8721 8.42871 12.8721C9.56022 12.8721 10.5951 13.1478 11.5332 13.6992C12.4714 14.2507 13.2126 14.9704 13.7568 15.8584C15.0531 13.8818 16.8327 12.8792 19.0957 12.8506C20.6354 12.8076 22.0534 13.3698 23.3496 14.5371C24.653 15.6973 25.3333 17.2191 25.3906 19.1025C25.362 20.9144 24.7676 22.3968 23.6074 23.5498C22.4473 24.6956 20.9434 25.29 19.0957 25.333C18.2578 25.333 17.4486 25.1611 16.668 24.8174C16.5176 24.7458 16.3994 24.667 16.3135 24.5811C16.2347 24.4951 16.1774 24.377 16.1416 24.2266C16.1058 24.069 16.1022 23.9222 16.1309 23.7861C16.1595 23.6501 16.224 23.5212 16.3242 23.3994C16.4316 23.2705 16.5426 23.1738 16.6572 23.1094C16.779 23.0449 16.9043 23.0127 17.0332 23.0127C17.1621 23.0055 17.2731 23.0199 17.3662 23.0557C17.5882 23.1631 17.8174 23.2454 18.0537 23.3027C18.376 23.3958 18.7233 23.4424 19.0957 23.4424H19.1816C19.776 23.4424 20.3346 23.3278 20.8574 23.0986C21.3874 22.8695 21.8457 22.5651 22.2324 22.1855C22.6263 21.7988 22.9378 21.3405 23.167 20.8105C23.4033 20.2806 23.5286 19.7113 23.543 19.1025V19.0166C23.543 18.4365 23.432 17.8851 23.21 17.3623C22.988 16.8324 22.68 16.3776 22.2861 15.998C21.8923 15.6113 21.4339 15.307 20.9111 15.085C20.3883 14.8558 19.8369 14.7412 19.2568 14.7412H19.0957C18.5013 14.7699 17.9427 14.8988 17.4199 15.1279C16.8971 15.3499 16.4388 15.6543 16.0449 16.041C15.6582 16.4277 15.3467 16.8825 15.1104 17.4053C14.8812 17.9281 14.7594 18.4938 14.7451 19.1025ZM19.2568 5.43848C19.2568 5.71777 19.3571 5.9541 19.5576 6.14746C19.751 6.34082 19.9837 6.4375 20.2559 6.4375C20.5495 6.4375 20.7894 6.34082 20.9756 6.14746C21.1618 5.9541 21.2549 5.71777 21.2549 5.43848C21.2549 5.15202 21.1618 4.91569 20.9756 4.72949C20.7894 4.53613 20.5495 4.43945 20.2559 4.43945C19.9837 4.43945 19.751 4.53613 19.5576 4.72949C19.3571 4.91569 19.2568 5.15202 19.2568 5.43848ZM18.666 12.0664H17.3662C17.8818 11.7728 18.376 11.4147 18.8486 10.9922C19.2354 10.6341 19.6292 10.1901 20.0303 9.66016C20.4313 9.13021 20.7321 8.49284 20.9326 7.74805C20.6891 7.81966 20.4635 7.85547 20.2559 7.85547C19.9264 7.85547 19.6185 7.7946 19.332 7.67285C19.0384 7.55111 18.7842 7.38281 18.5693 7.16797C18.3473 6.94596 18.1755 6.69173 18.0537 6.40527C17.932 6.11165 17.8711 5.79655 17.8711 5.45996C17.8711 5.14486 17.932 4.84049 18.0537 4.54688C18.1755 4.25326 18.3473 3.99902 18.5693 3.78418C18.7842 3.56934 19.0384 3.40104 19.332 3.2793C19.6185 3.15039 19.9264 3.08594 20.2559 3.08594C20.5781 3.08594 20.8861 3.15039 21.1797 3.2793C21.4661 3.40104 21.7168 3.56934 21.9316 3.78418C22.1465 3.99902 22.3184 4.25326 22.4473 4.54688C22.569 4.84049 22.6299 5.14486 22.6299 5.45996C22.6299 5.79655 22.6048 6.22982 22.5547 6.75977C22.5046 7.28971 22.3649 7.86263 22.1357 8.47852C21.8994 9.08724 21.5449 9.70671 21.0723 10.3369C20.5996 10.9671 19.9479 11.5436 19.1172 12.0664H18.666ZM27.0557 15.8584C27.0557 15.5218 27.1165 15.2103 27.2383 14.9238C27.3672 14.6302 27.5391 14.376 27.7539 14.1611C27.9688 13.9391 28.2194 13.7673 28.5059 13.6455C28.7995 13.5238 29.1146 13.4629 29.4512 13.4629C29.7806 13.4629 30.0885 13.5238 30.375 13.6455C30.6686 13.7673 30.9264 13.9391 31.1484 14.1611C31.3704 14.376 31.5423 14.6302 31.6641 14.9238C31.7858 15.2103 31.8467 15.5218 31.8467 15.8584C31.8467 16.1878 31.7858 16.4993 31.6641 16.793C31.5423 17.0794 31.3704 17.3337 31.1484 17.5557C30.9264 17.7705 30.6686 17.9388 30.375 18.0605C30.0885 18.1823 29.7806 18.2432 29.4512 18.2432C29.1146 18.2432 28.7995 18.1823 28.5059 18.0605C28.2194 17.9388 27.9688 17.7705 27.7539 17.5557C27.5391 17.3337 27.3672 17.0794 27.2383 16.793C27.1165 16.4993 27.0557 16.1878 27.0557 15.8584ZM27.0557 22.6475C27.0557 22.318 27.1165 22.0101 27.2383 21.7236C27.3672 21.43 27.5391 21.1722 27.7539 20.9502C27.9688 20.7282 28.2194 20.5563 28.5059 20.4346C28.7995 20.3128 29.1146 20.252 29.4512 20.252C29.7806 20.252 30.0885 20.3128 30.375 20.4346C30.6686 20.5563 30.9264 20.7282 31.1484 20.9502C31.3704 21.1722 31.5423 21.43 31.6641 21.7236C31.7858 22.0101 31.8467 22.318 31.8467 22.6475C31.8467 22.984 31.7858 23.2992 31.6641 23.5928C31.5423 23.8792 31.3704 24.1299 31.1484 24.3447C30.9264 24.5596 30.6686 24.7314 30.375 24.8604C30.0885 24.9821 29.7806 25.043 29.4512 25.043C29.1146 25.043 28.7995 24.9821 28.5059 24.8604C28.2194 24.7314 27.9688 24.5596 27.7539 24.3447C27.5391 24.1299 27.3672 23.8792 27.2383 23.5928C27.1165 23.2992 27.0557 22.984 27.0557 22.6475ZM28.3877 22.6475C28.3877 22.9554 28.4915 23.2132 28.6992 23.4209C28.9069 23.6286 29.1647 23.7324 29.4727 23.7324C29.7591 23.7324 30.0098 23.6286 30.2246 23.4209C30.4395 23.2132 30.5469 22.9554 30.5469 22.6475C30.5469 22.361 30.4395 22.1104 30.2246 21.8955C30.0098 21.6807 29.7591 21.5732 29.4727 21.5732C29.1647 21.5732 28.9069 21.6807 28.6992 21.8955C28.4915 22.1104 28.3877 22.361 28.3877 22.6475ZM28.3662 15.8799C28.3662 16.1807 28.4665 16.4385 28.667 16.6533C28.8675 16.861 29.1217 16.9648 29.4297 16.9648C29.7305 16.9648 29.9847 16.861 30.1924 16.6533C30.4001 16.4385 30.5039 16.1807 30.5039 15.8799C30.5039 15.5863 30.4001 15.3356 30.1924 15.1279C29.9847 14.9202 29.7305 14.8164 29.4297 14.8164C29.1217 14.8164 28.8675 14.9202 28.667 15.1279C28.4665 15.3356 28.3662 15.5863 28.3662 15.8799Z" fill="#666666"/>
<path d="M8.42871 14.7412L8.43201 14.4612L8.42549 14.4612L8.42871 14.7412ZM4.08887 19.1025L3.80859 19.0992L3.80903 19.1121L4.08887 19.1025ZM5.35645 22.1748L5.16024 22.3746L5.16116 22.3755L5.35645 22.1748ZM8.42871 23.4639L8.41105 23.7433L8.4255 23.7442L8.43997 23.7436L8.42871 23.4639ZM11.501 22.1963L11.6981 22.3952L11.6981 22.3952L11.501 22.1963ZM12.7793 19.1025L13.0591 19.1121L13.0594 19.1042L13.0592 19.0962L12.7793 19.1025ZM11.4902 15.9766L11.294 16.1763L11.2949 16.1771L11.4902 15.9766ZM14.7451 19.1025L14.4652 19.096L14.4652 19.0979L14.7451 19.1025ZM14.208 21.5303L14.4627 21.6467L14.4631 21.6458L14.208 21.5303ZM12.8438 23.5068L12.6458 23.3088L12.6445 23.3101L12.8438 23.5068ZM10.8564 24.8496L10.9659 25.1073L10.967 25.1068L10.8564 24.8496ZM6.00098 24.8496L5.88861 25.1061L5.89156 25.1073L6.00098 24.8496ZM2.68164 21.5303L2.42389 21.6397L2.42517 21.6426L2.68164 21.5303ZM2.68164 16.6855L2.42478 16.5741L2.42428 16.5752L2.68164 16.6855ZM6.00098 13.3662L6.11128 13.6236L6.11244 13.6231L6.00098 13.3662ZM11.5332 13.6992L11.6751 13.4578L11.5332 13.6992ZM13.7568 15.8584L13.5181 16.0047L13.7488 16.3812L13.991 16.0119L13.7568 15.8584ZM19.0957 12.8506L19.0992 13.1306L19.1035 13.1305L19.0957 12.8506ZM23.3496 14.5371L23.1622 14.7452L23.1634 14.7463L23.3496 14.5371ZM25.3906 19.1025L25.6709 19.107L25.6705 19.094L25.3906 19.1025ZM23.6074 23.5498L23.8042 23.749L23.8048 23.7484L23.6074 23.5498ZM19.0957 25.333V25.6131L19.1022 25.6129L19.0957 25.333ZM16.668 24.8174L16.5475 25.0703L16.5551 25.0736L16.668 24.8174ZM16.3135 24.5811L16.1069 24.7704L16.1155 24.779L16.3135 24.5811ZM16.1416 24.2266L15.8686 24.2886L15.8692 24.2914L16.1416 24.2266ZM16.3242 23.3994L16.1091 23.2202L16.1081 23.2214L16.3242 23.3994ZM16.6572 23.1094L16.5262 22.8618L16.52 22.8653L16.6572 23.1094ZM17.0332 23.0127V23.2927H17.041L17.0487 23.2923L17.0332 23.0127ZM17.3662 23.0557L17.4882 22.8036L17.4776 22.7985L17.4667 22.7943L17.3662 23.0557ZM18.0537 23.3027L18.1315 23.0335L18.1197 23.0306L18.0537 23.3027ZM20.8574 23.0986L20.7463 22.8416L20.745 22.8422L20.8574 23.0986ZM22.2324 22.1855L22.4286 22.3854L22.4286 22.3853L22.2324 22.1855ZM23.167 20.8105L22.9113 20.6965L22.91 20.6994L23.167 20.8105ZM23.543 19.1025L23.823 19.1091V19.1025H23.543ZM23.21 17.3623L22.9517 17.4705L22.9522 17.4717L23.21 17.3623ZM22.2861 15.998L22.09 16.1979L22.0918 16.1997L22.2861 15.998ZM20.9111 15.085L20.7987 15.3414L20.8017 15.3427L20.9111 15.085ZM19.0957 14.7412V14.4609L19.0822 14.4615L19.0957 14.7412ZM17.4199 15.1279L17.5294 15.3857L17.5323 15.3844L17.4199 15.1279ZM16.0449 16.041L15.8487 15.8412L15.8469 15.843L16.0449 16.041ZM15.1104 17.4053L14.8552 17.2899L14.8539 17.2929L15.1104 17.4053ZM8.42549 14.4612C7.11038 14.4763 6.00639 14.9292 5.13442 15.8241L5.53551 16.2149C6.29635 15.4341 7.25485 15.0347 8.43193 15.0212L8.42549 14.4612ZM5.13442 15.8241C4.26564 16.7158 3.82402 17.8132 3.80889 19.0992L4.36885 19.1058C4.38236 17.957 4.77147 16.9991 5.53551 16.2149L5.13442 15.8241ZM3.80903 19.1121C3.85412 20.4348 4.30053 21.5302 5.16025 22.3746L5.55264 21.975C4.8082 21.2439 4.40955 20.2911 4.3687 19.093L3.80903 19.1121ZM5.16116 22.3755C6.01676 23.2081 7.10649 23.6608 8.41105 23.7433L8.44638 23.1844C7.25875 23.1093 6.3003 22.7027 5.55173 21.9741L5.16116 22.3755ZM8.43997 23.7436C9.74804 23.691 10.841 23.2446 11.6981 22.3952L11.3039 21.9974C10.5568 22.7378 9.60157 23.1365 8.41746 23.1841L8.43997 23.7436ZM11.6981 22.3952C12.5636 21.5373 13.014 20.4356 13.0591 19.1121L12.4995 19.093C12.4586 20.2904 12.0568 21.2511 11.3039 21.9974L11.6981 22.3952ZM13.0592 19.0962C13.0291 17.7562 12.5743 16.6417 11.6856 15.776L11.2949 16.1771C12.0676 16.9299 12.4722 17.8994 12.4994 19.1088L13.0592 19.0962ZM11.6865 15.7768C10.8083 14.914 9.71737 14.4764 8.432 14.4612L8.42542 15.0212C9.57495 15.0347 10.525 15.4207 11.294 16.1763L11.6865 15.7768ZM14.4652 19.0979C14.4515 19.9202 14.2804 20.6916 13.9529 21.4148L14.4631 21.6458C14.8231 20.8507 15.0101 20.0036 15.0251 19.1072L14.4652 19.0979ZM13.9534 21.4139C13.623 22.1365 13.1871 22.7675 12.6458 23.3088L13.0417 23.7048C13.6319 23.1147 14.1055 22.428 14.4627 21.6467L13.9534 21.4139ZM12.6445 23.3101C12.1125 23.8489 11.4806 24.2765 10.7459 24.5924L10.967 25.1068C11.7648 24.7639 12.4578 24.2963 13.043 23.7036L12.6445 23.3101ZM10.747 24.5919C10.024 24.8988 9.2521 25.053 8.42871 25.053V25.613C9.32407 25.613 10.1707 25.4449 10.9659 25.1073L10.747 24.5919ZM8.42871 25.053C7.60532 25.053 6.83345 24.8988 6.11039 24.5919L5.89156 25.1073C6.68674 25.4449 7.53335 25.613 8.42871 25.613V25.053ZM6.11333 24.5931C5.39247 24.2773 4.76286 23.8493 4.2224 23.3088L3.82642 23.7048C4.41748 24.2959 5.10558 24.763 5.88862 25.1061L6.11333 24.5931ZM4.2224 23.3088C3.68195 22.7684 3.25392 22.1388 2.93811 21.4179L2.42517 21.6426C2.76822 22.4257 3.23537 23.1138 3.82642 23.7048L4.2224 23.3088ZM2.93938 21.4209C2.63242 20.6978 2.47824 19.9259 2.47824 19.1025H1.91824C1.91824 19.9979 2.08633 20.8445 2.4239 21.6397L2.93938 21.4209ZM2.47824 19.1025C2.47824 18.2791 2.63242 17.5112 2.939 16.7958L2.42428 16.5752C2.08633 17.3638 1.91824 18.2072 1.91824 19.1025H2.47824ZM2.9385 16.797C3.2544 16.0691 3.68239 15.4362 4.2224 14.8962L3.82642 14.5003C3.23493 15.0917 2.76773 15.7838 2.42478 16.5741L2.9385 16.797ZM4.2224 14.8962C4.7624 14.3562 5.39131 13.9321 6.11127 13.6236L5.89068 13.1089C5.10674 13.4448 4.41794 13.9087 3.82642 14.5003L4.2224 14.8962ZM6.11244 13.6231C6.83502 13.3095 7.60617 13.1521 8.42871 13.1521V12.5921C7.5325 12.5921 6.68516 12.7641 5.88951 13.1094L6.11244 13.6231ZM8.42871 13.1521C9.5124 13.1521 10.4979 13.4155 11.3913 13.9406L11.6751 13.4578C10.6922 12.8801 9.60804 12.5921 8.42871 12.5921V13.1521ZM11.3913 13.9406C12.2917 14.4698 12.9989 15.1576 13.5181 16.0047L13.9956 15.7121C13.4262 14.7831 12.651 14.0315 11.6751 13.4578L11.3913 13.9406ZM13.991 16.0119C15.2388 14.1091 16.9342 13.158 19.0992 13.1306L19.0922 12.5706C16.7312 12.6005 14.8673 13.6546 13.5227 15.7048L13.991 16.0119ZM19.1035 13.1305C20.5617 13.0898 21.9118 13.6191 23.1622 14.7452L23.537 14.329C22.195 13.1205 20.7092 12.5255 19.0879 12.5707L19.1035 13.1305ZM23.1634 14.7463C24.4044 15.8509 25.0556 17.2977 25.1108 19.1111L25.6705 19.094C25.6111 17.1405 24.9016 15.5437 23.5358 14.328L23.1634 14.7463ZM25.1107 19.0981C25.083 20.8455 24.5126 22.2554 23.41 23.3512L23.8048 23.7484C25.0225 22.5382 25.6409 20.9832 25.6706 19.107L25.1107 19.0981ZM23.4107 23.3506C22.3082 24.4395 20.8757 25.0115 19.0892 25.0531L19.1022 25.6129C21.011 25.5685 22.5863 24.9518 23.8042 23.749L23.4107 23.3506ZM19.0957 25.053C18.2974 25.053 17.5265 24.8895 16.7808 24.5611L16.5551 25.0736C17.3706 25.4328 18.2182 25.613 19.0957 25.613V25.053ZM16.7884 24.5646C16.6568 24.502 16.5682 24.4398 16.5115 24.3831L16.1155 24.779C16.2306 24.8942 16.3783 24.9896 16.5476 25.0702L16.7884 24.5646ZM16.5199 24.3919C16.4821 24.3507 16.4422 24.2803 16.414 24.1617L15.8692 24.2914C15.9126 24.4736 15.9873 24.6395 16.1071 24.7703L16.5199 24.3919ZM16.4146 24.1645C16.3863 24.04 16.3858 23.9345 16.4049 23.8438L15.8569 23.7284C15.8187 23.9099 15.8252 24.098 15.8686 24.2886L16.4146 24.1645ZM16.4049 23.8438C16.423 23.7576 16.4649 23.669 16.5404 23.5774L16.1081 23.2214C15.983 23.3733 15.896 23.5426 15.8569 23.7284L16.4049 23.8438ZM16.5393 23.5787C16.6307 23.469 16.7165 23.3973 16.7945 23.3534L16.52 22.8653C16.3688 22.9504 16.2326 23.072 16.1091 23.2202L16.5393 23.5787ZM16.7882 23.3568C16.8725 23.3122 16.9531 23.2927 17.0332 23.2927V22.7327C16.8555 22.7327 16.6855 22.7776 16.5262 22.8619L16.7882 23.3568ZM17.0487 23.2923C17.1493 23.2867 17.2187 23.2989 17.2657 23.317L17.4667 22.7943C17.3275 22.7408 17.175 22.7244 17.0177 22.7331L17.0487 23.2923ZM17.2443 23.3077C17.4839 23.4237 17.7318 23.5128 17.9877 23.5749L18.1197 23.0306C17.9029 22.9781 17.6925 22.9025 17.4882 22.8036L17.2443 23.3077ZM17.976 23.5717C18.3261 23.6729 18.6999 23.7224 19.0957 23.7224V23.1624C18.7467 23.1624 18.4258 23.1188 18.1314 23.0337L17.976 23.5717ZM19.0957 23.7224H19.1816V23.1624H19.0957V23.7224ZM19.1816 23.7224C19.8131 23.7224 20.4101 23.6004 20.9698 23.3551L20.745 22.8422C20.2591 23.0552 19.739 23.1624 19.1816 23.1624V23.7224ZM20.9686 23.3556C21.528 23.1137 22.0157 22.7906 22.4286 22.3854L22.0363 21.9857C21.6757 22.3396 21.2467 22.6252 20.7463 22.8416L20.9686 23.3556ZM22.4286 22.3853C22.8495 21.9721 23.1811 21.4833 23.424 20.9217L22.91 20.6994C22.6945 21.1977 22.4031 21.6255 22.0363 21.9857L22.4286 22.3853ZM23.4227 20.9246C23.6749 20.3591 23.8077 19.7531 23.8229 19.1091L23.263 19.096C23.2496 19.6695 23.1318 20.2021 22.9113 20.6965L23.4227 20.9246ZM23.823 19.1025V19.0166H23.263V19.1025H23.823ZM23.823 19.0166C23.823 18.3997 23.7047 17.811 23.4677 17.2529L22.9522 17.4717C23.1592 17.9592 23.263 18.4733 23.263 19.0166H23.823ZM23.4682 17.2541C23.2322 16.6908 22.9031 16.2038 22.4804 15.7964L22.0918 16.1997C22.4569 16.5514 22.7437 16.9739 22.9517 17.4705L23.4682 17.2541ZM22.4823 15.7982C22.0627 15.3862 21.5747 15.0625 21.0206 14.8272L20.8017 15.3427C21.2931 15.5514 21.7218 15.8364 22.09 16.1978L22.4823 15.7982ZM21.0235 14.8285C20.4647 14.5836 19.875 14.4612 19.2568 14.4612V15.0212C19.7989 15.0212 20.312 15.128 20.7987 15.3414L21.0235 14.8285ZM19.2568 14.4612H19.0957V15.0212H19.2568V14.4612ZM19.0822 14.4615C18.4552 14.4918 17.8629 14.628 17.3075 14.8715L17.5323 15.3844C18.0225 15.1695 18.5474 15.048 19.1092 15.0209L19.0822 14.4615ZM17.3105 14.8702C16.7564 15.1055 16.2684 15.4292 15.8488 15.8412L16.2411 16.2408C16.6092 15.8794 17.0379 15.5944 17.5294 15.3857L17.3105 14.8702ZM15.8469 15.843C15.4352 16.2548 15.1048 16.7379 14.8552 17.2899L15.3655 17.5206C15.5886 17.0271 15.8812 16.6007 16.2429 16.239L15.8469 15.843ZM14.8539 17.2929C14.6091 17.8512 14.4803 18.4532 14.4652 19.096L15.025 19.1091C15.0386 18.5344 15.1532 18.0049 15.3668 17.5177L14.8539 17.2929ZM19.5576 6.14746L19.7556 5.94944L19.752 5.9459L19.5576 6.14746ZM20.9756 4.72949L20.7739 4.92375L20.7776 4.92748L20.9756 4.72949ZM19.5576 4.72949L19.7483 4.93482L19.7556 4.92748L19.5576 4.72949ZM17.3662 12.0664L17.2277 11.8231L16.3087 12.3464H17.3662V12.0664ZM18.8486 10.9922L19.0353 11.201L19.0389 11.1976L18.8486 10.9922ZM20.9326 7.74805L21.203 7.82084L21.3329 7.33847L20.8536 7.47942L20.9326 7.74805ZM19.332 7.67285L19.4416 7.41515L19.4393 7.4142L19.332 7.67285ZM18.5693 7.16797L18.3713 7.36596L18.5693 7.16797ZM18.0537 6.40527L17.7951 6.51252L17.796 6.51479L18.0537 6.40527ZM18.5693 3.78418L18.7641 3.98542L18.7673 3.98217L18.5693 3.78418ZM19.332 3.2793L19.4393 3.53806L19.4469 3.53463L19.332 3.2793ZM21.1797 3.2793L21.0671 3.5357L21.0702 3.53699L21.1797 3.2793ZM22.4473 4.54688L22.706 4.43961L22.7036 4.43432L22.4473 4.54688ZM22.1357 8.47852L22.3968 8.57986L22.3982 8.57616L22.1357 8.47852ZM19.1172 12.0664V12.3464H19.198L19.2663 12.3034L19.1172 12.0664ZM18.9768 5.43848C18.9768 5.79357 19.1078 6.10273 19.3633 6.34902L19.752 5.9459C19.6063 5.80548 19.5368 5.64197 19.5368 5.43848H18.9768ZM19.3596 6.34545C19.6052 6.59103 19.9091 6.7175 20.2559 6.7175V6.1575C20.0584 6.1575 19.8967 6.09061 19.7556 5.94947L19.3596 6.34545ZM20.2559 6.7175C20.6177 6.7175 20.9331 6.59529 21.1773 6.34168L20.7739 5.95324C20.6457 6.08635 20.4813 6.1575 20.2559 6.1575V6.7175ZM21.1773 6.34168C21.4159 6.09385 21.5349 5.78695 21.5349 5.43848H20.9749C20.9749 5.64859 20.9076 5.81435 20.7739 5.95324L21.1773 6.34168ZM21.5349 5.43848C21.5349 5.08495 21.4172 4.77509 21.1736 4.5315L20.7776 4.92748C20.9064 5.0563 20.9749 5.21909 20.9749 5.43848H21.5349ZM21.1773 4.53527C20.9331 4.28166 20.6177 4.15945 20.2559 4.15945V4.71945C20.4813 4.71945 20.6457 4.79061 20.7739 4.92371L21.1773 4.53527ZM20.2559 4.15945C19.9091 4.15945 19.6052 4.28592 19.3596 4.5315L19.7556 4.92748C19.8967 4.78635 20.0584 4.71945 20.2559 4.71945V4.15945ZM19.3671 4.52431C19.1066 4.76622 18.9768 5.07827 18.9768 5.43848H19.5368C19.5368 5.22577 19.6076 5.06516 19.7481 4.93467L19.3671 4.52431ZM18.666 11.7864H17.3662V12.3464H18.666V11.7864ZM17.5048 12.3097C18.0387 12.0057 18.5488 11.6358 19.0352 11.2009L18.662 10.7834C18.2031 11.1937 17.725 11.5399 17.2277 11.8231L17.5048 12.3097ZM19.0389 11.1976C19.4403 10.826 19.845 10.369 20.2535 9.82912L19.807 9.49119C19.4134 10.0113 19.0304 10.4423 18.6584 10.7867L19.0389 11.1976ZM20.2535 9.82912C20.6795 9.26622 20.9946 8.5949 21.203 7.82084L20.6622 7.67525C20.4696 8.39077 20.1831 8.9942 19.807 9.49119L20.2535 9.82912ZM20.8536 7.47942C20.6303 7.5451 20.4316 7.57547 20.2559 7.57547V8.13547C20.4954 8.13547 20.7479 8.09422 21.0116 8.01667L20.8536 7.47942ZM20.2559 7.57547C19.9618 7.57547 19.6914 7.52133 19.4416 7.41516L19.2225 7.93054C19.5456 8.06786 19.891 8.13547 20.2559 8.13547V7.57547ZM19.4393 7.4142C19.178 7.30587 18.955 7.15765 18.7673 6.96998L18.3713 7.36596C18.6134 7.60797 18.8988 7.79634 19.2248 7.9315L19.4393 7.4142ZM18.7673 6.96998C18.5705 6.77314 18.419 6.54887 18.3114 6.29575L17.796 6.51479C17.9319 6.83459 18.1242 7.11879 18.3713 7.36596L18.7673 6.96998ZM18.3124 6.29803C18.2055 6.04038 18.1511 5.76195 18.1511 5.45996H17.5911C17.5911 5.83115 17.6584 6.18293 17.7951 6.51252L18.3124 6.29803ZM18.1511 5.45996C18.1511 5.18199 18.2046 4.91405 18.3124 4.65412L17.7951 4.43963C17.6593 4.76694 17.5911 5.10772 17.5911 5.45996H18.1511ZM18.3124 4.65412C18.4199 4.39482 18.5704 4.17283 18.7641 3.98539L18.3746 3.58297C18.1243 3.82521 17.931 4.11169 17.7951 4.43963L18.3124 4.65412ZM18.7673 3.98217C18.955 3.7945 19.178 3.64628 19.4393 3.53794L19.2248 3.02065C18.8988 3.1558 18.6134 3.34418 18.3713 3.58619L18.7673 3.98217ZM19.4469 3.53463C19.6955 3.42278 19.9641 3.36594 20.2559 3.36594V2.80594C19.8888 2.80594 19.5415 2.87801 19.2171 3.02396L19.4469 3.53463ZM20.2559 3.36594C20.5396 3.36594 20.8092 3.42243 21.0671 3.53568L21.2922 3.02292C20.963 2.87835 20.6167 2.80594 20.2559 2.80594V3.36594ZM21.0702 3.53699C21.3244 3.64504 21.5448 3.79334 21.7337 3.98217L22.1296 3.58619C21.8888 3.34533 21.6079 3.15704 21.2892 3.0216L21.0702 3.53699ZM21.7337 3.98217C21.9225 4.17107 22.0752 4.39588 22.1909 4.65943L22.7036 4.43432C22.5615 4.11063 22.3704 3.82698 22.1296 3.58619L21.7337 3.98217ZM22.1886 4.65412C22.2964 4.91405 22.3499 5.18199 22.3499 5.45996H22.9099C22.9099 5.10772 22.8416 4.76694 22.7059 4.43963L22.1886 4.65412ZM22.3499 5.45996C22.3499 5.78422 22.3256 6.20781 22.2759 6.7334L22.8334 6.78613C22.884 6.25182 22.9099 5.80888 22.9099 5.45996H22.3499ZM22.2759 6.7334C22.2286 7.23407 22.0959 7.78279 21.8733 8.38087L22.3982 8.57616C22.634 7.94247 22.7805 7.34536 22.8334 6.78613L22.2759 6.7334ZM21.8747 8.37718C21.6493 8.95779 21.3086 9.55508 20.8483 10.1689L21.2963 10.5049C21.7812 9.85833 22.1495 9.21669 22.3968 8.57985L21.8747 8.37718ZM20.8483 10.1689C20.4005 10.7659 19.7767 11.3205 18.9681 11.8294L19.2663 12.3034C20.1192 11.7667 20.7987 11.1683 21.2963 10.5049L20.8483 10.1689ZM19.1172 11.7864H18.666V12.3464H19.1172V11.7864ZM27.2383 14.9238L26.9819 14.8113L26.9806 14.8143L27.2383 14.9238ZM27.7539 14.1611L27.9519 14.3591L27.9551 14.3559L27.7539 14.1611ZM28.5059 13.6455L28.3986 13.3868L28.3963 13.3878L28.5059 13.6455ZM30.375 13.6455L30.2655 13.9032L30.2678 13.9042L30.375 13.6455ZM31.1484 14.1611L30.9504 14.3591L30.9537 14.3623L31.1484 14.1611ZM31.6641 14.9238L31.4054 15.0311L31.4064 15.0333L31.6641 14.9238ZM31.6641 16.793L31.9218 16.9025L31.9227 16.9002L31.6641 16.793ZM31.1484 17.5557L31.3432 17.7569L31.3464 17.7537L31.1484 17.5557ZM30.375 18.0605L30.2678 17.8019L30.2655 17.8029L30.375 18.0605ZM28.5059 18.0605L28.3963 18.3182L28.3986 18.3192L28.5059 18.0605ZM27.7539 17.5557L27.5527 17.7504L27.5559 17.7537L27.7539 17.5557ZM27.2383 16.793L26.9795 16.9003L26.9829 16.9079L27.2383 16.793ZM27.2383 21.7236L26.9819 21.6111L26.9806 21.6141L27.2383 21.7236ZM27.7539 20.9502L27.9551 21.1449L27.7539 20.9502ZM28.5059 20.4346L28.3986 20.1759L28.3963 20.1769L28.5059 20.4346ZM30.375 20.4346L30.2655 20.6923L30.2678 20.6932L30.375 20.4346ZM31.1484 20.9502L30.9504 21.1482L31.1484 20.9502ZM31.6641 21.7236L31.4054 21.8309L31.4064 21.8332L31.6641 21.7236ZM31.6641 23.5928L31.9218 23.7023L31.9227 23.7L31.6641 23.5928ZM31.1484 24.3447L30.9537 24.1435L31.1484 24.3447ZM30.375 24.8604L30.4845 25.1181L30.4876 25.1167L30.375 24.8604ZM28.5059 24.8604L28.3909 25.1158L28.3986 25.119L28.5059 24.8604ZM27.2383 23.5928L26.9795 23.7001L26.9829 23.7077L27.2383 23.5928ZM28.6992 23.4209L28.5012 23.6189L28.6992 23.4209ZM28.667 16.6533L28.4623 16.8444L28.4656 16.8478L28.667 16.6533ZM30.1924 16.6533L30.3904 16.8513L30.3937 16.8479L30.1924 16.6533ZM27.3357 15.8584C27.3357 15.5564 27.3901 15.2824 27.496 15.0333L26.9806 14.8143C26.843 15.1381 26.7757 15.4873 26.7757 15.8584H27.3357ZM27.4947 15.0364C27.6104 14.7728 27.763 14.548 27.9519 14.3591L27.5559 13.9631C27.3151 14.2039 27.124 14.4876 26.9819 14.8113L27.4947 15.0364ZM27.9551 14.3559C28.1437 14.161 28.3631 14.0104 28.6154 13.9032L28.3963 13.3878C28.0757 13.5241 27.7938 13.7173 27.5527 13.9664L27.9551 14.3559ZM28.6131 13.9042C28.8708 13.7973 29.1492 13.7429 29.4512 13.7429V13.1829C29.08 13.1829 28.7282 13.2502 28.3986 13.3869L28.6131 13.9042ZM29.4512 13.7429C29.7452 13.7429 30.0157 13.797 30.2655 13.9032L30.4845 13.3878C30.1614 13.2505 29.816 13.1829 29.4512 13.1829V13.7429ZM30.2678 13.9042C30.5279 14.012 30.7547 14.1634 30.9504 14.3591L31.3464 13.9631C31.0981 13.7148 30.8094 13.5225 30.4822 13.3869L30.2678 13.9042ZM30.9537 14.3623C31.1474 14.5498 31.2979 14.7718 31.4054 15.0311L31.9227 14.8166C31.7867 14.4886 31.5935 14.2022 31.3432 13.9599L30.9537 14.3623ZM31.4064 15.0333C31.5122 15.2824 31.5667 15.5564 31.5667 15.8584H32.1267C32.1267 15.4873 32.0594 15.1381 31.9218 14.8143L31.4064 15.0333ZM31.5667 15.8584C31.5667 16.1524 31.5125 16.4273 31.4054 16.6857L31.9227 16.9002C32.0591 16.5714 32.1267 16.2233 32.1267 15.8584H31.5667ZM31.4064 16.6834C31.2988 16.9366 31.1473 17.1608 30.9504 17.3577L31.3464 17.7537C31.5936 17.5065 31.7858 17.2223 31.9218 16.9025L31.4064 16.6834ZM30.9537 17.3545C30.7577 17.5441 30.5298 17.6932 30.2678 17.8019L30.4822 18.3192C30.8074 18.1844 31.0951 17.9969 31.3432 17.7569L30.9537 17.3545ZM30.2655 17.8029C30.0157 17.909 29.7452 17.9632 29.4512 17.9632V18.5232C29.816 18.5232 30.1614 18.4556 30.4845 18.3182L30.2655 17.8029ZM29.4512 17.9632C29.1492 17.9632 28.8708 17.9087 28.6131 17.8019L28.3986 18.3192C28.7282 18.4559 29.08 18.5232 29.4512 18.5232V17.9632ZM28.6154 17.8029C28.3611 17.6948 28.1407 17.5465 27.9519 17.3577L27.5559 17.7537C27.7968 17.9945 28.0777 18.1828 28.3963 18.3182L28.6154 17.8029ZM27.9551 17.3609C27.7632 17.1626 27.6095 16.9355 27.4936 16.6781L26.9829 16.9079C27.1249 17.2234 27.3149 17.5047 27.5527 17.7504L27.9551 17.3609ZM27.4969 16.6857C27.3898 16.4273 27.3357 16.1524 27.3357 15.8584H26.7757C26.7757 16.2233 26.8433 16.5714 26.9796 16.9002L27.4969 16.6857ZM27.3357 22.6475C27.3357 22.3534 27.3898 22.083 27.496 21.8332L26.9806 21.6141C26.8433 21.9372 26.7757 22.2826 26.7757 22.6475H27.3357ZM27.4947 21.8362C27.6107 21.5718 27.7643 21.3421 27.9551 21.1449L27.5527 20.7555C27.3139 21.0023 27.1237 21.2882 26.9819 21.6111L27.4947 21.8362ZM27.9551 21.1449C28.1437 20.95 28.3631 20.7995 28.6154 20.6923L28.3963 20.1769C28.0757 20.3132 27.7938 20.5064 27.5527 20.7555L27.9551 21.1449ZM28.6131 20.6932C28.8708 20.5864 29.1492 20.532 29.4512 20.532V19.972C29.08 19.972 28.7282 20.0393 28.3986 20.1759L28.6131 20.6932ZM29.4512 20.532C29.7452 20.532 30.0157 20.5861 30.2655 20.6923L30.4845 20.1769C30.1614 20.0396 29.816 19.972 29.4512 19.972V20.532ZM30.2678 20.6932C30.5279 20.8011 30.7547 20.9525 30.9504 21.1482L31.3464 20.7522C31.0981 20.5039 30.8094 20.3116 30.4822 20.1759L30.2678 20.6932ZM30.9504 21.1482C31.1461 21.3439 31.2976 21.5708 31.4054 21.8309L31.9227 21.6164C31.7871 21.2893 31.5947 21.0005 31.3464 20.7522L30.9504 21.1482ZM31.4064 21.8332C31.5125 22.083 31.5667 22.3534 31.5667 22.6475H32.1267C32.1267 22.2826 32.0591 21.9372 31.9218 21.6141L31.4064 21.8332ZM31.5667 22.6475C31.5667 22.9494 31.5122 23.2279 31.4054 23.4855L31.9227 23.7C32.0594 23.3704 32.1267 23.0187 32.1267 22.6475H31.5667ZM31.4064 23.4833C31.2992 23.7355 31.1486 23.9549 30.9537 24.1435L31.3432 24.5459C31.5923 24.3048 31.7855 24.023 31.9218 23.7023L31.4064 23.4833ZM30.9537 24.1435C30.7565 24.3344 30.5268 24.4879 30.2624 24.604L30.4876 25.1167C30.8104 24.975 31.0964 24.7848 31.3432 24.5459L30.9537 24.1435ZM30.2655 24.6027C30.0157 24.7088 29.7452 24.763 29.4512 24.763V25.323C29.816 25.323 30.1614 25.2554 30.4845 25.118L30.2655 24.6027ZM29.4512 24.763C29.1492 24.763 28.8708 24.7085 28.6131 24.6017L28.3986 25.119C28.7282 25.2557 29.08 25.323 29.4512 25.323V24.763ZM28.6208 24.605C28.3642 24.4896 28.1419 24.3368 27.9519 24.1467L27.5559 24.5427C27.7956 24.7824 28.0746 24.9733 28.391 25.1157L28.6208 24.605ZM27.9519 24.1467C27.7619 23.9567 27.6091 23.7345 27.4936 23.4779L26.9829 23.7077C27.1253 24.024 27.3163 24.3031 27.5559 24.5427L27.9519 24.1467ZM27.4969 23.4855C27.3901 23.2279 27.3357 22.9494 27.3357 22.6475H26.7757C26.7757 23.0187 26.843 23.3704 26.9796 23.7L27.4969 23.4855ZM28.1077 22.6475C28.1077 23.0257 28.2383 23.3559 28.5012 23.6189L28.8972 23.2229C28.7448 23.0705 28.6677 22.8851 28.6677 22.6475H28.1077ZM28.5012 23.6189C28.7642 23.8818 29.0945 24.0124 29.4727 24.0124V23.4524C29.235 23.4524 29.0496 23.3753 28.8972 23.2229L28.5012 23.6189ZM29.4727 24.0124C29.8351 24.0124 30.1547 23.878 30.4192 23.6222L30.03 23.2196C29.8649 23.3792 29.6831 23.4524 29.4727 23.4524V24.0124ZM30.4192 23.6222C30.6905 23.36 30.8269 23.0287 30.8269 22.6475H30.2669C30.2669 22.8821 30.1884 23.0664 30.03 23.2196L30.4192 23.6222ZM30.8269 22.6475C30.8269 22.2819 30.6864 21.9613 30.4226 21.6975L30.0266 22.0935C30.1925 22.2594 30.2669 22.4401 30.2669 22.6475H30.8269ZM30.4226 21.6975C30.1588 21.4337 29.8382 21.2932 29.4727 21.2932V21.8532C29.68 21.8532 29.8608 21.9276 30.0266 22.0935L30.4226 21.6975ZM29.4727 21.2932C29.0914 21.2932 28.7601 21.4296 28.4979 21.7009L28.9005 22.0901C29.0537 21.9317 29.238 21.8532 29.4727 21.8532V21.2932ZM28.4979 21.7009C28.2422 21.9655 28.1077 22.285 28.1077 22.6475H28.6677C28.6677 22.437 28.7409 22.2552 28.9005 22.0901L28.4979 21.7009ZM28.0862 15.8799C28.0862 16.2497 28.2121 16.5763 28.4623 16.8444L28.8717 16.4623C28.7208 16.3006 28.6462 16.1116 28.6462 15.8799H28.0862ZM28.4656 16.8478C28.7226 17.1141 29.0514 17.2448 29.4297 17.2448V16.6848C29.1921 16.6848 29.0124 16.6079 28.8684 16.4588L28.4656 16.8478ZM29.4297 17.2448C29.8027 17.2448 30.1288 17.1129 30.3904 16.8513L29.9944 16.4553C29.8406 16.6091 29.6582 16.6848 29.4297 16.6848V17.2448ZM30.3937 16.8479C30.6522 16.5805 30.7839 16.2527 30.7839 15.8799H30.2239C30.2239 16.1086 30.1479 16.2965 29.9911 16.4587L30.3937 16.8479ZM30.7839 15.8799C30.7839 15.512 30.6505 15.1901 30.3904 14.9299L29.9944 15.3259C30.1496 15.4811 30.2239 15.6605 30.2239 15.8799H30.7839ZM30.3904 14.9299C30.1288 14.6683 29.8027 14.5364 29.4297 14.5364V15.0964C29.6582 15.0964 29.8406 15.1721 29.9944 15.3259L30.3904 14.9299ZM29.4297 14.5364C29.0514 14.5364 28.7226 14.6672 28.4656 14.9334L28.8684 15.3224C29.0124 15.1733 29.1921 15.0964 29.4297 15.0964V14.5364ZM28.4656 14.9334C28.2137 15.1943 28.0862 15.5151 28.0862 15.8799H28.6462C28.6462 15.6574 28.7193 15.4769 28.8684 15.3224L28.4656 14.9334Z" fill="#666666"/>
</svg>
