<svg width="60" height="55" viewBox="0 0 60 55" fill="none" xmlns="http://www.w3.org/2000/svg">
<path d="M9.8 43.4L12.4 43.4C13.0896 43.4 13.7509 43.695 14.2385 44.2201C14.7261 44.7452 15 45.4574 15 46.2C15 46.9426 14.7261 47.6548 14.2385 48.1799C13.7509 48.705 13.0896 49 12.4 49L9.8 49C7.732 48.9976 5.74935 48.1118 4.28706 46.537C2.82476 44.9622 2.00226 42.8271 2 40.6L2 37.8C2 37.0574 2.27393 36.3452 2.76152 35.8201C3.24912 35.295 3.91044 35 4.6 35C5.28956 35 5.95088 35.295 6.43848 35.8201C6.92607 36.3452 7.2 37.0574 7.2 37.8L7.2 40.6C7.20069 41.3424 7.47484 42.0541 7.96228 42.5791C8.44973 43.104 9.11065 43.3993 9.8 43.4Z" fill="#666666"/>
<path d="M41.2 16.6H38.6C37.9104 16.6 37.2491 16.305 36.7615 15.7799C36.2739 15.2548 36 14.5426 36 13.8C36 13.0574 36.2739 12.3452 36.7615 11.8201C37.2491 11.295 37.9104 11 38.6 11H41.2C43.268 11.0024 45.2506 11.8882 46.7129 13.463C48.1752 15.0378 48.9977 17.1729 49 19.4V22.2C49 22.9426 48.7261 23.6548 48.2385 24.1799C47.7509 24.705 47.0896 25 46.4 25C45.7104 25 45.0491 24.705 44.5615 24.1799C44.0739 23.6548 43.8 22.9426 43.8 22.2V19.4C43.7993 18.6576 43.5252 17.9459 43.0377 17.4209C42.5503 16.896 41.8894 16.6007 41.2 16.6Z" fill="#666666"/>
<path d="M25.4287 37.7412C24.1826 37.7555 23.1514 38.1816 22.335 39.0195C21.5186 39.8574 21.1032 40.8851 21.0889 42.1025C21.1318 43.363 21.5544 44.387 22.3564 45.1748C23.1585 45.9554 24.1826 46.3851 25.4287 46.4639C26.6748 46.4137 27.6989 45.9912 28.501 45.1963C29.3102 44.3942 29.7363 43.363 29.7793 42.1025C29.7507 40.8278 29.321 39.7858 28.4902 38.9766C27.6667 38.1673 26.6462 37.7555 25.4287 37.7412ZM31.7451 42.1025C31.7308 42.9619 31.5518 43.7712 31.208 44.5303C30.8643 45.2822 30.4095 45.9411 29.8438 46.5068C29.2852 47.0726 28.6227 47.5202 27.8564 47.8496C27.0973 48.1719 26.2881 48.333 25.4287 48.333C24.5693 48.333 23.7601 48.1719 23.001 47.8496C22.249 47.5202 21.5902 47.0726 21.0244 46.5068C20.4587 45.9411 20.0111 45.2822 19.6816 44.5303C19.3594 43.7712 19.1982 42.9619 19.1982 42.1025C19.1982 41.2432 19.3594 40.4375 19.6816 39.6855C20.0111 38.9264 20.4587 38.264 21.0244 37.6982C21.5902 37.1325 22.249 36.6885 23.001 36.3662C23.7601 36.0368 24.5693 35.8721 25.4287 35.8721C26.5602 35.8721 27.5951 36.1478 28.5332 36.6992C29.4714 37.2507 30.2126 37.9704 30.7568 38.8584C32.0531 36.8818 33.8327 35.8792 36.0957 35.8506C37.6354 35.8076 39.0534 36.3698 40.3496 37.5371C41.653 38.6973 42.3333 40.2191 42.3906 42.1025C42.362 43.9144 41.7676 45.3968 40.6074 46.5498C39.4473 47.6956 37.9434 48.29 36.0957 48.333C35.2578 48.333 34.4486 48.1611 33.668 47.8174C33.5176 47.7458 33.3994 47.667 33.3135 47.5811C33.2347 47.4951 33.1774 47.377 33.1416 47.2266C33.1058 47.069 33.1022 46.9222 33.1309 46.7861C33.1595 46.6501 33.224 46.5212 33.3242 46.3994C33.4316 46.2705 33.5426 46.1738 33.6572 46.1094C33.779 46.0449 33.9043 46.0127 34.0332 46.0127C34.1621 46.0055 34.2731 46.0199 34.3662 46.0557C34.5882 46.1631 34.8174 46.2454 35.0537 46.3027C35.376 46.3958 35.7233 46.4424 36.0957 46.4424H36.1816C36.776 46.4424 37.3346 46.3278 37.8574 46.0986C38.3874 45.8695 38.8457 45.5651 39.2324 45.1855C39.6263 44.7988 39.9378 44.3405 40.167 43.8105C40.4033 43.2806 40.5286 42.7113 40.543 42.1025V42.0166C40.543 41.4365 40.432 40.8851 40.21 40.3623C39.988 39.8324 39.68 39.3776 39.2861 38.998C38.8923 38.6113 38.4339 38.307 37.9111 38.085C37.3883 37.8558 36.8369 37.7412 36.2568 37.7412H36.0957C35.5013 37.7699 34.9427 37.8988 34.4199 38.1279C33.8971 38.3499 33.4388 38.6543 33.0449 39.041C32.6582 39.4277 32.3467 39.8825 32.1104 40.4053C31.8812 40.9281 31.7594 41.4938 31.7451 42.1025ZM36.2568 28.4385C36.2568 28.7178 36.3571 28.9541 36.5576 29.1475C36.751 29.3408 36.9837 29.4375 37.2559 29.4375C37.5495 29.4375 37.7894 29.3408 37.9756 29.1475C38.1618 28.9541 38.2549 28.7178 38.2549 28.4385C38.2549 28.152 38.1618 27.9157 37.9756 27.7295C37.7894 27.5361 37.5495 27.4395 37.2559 27.4395C36.9837 27.4395 36.751 27.5361 36.5576 27.7295C36.3571 27.9157 36.2568 28.152 36.2568 28.4385ZM35.666 35.0664H34.3662C34.8818 34.7728 35.376 34.4147 35.8486 33.9922C36.2354 33.6341 36.6292 33.1901 37.0303 32.6602C37.4313 32.1302 37.7321 31.4928 37.9326 30.748C37.6891 30.8197 37.4635 30.8555 37.2559 30.8555C36.9264 30.8555 36.6185 30.7946 36.332 30.6729C36.0384 30.5511 35.7842 30.3828 35.5693 30.168C35.3473 29.946 35.1755 29.6917 35.0537 29.4053C34.932 29.1117 34.8711 28.7965 34.8711 28.46C34.8711 28.1449 34.932 27.8405 35.0537 27.5469C35.1755 27.2533 35.3473 26.999 35.5693 26.7842C35.7842 26.5693 36.0384 26.401 36.332 26.2793C36.6185 26.1504 36.9264 26.0859 37.2559 26.0859C37.5781 26.0859 37.8861 26.1504 38.1797 26.2793C38.4661 26.401 38.7168 26.5693 38.9316 26.7842C39.1465 26.999 39.3184 27.2533 39.4473 27.5469C39.569 27.8405 39.6299 28.1449 39.6299 28.46C39.6299 28.7965 39.6048 29.2298 39.5547 29.7598C39.5046 30.2897 39.3649 30.8626 39.1357 31.4785C38.8994 32.0872 38.5449 32.7067 38.0723 33.3369C37.5996 33.9671 36.9479 34.5436 36.1172 35.0664H35.666ZM44.0557 38.8584C44.0557 38.5218 44.1165 38.2103 44.2383 37.9238C44.3672 37.6302 44.5391 37.376 44.7539 37.1611C44.9688 36.9391 45.2194 36.7673 45.5059 36.6455C45.7995 36.5238 46.1146 36.4629 46.4512 36.4629C46.7806 36.4629 47.0885 36.5238 47.375 36.6455C47.6686 36.7673 47.9264 36.9391 48.1484 37.1611C48.3704 37.376 48.5423 37.6302 48.6641 37.9238C48.7858 38.2103 48.8467 38.5218 48.8467 38.8584C48.8467 39.1878 48.7858 39.4993 48.6641 39.793C48.5423 40.0794 48.3704 40.3337 48.1484 40.5557C47.9264 40.7705 47.6686 40.9388 47.375 41.0605C47.0885 41.1823 46.7806 41.2432 46.4512 41.2432C46.1146 41.2432 45.7995 41.1823 45.5059 41.0605C45.2194 40.9388 44.9688 40.7705 44.7539 40.5557C44.5391 40.3337 44.3672 40.0794 44.2383 39.793C44.1165 39.4993 44.0557 39.1878 44.0557 38.8584ZM44.0557 45.6475C44.0557 45.318 44.1165 45.0101 44.2383 44.7236C44.3672 44.43 44.5391 44.1722 44.7539 43.9502C44.9688 43.7282 45.2194 43.5563 45.5059 43.4346C45.7995 43.3128 46.1146 43.252 46.4512 43.252C46.7806 43.252 47.0885 43.3128 47.375 43.4346C47.6686 43.5563 47.9264 43.7282 48.1484 43.9502C48.3704 44.1722 48.5423 44.43 48.6641 44.7236C48.7858 45.0101 48.8467 45.318 48.8467 45.6475C48.8467 45.984 48.7858 46.2992 48.6641 46.5928C48.5423 46.8792 48.3704 47.1299 48.1484 47.3447C47.9264 47.5596 47.6686 47.7314 47.375 47.8604C47.0885 47.9821 46.7806 48.043 46.4512 48.043C46.1146 48.043 45.7995 47.9821 45.5059 47.8604C45.2194 47.7314 44.9688 47.5596 44.7539 47.3447C44.5391 47.1299 44.3672 46.8792 44.2383 46.5928C44.1165 46.2992 44.0557 45.984 44.0557 45.6475ZM45.3877 45.6475C45.3877 45.9554 45.4915 46.2132 45.6992 46.4209C45.9069 46.6286 46.1647 46.7324 46.4727 46.7324C46.7591 46.7324 47.0098 46.6286 47.2246 46.4209C47.4395 46.2132 47.5469 45.9554 47.5469 45.6475C47.5469 45.361 47.4395 45.1104 47.2246 44.8955C47.0098 44.6807 46.7591 44.5732 46.4727 44.5732C46.1647 44.5732 45.9069 44.6807 45.6992 44.8955C45.4915 45.1104 45.3877 45.361 45.3877 45.6475ZM45.3662 38.8799C45.3662 39.1807 45.4665 39.4385 45.667 39.6533C45.8675 39.861 46.1217 39.9648 46.4297 39.9648C46.7305 39.9648 46.9847 39.861 47.1924 39.6533C47.4001 39.4385 47.5039 39.1807 47.5039 38.8799C47.5039 38.5863 47.4001 38.3356 47.1924 38.1279C46.9847 37.9202 46.7305 37.8164 46.4297 37.8164C46.1217 37.8164 45.8675 37.9202 45.667 38.1279C45.4665 38.3356 45.3662 38.5863 45.3662 38.8799Z" fill="#666666"/>
<path d="M25.4287 37.7412L25.432 37.4612L25.4255 37.4612L25.4287 37.7412ZM21.0889 42.1025L20.8086 42.0992L20.809 42.1121L21.0889 42.1025ZM22.3564 45.1748L22.1602 45.3746L22.1612 45.3755L22.3564 45.1748ZM25.4287 46.4639L25.411 46.7433L25.4255 46.7442L25.44 46.7436L25.4287 46.4639ZM28.501 45.1963L28.6981 45.3952L28.6981 45.3952L28.501 45.1963ZM29.7793 42.1025L30.0591 42.1121L30.0594 42.1042L30.0592 42.0962L29.7793 42.1025ZM28.4902 38.9766L28.294 39.1763L28.2949 39.1771L28.4902 38.9766ZM31.7451 42.1025L31.4652 42.096L31.4652 42.0979L31.7451 42.1025ZM31.208 44.5303L31.4627 44.6467L31.4631 44.6458L31.208 44.5303ZM29.8438 46.5068L29.6458 46.3088L29.6445 46.3101L29.8438 46.5068ZM27.8564 47.8496L27.9659 48.1073L27.967 48.1068L27.8564 47.8496ZM23.001 47.8496L22.8886 48.1061L22.8916 48.1073L23.001 47.8496ZM19.6816 44.5303L19.4239 44.6397L19.4252 44.6426L19.6816 44.5303ZM19.6816 39.6855L19.4248 39.5741L19.4243 39.5752L19.6816 39.6855ZM23.001 36.3662L23.1113 36.6236L23.1124 36.6231L23.001 36.3662ZM28.5332 36.6992L28.6751 36.4578L28.5332 36.6992ZM30.7568 38.8584L30.5181 39.0047L30.7488 39.3812L30.991 39.0119L30.7568 38.8584ZM36.0957 35.8506L36.0992 36.1306L36.1035 36.1305L36.0957 35.8506ZM40.3496 37.5371L40.1622 37.7452L40.1634 37.7463L40.3496 37.5371ZM42.3906 42.1025L42.6709 42.107L42.6705 42.094L42.3906 42.1025ZM40.6074 46.5498L40.8042 46.749L40.8048 46.7484L40.6074 46.5498ZM36.0957 48.333V48.6131L36.1022 48.6129L36.0957 48.333ZM33.668 47.8174L33.5475 48.0703L33.5551 48.0736L33.668 47.8174ZM33.3135 47.5811L33.1069 47.7704L33.1155 47.779L33.3135 47.5811ZM33.1416 47.2266L32.8685 47.2886L32.8692 47.2914L33.1416 47.2266ZM33.3242 46.3994L33.1091 46.2202L33.1081 46.2214L33.3242 46.3994ZM33.6572 46.1094L33.5262 45.8618L33.52 45.8653L33.6572 46.1094ZM34.0332 46.0127V46.2927H34.041L34.0487 46.2923L34.0332 46.0127ZM34.3662 46.0557L34.4882 45.8036L34.4776 45.7985L34.4667 45.7943L34.3662 46.0557ZM35.0537 46.3027L35.1315 46.0335L35.1197 46.0306L35.0537 46.3027ZM37.8574 46.0986L37.7463 45.8416L37.745 45.8422L37.8574 46.0986ZM39.2324 45.1855L39.4286 45.3854L39.4286 45.3853L39.2324 45.1855ZM40.167 43.8105L39.9113 43.6965L39.91 43.6994L40.167 43.8105ZM40.543 42.1025L40.823 42.1091V42.1025H40.543ZM40.21 40.3623L39.9517 40.4705L39.9522 40.4717L40.21 40.3623ZM39.2861 38.998L39.09 39.1979L39.0918 39.1997L39.2861 38.998ZM37.9111 38.085L37.7987 38.3414L37.8017 38.3427L37.9111 38.085ZM36.0957 37.7412V37.4609L36.0822 37.4615L36.0957 37.7412ZM34.4199 38.1279L34.5294 38.3857L34.5323 38.3844L34.4199 38.1279ZM33.0449 39.041L32.8487 38.8412L32.8469 38.843L33.0449 39.041ZM32.1104 40.4053L31.8552 40.2899L31.8539 40.2929L32.1104 40.4053ZM25.4255 37.4612C24.1104 37.4763 23.0064 37.9292 22.1344 38.8241L22.5355 39.2149C23.2963 38.4341 24.2549 38.0347 25.4319 38.0212L25.4255 37.4612ZM22.1344 38.8241C21.2656 39.7158 20.824 40.8132 20.8089 42.0992L21.3688 42.1058C21.3824 40.957 21.7715 39.9991 22.5355 39.2149L22.1344 38.8241ZM20.809 42.1121C20.8541 43.4348 21.3005 44.5302 22.1602 45.3746L22.5526 44.975C21.8082 44.2439 21.4095 43.2911 21.3687 42.093L20.809 42.1121ZM22.1612 45.3755C23.0168 46.2081 24.1065 46.6608 25.411 46.7433L25.4464 46.1844C24.2587 46.1093 23.3003 45.7027 22.5517 44.9741L22.1612 45.3755ZM25.44 46.7436C26.748 46.691 27.841 46.2446 28.6981 45.3952L28.3039 44.9974C27.5568 45.7378 26.6016 46.1365 25.4175 46.1841L25.44 46.7436ZM28.6981 45.3952C29.5636 44.5373 30.014 43.4356 30.0591 42.1121L29.4995 42.093C29.4586 43.2904 29.0568 44.2511 28.3039 44.9974L28.6981 45.3952ZM30.0592 42.0962C30.0291 40.7562 29.5743 39.6417 28.6856 38.776L28.2949 39.1771C29.0676 39.9299 29.4722 40.8994 29.4994 42.1088L30.0592 42.0962ZM28.6865 38.7768C27.8083 37.914 26.7174 37.4764 25.432 37.4612L25.4254 38.0212C26.5749 38.0347 27.525 38.4207 28.294 39.1763L28.6865 38.7768ZM31.4652 42.0979C31.4515 42.9202 31.2804 43.6916 30.9529 44.4148L31.4631 44.6458C31.8231 43.8507 32.0101 43.0036 32.0251 42.1072L31.4652 42.0979ZM30.9534 44.4139C30.623 45.1365 30.1871 45.7675 29.6458 46.3088L30.0417 46.7048C30.6319 46.1147 31.1055 45.428 31.4627 44.6467L30.9534 44.4139ZM29.6445 46.3101C29.1125 46.8489 28.4806 47.2765 27.7459 47.5924L27.967 48.1068C28.7648 47.7639 29.4578 47.2963 30.043 46.7036L29.6445 46.3101ZM27.747 47.5919C27.024 47.8988 26.2521 48.053 25.4287 48.053V48.613C26.3241 48.613 27.1707 48.4449 27.9659 48.1073L27.747 47.5919ZM25.4287 48.053C24.6053 48.053 23.8334 47.8988 23.1104 47.5919L22.8916 48.1073C23.6867 48.4449 24.5334 48.613 25.4287 48.613V48.053ZM23.1133 47.5931C22.3925 47.2773 21.7629 46.8493 21.2224 46.3088L20.8264 46.7048C21.4175 47.2959 22.1056 47.763 22.8886 48.1061L23.1133 47.5931ZM21.2224 46.3088C20.6819 45.7684 20.2539 45.1388 19.9381 44.4179L19.4252 44.6426C19.7682 45.4257 20.2354 46.1138 20.8264 46.7048L21.2224 46.3088ZM19.9394 44.4209C19.6324 43.6978 19.4782 42.9259 19.4782 42.1025H18.9182C18.9182 42.9979 19.0863 43.8445 19.4239 44.6397L19.9394 44.4209ZM19.4782 42.1025C19.4782 41.2791 19.6324 40.5112 19.939 39.7958L19.4243 39.5752C19.0863 40.3638 18.9182 41.2072 18.9182 42.1025H19.4782ZM19.9385 39.797C20.2544 39.0691 20.6824 38.4362 21.2224 37.8962L20.8264 37.5003C20.2349 38.0917 19.7677 38.7838 19.4248 39.5741L19.9385 39.797ZM21.2224 37.8962C21.7624 37.3562 22.3913 36.9321 23.1113 36.6236L22.8907 36.1089C22.1067 36.4448 21.4179 36.9087 20.8264 37.5003L21.2224 37.8962ZM23.1124 36.6231C23.835 36.3095 24.6062 36.1521 25.4287 36.1521V35.5921C24.5325 35.5921 23.6852 35.7641 22.8895 36.1094L23.1124 36.6231ZM25.4287 36.1521C26.5124 36.1521 27.4979 36.4155 28.3913 36.9406L28.6751 36.4578C27.6922 35.8801 26.608 35.5921 25.4287 35.5921V36.1521ZM28.3913 36.9406C29.2917 37.4698 29.9989 38.1576 30.5181 39.0047L30.9956 38.7121C30.4262 37.7831 29.651 37.0315 28.6751 36.4578L28.3913 36.9406ZM30.991 39.0119C32.2388 37.1091 33.9342 36.158 36.0992 36.1306L36.0922 35.5706C33.7312 35.6005 31.8673 36.6546 30.5227 38.7048L30.991 39.0119ZM36.1035 36.1305C37.5617 36.0898 38.9118 36.6191 40.1622 37.7452L40.537 37.329C39.195 36.1205 37.7092 35.5255 36.0879 35.5707L36.1035 36.1305ZM40.1634 37.7463C41.4044 38.8509 42.0556 40.2977 42.1108 42.1111L42.6705 42.094C42.6111 40.1405 41.9016 38.5437 40.5358 37.328L40.1634 37.7463ZM42.1107 42.0981C42.083 43.8455 41.5126 45.2554 40.41 46.3512L40.8048 46.7484C42.0225 45.5382 42.6409 43.9832 42.6706 42.107L42.1107 42.0981ZM40.4107 46.3506C39.3082 47.4395 37.8757 48.0115 36.0892 48.0531L36.1022 48.6129C38.011 48.5685 39.5863 47.9518 40.8042 46.749L40.4107 46.3506ZM36.0957 48.053C35.2974 48.053 34.5265 47.8895 33.7808 47.5611L33.5551 48.0736C34.3706 48.4328 35.2182 48.613 36.0957 48.613V48.053ZM33.7884 47.5646C33.6568 47.502 33.5682 47.4398 33.5115 47.3831L33.1155 47.779C33.2306 47.8942 33.3783 47.9896 33.5476 48.0702L33.7884 47.5646ZM33.5199 47.3919C33.4821 47.3507 33.4422 47.2803 33.414 47.1617L32.8692 47.2914C32.9126 47.4736 32.9873 47.6395 33.1071 47.7703L33.5199 47.3919ZM33.4146 47.1645C33.3863 47.04 33.3858 46.9345 33.4049 46.8438L32.8569 46.7284C32.8187 46.9099 32.8252 47.098 32.8686 47.2886L33.4146 47.1645ZM33.4049 46.8438C33.423 46.7576 33.4649 46.669 33.5404 46.5774L33.1081 46.2214C32.983 46.3733 32.896 46.5426 32.8569 46.7284L33.4049 46.8438ZM33.5393 46.5787C33.6307 46.469 33.7165 46.3973 33.7945 46.3534L33.52 45.8653C33.3688 45.9504 33.2326 46.072 33.1091 46.2202L33.5393 46.5787ZM33.7882 46.3568C33.8725 46.3122 33.9531 46.2927 34.0332 46.2927V45.7327C33.8555 45.7327 33.6855 45.7776 33.5262 45.8619L33.7882 46.3568ZM34.0487 46.2923C34.1493 46.2867 34.2187 46.2989 34.2657 46.317L34.4667 45.7943C34.3275 45.7408 34.175 45.7244 34.0177 45.7331L34.0487 46.2923ZM34.2443 46.3077C34.4839 46.4237 34.7318 46.5128 34.9877 46.5749L35.1197 46.0306C34.9029 45.9781 34.6925 45.9025 34.4882 45.8036L34.2443 46.3077ZM34.976 46.5717C35.3261 46.6729 35.6999 46.7224 36.0957 46.7224V46.1624C35.7467 46.1624 35.4258 46.1188 35.1314 46.0337L34.976 46.5717ZM36.0957 46.7224H36.1816V46.1624H36.0957V46.7224ZM36.1816 46.7224C36.8131 46.7224 37.4101 46.6004 37.9698 46.3551L37.745 45.8422C37.2591 46.0552 36.739 46.1624 36.1816 46.1624V46.7224ZM37.9686 46.3556C38.528 46.1137 39.0157 45.7906 39.4286 45.3854L39.0363 44.9857C38.6757 45.3396 38.2467 45.6252 37.7463 45.8416L37.9686 46.3556ZM39.4286 45.3853C39.8495 44.9721 40.1811 44.4833 40.424 43.9217L39.91 43.6994C39.6945 44.1977 39.4031 44.6255 39.0363 44.9857L39.4286 45.3853ZM40.4227 43.9246C40.6749 43.3591 40.8077 42.7531 40.8229 42.1091L40.263 42.096C40.2496 42.6695 40.1318 43.2021 39.9113 43.6965L40.4227 43.9246ZM40.823 42.1025V42.0166H40.263V42.1025H40.823ZM40.823 42.0166C40.823 41.3997 40.7047 40.811 40.4677 40.2529L39.9522 40.4717C40.1592 40.9592 40.263 41.4733 40.263 42.0166H40.823ZM40.4682 40.2541C40.2322 39.6908 39.9031 39.2038 39.4804 38.7964L39.0918 39.1997C39.4569 39.5514 39.7437 39.9739 39.9517 40.4705L40.4682 40.2541ZM39.4823 38.7982C39.0627 38.3862 38.5747 38.0625 38.0206 37.8272L37.8017 38.3427C38.2931 38.5514 38.7218 38.8364 39.09 39.1978L39.4823 38.7982ZM38.0235 37.8285C37.4647 37.5836 36.875 37.4612 36.2568 37.4612V38.0212C36.7989 38.0212 37.312 38.128 37.7987 38.3414L38.0235 37.8285ZM36.2568 37.4612H36.0957V38.0212H36.2568V37.4612ZM36.0822 37.4615C35.4552 37.4918 34.8629 37.628 34.3075 37.8715L34.5323 38.3844C35.0225 38.1695 35.5474 38.048 36.1092 38.0209L36.0822 37.4615ZM34.3105 37.8702C33.7564 38.1055 33.2684 38.4292 32.8488 38.8412L33.2411 39.2408C33.6092 38.8794 34.0379 38.5944 34.5294 38.3857L34.3105 37.8702ZM32.8469 38.843C32.4352 39.2548 32.1048 39.7379 31.8552 40.2899L32.3655 40.5206C32.5886 40.0271 32.8812 39.6007 33.2429 39.239L32.8469 38.843ZM31.8539 40.2929C31.6091 40.8512 31.4803 41.4532 31.4652 42.096L32.025 42.1091C32.0386 41.5344 32.1532 41.0049 32.3668 40.5177L31.8539 40.2929ZM36.5576 29.1475L36.7556 28.9494L36.752 28.9459L36.5576 29.1475ZM37.9756 27.7295L37.7739 27.9237L37.7776 27.9275L37.9756 27.7295ZM36.5576 27.7295L36.7483 27.9348L36.7556 27.9275L36.5576 27.7295ZM34.3662 35.0664L34.2277 34.8231L33.3087 35.3464H34.3662V35.0664ZM35.8486 33.9922L36.0353 34.201L36.0389 34.1976L35.8486 33.9922ZM37.9326 30.748L38.203 30.8208L38.3329 30.3385L37.8536 30.4794L37.9326 30.748ZM36.332 30.6729L36.4416 30.4151L36.4393 30.4142L36.332 30.6729ZM35.5693 30.168L35.3713 30.366L35.5693 30.168ZM35.0537 29.4053L34.7951 29.5125L34.796 29.5148L35.0537 29.4053ZM35.5693 26.7842L35.7641 26.9854L35.7673 26.9822L35.5693 26.7842ZM36.332 26.2793L36.4393 26.5381L36.4469 26.5346L36.332 26.2793ZM38.1797 26.2793L38.0671 26.5357L38.0702 26.537L38.1797 26.2793ZM39.4473 27.5469L39.706 27.4396L39.7036 27.4343L39.4473 27.5469ZM39.1357 31.4785L39.3968 31.5799L39.3982 31.5762L39.1357 31.4785ZM36.1172 35.0664V35.3464H36.198L36.2663 35.3034L36.1172 35.0664ZM35.9768 28.4385C35.9768 28.7936 36.1078 29.1027 36.3633 29.349L36.752 28.9459C36.6063 28.8055 36.5368 28.642 36.5368 28.4385H35.9768ZM36.3596 29.3455C36.6052 29.591 36.9091 29.7175 37.2559 29.7175V29.1575C37.0584 29.1575 36.8967 29.0906 36.7556 28.9495L36.3596 29.3455ZM37.2559 29.7175C37.6177 29.7175 37.9331 29.5953 38.1773 29.3417L37.7739 28.9532C37.6457 29.0863 37.4813 29.1575 37.2559 29.1575V29.7175ZM38.1773 29.3417C38.4159 29.0939 38.5349 28.787 38.5349 28.4385H37.9749C37.9749 28.6486 37.9076 28.8144 37.7739 28.9532L38.1773 29.3417ZM38.5349 28.4385C38.5349 28.0849 38.4172 27.7751 38.1736 27.5315L37.7776 27.9275C37.9064 28.0563 37.9749 28.2191 37.9749 28.4385H38.5349ZM38.1773 27.5353C37.9331 27.2817 37.6177 27.1595 37.2559 27.1595V27.7195C37.4813 27.7195 37.6457 27.7906 37.7739 27.9237L38.1773 27.5353ZM37.2559 27.1595C36.9091 27.1595 36.6052 27.2859 36.3596 27.5315L36.7556 27.9275C36.8967 27.7863 37.0584 27.7195 37.2559 27.7195V27.1595ZM36.3671 27.5243C36.1066 27.7662 35.9768 28.0783 35.9768 28.4385H36.5368C36.5368 28.2258 36.6076 28.0652 36.7481 27.9347L36.3671 27.5243ZM35.666 34.7864H34.3662V35.3464H35.666V34.7864ZM34.5048 35.3097C35.0387 35.0057 35.5488 34.6358 36.0352 34.2009L35.662 33.7834C35.2031 34.1937 34.725 34.5399 34.2277 34.8231L34.5048 35.3097ZM36.0389 34.1976C36.4403 33.826 36.845 33.369 37.2535 32.8291L36.807 32.4912C36.4134 33.0113 36.0304 33.4423 35.6584 33.7867L36.0389 34.1976ZM37.2535 32.8291C37.6795 32.2662 37.9946 31.5949 38.203 30.8208L37.6622 30.6753C37.4696 31.3908 37.1831 31.9942 36.807 32.4912L37.2535 32.8291ZM37.8536 30.4794C37.6303 30.5451 37.4316 30.5755 37.2559 30.5755V31.1355C37.4954 31.1355 37.7479 31.0942 38.0116 31.0167L37.8536 30.4794ZM37.2559 30.5755C36.9618 30.5755 36.6914 30.5213 36.4416 30.4152L36.2225 30.9305C36.5456 31.0679 36.891 31.1355 37.2559 31.1355V30.5755ZM36.4393 30.4142C36.178 30.3059 35.955 30.1577 35.7673 29.97L35.3713 30.366C35.6134 30.608 35.8988 30.7963 36.2248 30.9315L36.4393 30.4142ZM35.7673 29.97C35.5705 29.7731 35.419 29.5489 35.3114 29.2958L34.796 29.5148C34.9319 29.8346 35.1242 30.1188 35.3713 30.366L35.7673 29.97ZM35.3124 29.298C35.2055 29.0404 35.1511 28.7619 35.1511 28.46H34.5911C34.5911 28.8312 34.6584 29.1829 34.7951 29.5125L35.3124 29.298ZM35.1511 28.46C35.1511 28.182 35.2046 27.914 35.3124 27.6541L34.7951 27.4396C34.6593 27.7669 34.5911 28.1077 34.5911 28.46H35.1511ZM35.3124 27.6541C35.4199 27.3948 35.5704 27.1728 35.7641 26.9854L35.3746 26.583C35.1243 26.8252 34.931 27.1117 34.7951 27.4396L35.3124 27.6541ZM35.7673 26.9822C35.955 26.7945 36.178 26.6463 36.4393 26.5379L36.2248 26.0206C35.8988 26.1558 35.6134 26.3442 35.3713 26.5862L35.7673 26.9822ZM36.4469 26.5346C36.6955 26.4228 36.9641 26.3659 37.2559 26.3659V25.8059C36.8888 25.8059 36.5415 25.878 36.2171 26.024L36.4469 26.5346ZM37.2559 26.3659C37.5396 26.3659 37.8092 26.4224 38.0671 26.5357L38.2922 26.0229C37.963 25.8784 37.6167 25.8059 37.2559 25.8059V26.3659ZM38.0702 26.537C38.3244 26.645 38.5448 26.7933 38.7337 26.9822L39.1296 26.5862C38.8888 26.3453 38.6079 26.157 38.2892 26.0216L38.0702 26.537ZM38.7337 26.9822C38.9225 27.1711 39.0752 27.3959 39.1909 27.6594L39.7036 27.4343C39.5615 27.1106 39.3704 26.827 39.1296 26.5862L38.7337 26.9822ZM39.1886 27.6541C39.2964 27.914 39.3499 28.182 39.3499 28.46H39.9099C39.9099 28.1077 39.8416 27.7669 39.7059 27.4396L39.1886 27.6541ZM39.3499 28.46C39.3499 28.7842 39.3256 29.2078 39.2759 29.7334L39.8334 29.7861C39.884 29.2518 39.9099 28.8089 39.9099 28.46H39.3499ZM39.2759 29.7334C39.2286 30.2341 39.0959 30.7828 38.8733 31.3809L39.3982 31.5762C39.634 30.9425 39.7805 30.3454 39.8334 29.7861L39.2759 29.7334ZM38.8747 31.3772C38.6493 31.9578 38.3086 32.5551 37.8483 33.1689L38.2963 33.5049C38.7812 32.8583 39.1495 32.2167 39.3968 31.5799L38.8747 31.3772ZM37.8483 33.1689C37.4005 33.7659 36.7767 34.3205 35.9681 34.8294L36.2663 35.3034C37.1192 34.7667 37.7987 34.1683 38.2963 33.5049L37.8483 33.1689ZM36.1172 34.7864H35.666V35.3464H36.1172V34.7864ZM44.2383 37.9238L43.9819 37.8113L43.9806 37.8143L44.2383 37.9238ZM44.7539 37.1611L44.9519 37.3591L44.9551 37.3559L44.7539 37.1611ZM45.5059 36.6455L45.3986 36.3868L45.3963 36.3878L45.5059 36.6455ZM47.375 36.6455L47.2655 36.9032L47.2678 36.9042L47.375 36.6455ZM48.1484 37.1611L47.9504 37.3591L47.9537 37.3623L48.1484 37.1611ZM48.6641 37.9238L48.4054 38.0311L48.4064 38.0333L48.6641 37.9238ZM48.6641 39.793L48.9218 39.9025L48.9227 39.9002L48.6641 39.793ZM48.1484 40.5557L48.3432 40.7569L48.3464 40.7537L48.1484 40.5557ZM47.375 41.0605L47.2678 40.8019L47.2655 40.8029L47.375 41.0605ZM45.5059 41.0605L45.3963 41.3182L45.3986 41.3192L45.5059 41.0605ZM44.7539 40.5557L44.5527 40.7504L44.5559 40.7537L44.7539 40.5557ZM44.2383 39.793L43.9795 39.9003L43.9829 39.9079L44.2383 39.793ZM44.2383 44.7236L43.9819 44.6111L43.9806 44.6141L44.2383 44.7236ZM44.7539 43.9502L44.9551 44.1449L44.7539 43.9502ZM45.5059 43.4346L45.3986 43.1759L45.3963 43.1769L45.5059 43.4346ZM47.375 43.4346L47.2655 43.6923L47.2678 43.6932L47.375 43.4346ZM48.1484 43.9502L47.9504 44.1482L48.1484 43.9502ZM48.6641 44.7236L48.4054 44.8309L48.4064 44.8332L48.6641 44.7236ZM48.6641 46.5928L48.9218 46.7023L48.9227 46.7L48.6641 46.5928ZM48.1484 47.3447L47.9537 47.1435L48.1484 47.3447ZM47.375 47.8604L47.4845 48.1181L47.4876 48.1167L47.375 47.8604ZM45.5059 47.8604L45.3909 48.1158L45.3986 48.119L45.5059 47.8604ZM44.2383 46.5928L43.9795 46.7001L43.9829 46.7077L44.2383 46.5928ZM45.6992 46.4209L45.5012 46.6189L45.6992 46.4209ZM45.667 39.6533L45.4623 39.8444L45.4656 39.8478L45.667 39.6533ZM47.1924 39.6533L47.3904 39.8513L47.3937 39.8479L47.1924 39.6533ZM44.3357 38.8584C44.3357 38.5564 44.3901 38.2824 44.496 38.0333L43.9806 37.8143C43.843 38.1381 43.7757 38.4873 43.7757 38.8584H44.3357ZM44.4947 38.0364C44.6104 37.7728 44.763 37.548 44.9519 37.3591L44.5559 36.9631C44.3151 37.2039 44.124 37.4876 43.9819 37.8113L44.4947 38.0364ZM44.9551 37.3559C45.1437 37.161 45.3631 37.0104 45.6154 36.9032L45.3963 36.3878C45.0757 36.5241 44.7938 36.7173 44.5527 36.9664L44.9551 37.3559ZM45.6131 36.9042C45.8708 36.7973 46.1492 36.7429 46.4512 36.7429V36.1829C46.08 36.1829 45.7282 36.2502 45.3986 36.3869L45.6131 36.9042ZM46.4512 36.7429C46.7452 36.7429 47.0157 36.797 47.2655 36.9032L47.4845 36.3878C47.1614 36.2505 46.816 36.1829 46.4512 36.1829V36.7429ZM47.2678 36.9042C47.5279 37.012 47.7547 37.1634 47.9504 37.3591L48.3464 36.9631C48.0981 36.7148 47.8094 36.5225 47.4822 36.3869L47.2678 36.9042ZM47.9537 37.3623C48.1474 37.5498 48.2979 37.7718 48.4054 38.0311L48.9227 37.8166C48.7867 37.4886 48.5935 37.2022 48.3432 36.9599L47.9537 37.3623ZM48.4064 38.0333C48.5122 38.2824 48.5667 38.5564 48.5667 38.8584H49.1267C49.1267 38.4873 49.0594 38.1381 48.9218 37.8143L48.4064 38.0333ZM48.5667 38.8584C48.5667 39.1524 48.5125 39.4273 48.4054 39.6857L48.9227 39.9002C49.0591 39.5714 49.1267 39.2233 49.1267 38.8584H48.5667ZM48.4064 39.6834C48.2988 39.9366 48.1473 40.1608 47.9504 40.3577L48.3464 40.7537C48.5936 40.5065 48.7858 40.2223 48.9218 39.9025L48.4064 39.6834ZM47.9537 40.3545C47.7577 40.5441 47.5298 40.6932 47.2678 40.8019L47.4822 41.3192C47.8074 41.1844 48.0951 40.9969 48.3432 40.7569L47.9537 40.3545ZM47.2655 40.8029C47.0157 40.909 46.7452 40.9632 46.4512 40.9632V41.5232C46.816 41.5232 47.1614 41.4556 47.4845 41.3182L47.2655 40.8029ZM46.4512 40.9632C46.1492 40.9632 45.8708 40.9087 45.6131 40.8019L45.3986 41.3192C45.7282 41.4559 46.08 41.5232 46.4512 41.5232V40.9632ZM45.6154 40.8029C45.3611 40.6948 45.1407 40.5465 44.9519 40.3577L44.5559 40.7537C44.7968 40.9945 45.0777 41.1828 45.3963 41.3182L45.6154 40.8029ZM44.9551 40.3609C44.7632 40.1626 44.6095 39.9355 44.4936 39.6781L43.9829 39.9079C44.1249 40.2234 44.3149 40.5047 44.5527 40.7504L44.9551 40.3609ZM44.4969 39.6857C44.3898 39.4273 44.3357 39.1524 44.3357 38.8584H43.7757C43.7757 39.2233 43.8433 39.5714 43.9796 39.9002L44.4969 39.6857ZM44.3357 45.6475C44.3357 45.3534 44.3898 45.083 44.496 44.8332L43.9806 44.6141C43.8433 44.9372 43.7757 45.2826 43.7757 45.6475H44.3357ZM44.4947 44.8362C44.6107 44.5718 44.7643 44.3421 44.9551 44.1449L44.5527 43.7555C44.3139 44.0023 44.1237 44.2882 43.9819 44.6111L44.4947 44.8362ZM44.9551 44.1449C45.1437 43.95 45.3631 43.7995 45.6154 43.6923L45.3963 43.1769C45.0757 43.3132 44.7938 43.5064 44.5527 43.7555L44.9551 44.1449ZM45.6131 43.6932C45.8708 43.5864 46.1492 43.532 46.4512 43.532V42.972C46.08 42.972 45.7282 43.0393 45.3986 43.1759L45.6131 43.6932ZM46.4512 43.532C46.7452 43.532 47.0157 43.5861 47.2655 43.6923L47.4845 43.1769C47.1614 43.0396 46.816 42.972 46.4512 42.972V43.532ZM47.2678 43.6932C47.5279 43.8011 47.7547 43.9525 47.9504 44.1482L48.3464 43.7522C48.0981 43.5039 47.8094 43.3116 47.4822 43.1759L47.2678 43.6932ZM47.9504 44.1482C48.1461 44.3439 48.2976 44.5708 48.4054 44.8309L48.9227 44.6164C48.7871 44.2893 48.5947 44.0005 48.3464 43.7522L47.9504 44.1482ZM48.4064 44.8332C48.5125 45.083 48.5667 45.3534 48.5667 45.6475H49.1267C49.1267 45.2826 49.0591 44.9372 48.9218 44.6141L48.4064 44.8332ZM48.5667 45.6475C48.5667 45.9494 48.5122 46.2279 48.4054 46.4855L48.9227 46.7C49.0594 46.3704 49.1267 46.0187 49.1267 45.6475H48.5667ZM48.4064 46.4833C48.2992 46.7355 48.1486 46.9549 47.9537 47.1435L48.3432 47.5459C48.5923 47.3048 48.7855 47.023 48.9218 46.7023L48.4064 46.4833ZM47.9537 47.1435C47.7565 47.3344 47.5268 47.4879 47.2624 47.604L47.4876 48.1167C47.8104 47.975 48.0964 47.7848 48.3432 47.5459L47.9537 47.1435ZM47.2655 47.6027C47.0157 47.7088 46.7452 47.763 46.4512 47.763V48.323C46.816 48.323 47.1614 48.2554 47.4845 48.118L47.2655 47.6027ZM46.4512 47.763C46.1492 47.763 45.8708 47.7085 45.6131 47.6017L45.3986 48.119C45.7282 48.2557 46.08 48.323 46.4512 48.323V47.763ZM45.6208 47.605C45.3642 47.4896 45.1419 47.3368 44.9519 47.1467L44.5559 47.5427C44.7956 47.7824 45.0746 47.9733 45.391 48.1157L45.6208 47.605ZM44.9519 47.1467C44.7619 46.9567 44.6091 46.7345 44.4936 46.4779L43.9829 46.7077C44.1253 47.024 44.3163 47.3031 44.5559 47.5427L44.9519 47.1467ZM44.4969 46.4855C44.3901 46.2279 44.3357 45.9494 44.3357 45.6475H43.7757C43.7757 46.0187 43.843 46.3704 43.9796 46.7L44.4969 46.4855ZM45.1077 45.6475C45.1077 46.0257 45.2383 46.3559 45.5012 46.6189L45.8972 46.2229C45.7448 46.0705 45.6677 45.8852 45.6677 45.6475H45.1077ZM45.5012 46.6189C45.7642 46.8818 46.0945 47.0124 46.4727 47.0124V46.4524C46.235 46.4524 46.0496 46.3753 45.8972 46.2229L45.5012 46.6189ZM46.4727 47.0124C46.8351 47.0124 47.1547 46.878 47.4192 46.6222L47.03 46.2196C46.8649 46.3792 46.6831 46.4524 46.4727 46.4524V47.0124ZM47.4192 46.6222C47.6905 46.36 47.8269 46.0287 47.8269 45.6475H47.2669C47.2669 45.8821 47.1884 46.0664 47.03 46.2196L47.4192 46.6222ZM47.8269 45.6475C47.8269 45.2819 47.6864 44.9613 47.4226 44.6975L47.0266 45.0935C47.1925 45.2594 47.2669 45.4401 47.2669 45.6475H47.8269ZM47.4226 44.6975C47.1588 44.4337 46.8382 44.2932 46.4727 44.2932V44.8532C46.68 44.8532 46.8608 44.9276 47.0266 45.0935L47.4226 44.6975ZM46.4727 44.2932C46.0914 44.2932 45.7601 44.4296 45.4979 44.7009L45.9005 45.0901C46.0537 44.9317 46.238 44.8532 46.4727 44.8532V44.2932ZM45.4979 44.7009C45.2422 44.9655 45.1077 45.285 45.1077 45.6475H45.6677C45.6677 45.437 45.7409 45.2552 45.9005 45.0901L45.4979 44.7009ZM45.0862 38.8799C45.0862 39.2497 45.2121 39.5763 45.4623 39.8444L45.8717 39.4623C45.7208 39.3006 45.6462 39.1116 45.6462 38.8799H45.0862ZM45.4656 39.8478C45.7226 40.1141 46.0514 40.2448 46.4297 40.2448V39.6848C46.1921 39.6848 46.0124 39.6079 45.8684 39.4588L45.4656 39.8478ZM46.4297 40.2448C46.8027 40.2448 47.1288 40.1129 47.3904 39.8513L46.9944 39.4553C46.8406 39.6091 46.6582 39.6848 46.4297 39.6848V40.2448ZM47.3937 39.8479C47.6522 39.5805 47.7839 39.2527 47.7839 38.8799H47.2239C47.2239 39.1086 47.1479 39.2965 46.9911 39.4587L47.3937 39.8479ZM47.7839 38.8799C47.7839 38.512 47.6505 38.1901 47.3904 37.9299L46.9944 38.3259C47.1496 38.4811 47.2239 38.6605 47.2239 38.8799H47.7839ZM47.3904 37.9299C47.1288 37.6683 46.8027 37.5364 46.4297 37.5364V38.0964C46.6582 38.0964 46.8406 38.1721 46.9944 38.3259L47.3904 37.9299ZM46.4297 37.5364C46.0514 37.5364 45.7226 37.6672 45.4656 37.9334L45.8684 38.3224C46.0124 38.1733 46.1921 38.0964 46.4297 38.0964V37.5364ZM45.4656 37.9334C45.2137 38.1943 45.0862 38.5151 45.0862 38.8799H45.6462C45.6462 38.6574 45.7193 38.4769 45.8684 38.3224L45.4656 37.9334Z" fill="#666666"/>
<path d="M3.05797 14.248V9.952C3.05797 9.344 3.11397 8.856 3.22597 8.488C3.33797 8.104 3.48997 7.792 3.68197 7.552C3.87397 7.312 4.08197 7.112 4.30597 6.952L4.28197 6.856H0.105969L0.657969 5.176H7.42597V6.856C6.83397 6.856 6.31397 7.048 5.86597 7.432C5.41797 7.816 5.19397 8.52 5.19397 9.544V14.248H3.05797ZM5.67397 25.24C5.24197 25.24 4.82597 25.168 4.42597 25.024C4.02597 24.88 3.69797 24.624 3.44197 24.256C3.18597 23.888 3.05797 23.376 3.05797 22.72V11.848H5.19397V22.456C5.19397 22.824 5.27397 23.088 5.43397 23.248C5.59397 23.408 5.84997 23.488 6.20197 23.488C6.34597 23.488 6.49797 23.472 6.65797 23.44C6.81797 23.408 6.96997 23.368 7.11397 23.32L7.40197 24.88C7.09797 25.024 6.80197 25.12 6.51397 25.168C6.22597 25.216 5.94597 25.24 5.67397 25.24ZM9.72303 25V11.848H11.211L11.595 13.936H11.691C11.963 13.216 12.459 12.648 13.179 12.232C13.899 11.816 14.771 11.608 15.795 11.608C16.755 11.608 17.571 11.776 18.243 12.112C18.931 12.432 19.459 12.928 19.827 13.6C20.195 14.272 20.379 15.144 20.379 16.216V25H18.243V16.336C18.243 15.376 18.003 14.648 17.523 14.152C17.043 13.656 16.331 13.408 15.387 13.408C14.635 13.408 13.995 13.584 13.467 13.936C12.939 14.288 12.539 14.768 12.267 15.376C11.995 15.968 11.859 16.64 11.859 17.392V25H9.72303ZM29.34 25.216C28.044 25.216 27.004 25.048 26.22 24.712C25.452 24.376 24.892 23.904 24.54 23.296C24.204 22.688 24.036 21.968 24.036 21.136C24.036 20.4 24.14 19.816 24.348 19.384C24.572 18.936 24.844 18.608 25.164 18.4C25.5 18.192 25.844 18.056 26.196 17.992V17.896C25.876 17.8 25.54 17.64 25.188 17.416C24.836 17.192 24.54 16.88 24.3 16.48C24.076 16.08 23.964 15.576 23.964 14.968C23.964 14.408 24.092 13.88 24.348 13.384C24.604 12.888 25.02 12.48 25.596 12.16C26.172 11.84 26.932 11.68 27.876 11.68C28.26 11.68 28.66 11.712 29.076 11.776C29.492 11.824 29.812 11.912 30.036 12.04L29.652 13.696C29.476 13.632 29.244 13.576 28.956 13.528C28.684 13.464 28.396 13.432 28.092 13.432C27.42 13.432 26.924 13.592 26.604 13.912C26.284 14.216 26.124 14.624 26.124 15.136C26.124 15.696 26.26 16.12 26.532 16.408C26.82 16.696 27.18 16.896 27.612 17.008C28.06 17.104 28.524 17.152 29.004 17.152H29.46V18.712H29.004C28.044 18.712 27.332 18.888 26.868 19.24C26.42 19.576 26.196 20.144 26.196 20.944C26.196 21.408 26.284 21.832 26.46 22.216C26.652 22.6 26.972 22.904 27.42 23.128C27.884 23.352 28.524 23.464 29.34 23.464C30.156 23.464 30.788 23.352 31.236 23.128C31.7 22.904 32.028 22.584 32.22 22.168C32.412 21.736 32.508 21.224 32.508 20.632V11.848H34.644V20.488C34.644 22.168 34.212 23.376 33.348 24.112C32.5 24.848 31.164 25.216 29.34 25.216Z" fill="#666666"/>
<path d="M3.05797 14.248H2.77797V14.528H3.05797V14.248ZM3.22597 8.488L3.49386 8.56953L3.49477 8.5664L3.22597 8.488ZM3.68197 7.552L3.46333 7.37708L3.46333 7.37708L3.68197 7.552ZM4.30597 6.952L4.46872 7.17984L4.62385 7.06904L4.57761 6.88409L4.30597 6.952ZM4.28197 6.856L4.55361 6.78809L4.50059 6.576H4.28197V6.856ZM0.105969 6.856L-0.16004 6.7686L-0.280758 7.136H0.105969V6.856ZM0.657969 5.176V4.896H0.455242L0.39196 5.0886L0.657969 5.176ZM7.42597 5.176H7.70597V4.896H7.42597V5.176ZM7.42597 6.856V7.136H7.70597V6.856H7.42597ZM5.86597 7.432L5.68375 7.21941L5.68375 7.21941L5.86597 7.432ZM5.19397 14.248V14.528H5.47397V14.248H5.19397ZM4.42597 25.024L4.52081 24.7606L4.52081 24.7606L4.42597 25.024ZM3.44197 24.256L3.21212 24.4159L3.21212 24.4159L3.44197 24.256ZM3.05797 11.848V11.568H2.77797V11.848H3.05797ZM5.19397 11.848H5.47397V11.568H5.19397V11.848ZM5.43397 23.248L5.23598 23.446L5.23598 23.446L5.43397 23.248ZM6.65797 23.44L6.60306 23.1654L6.60306 23.1654L6.65797 23.44ZM7.11397 23.32L7.38932 23.2692L7.33086 22.9526L7.02543 23.0544L7.11397 23.32ZM7.40197 24.88L7.52183 25.133L7.7164 25.0409L7.67732 24.8292L7.40197 24.88ZM6.51397 25.168L6.46794 24.8918L6.46794 24.8918L6.51397 25.168ZM3.33797 14.248V9.952H2.77797V14.248H3.33797ZM3.33797 9.952C3.33797 9.35757 3.39314 8.90037 3.49384 8.56952L2.9581 8.40647C2.83479 8.81163 2.77797 9.33042 2.77797 9.952H3.33797ZM3.49477 8.5664C3.59946 8.20745 3.73724 7.93113 3.90061 7.72691L3.46333 7.37708C3.2427 7.65287 3.07647 8.00055 2.95717 8.4096L3.49477 8.5664ZM3.90061 7.72691C4.07835 7.50474 4.26797 7.32323 4.46872 7.17984L4.14322 6.72415C3.89596 6.90077 3.66958 7.11926 3.46333 7.37708L3.90061 7.72691ZM4.57761 6.88409L4.55361 6.78809L4.01033 6.92391L4.03433 7.01991L4.57761 6.88409ZM4.28197 6.576H0.105969V7.136H4.28197V6.576ZM0.371978 6.9434L0.923978 5.2634L0.39196 5.0886L-0.16004 6.7686L0.371978 6.9434ZM0.657969 5.456H7.42597V4.896H0.657969V5.456ZM7.14597 5.176V6.856H7.70597V5.176H7.14597ZM7.42597 6.576C6.76737 6.576 6.18268 6.79175 5.68375 7.21941L6.04819 7.64459C6.44526 7.30425 6.90057 7.136 7.42597 7.136V6.576ZM5.68375 7.21941C5.14053 7.68503 4.91397 8.49544 4.91397 9.544H5.47397C5.47397 8.54456 5.69541 7.94697 6.04819 7.64459L5.68375 7.21941ZM4.91397 9.544V14.248H5.47397V9.544H4.91397ZM5.19397 13.968H3.05797V14.528H5.19397V13.968ZM5.67397 24.96C5.27377 24.96 4.88989 24.8934 4.52081 24.7606L4.33113 25.2874C4.76205 25.4426 5.21017 25.52 5.67397 25.52V24.96ZM4.52081 24.7606C4.17854 24.6373 3.89657 24.4192 3.67182 24.0961L3.21212 24.4159C3.49937 24.8288 3.8734 25.1227 4.33113 25.2874L4.52081 24.7606ZM3.67182 24.0961C3.46039 23.7922 3.33797 23.344 3.33797 22.72H2.77797C2.77797 23.408 2.91155 23.9838 3.21212 24.4159L3.67182 24.0961ZM3.33797 22.72V11.848H2.77797V22.72H3.33797ZM3.05797 12.128H5.19397V11.568H3.05797V12.128ZM4.91397 11.848V22.456H5.47397V11.848H4.91397ZM4.91397 22.456C4.91397 22.8538 4.99872 23.2087 5.23598 23.446L5.63196 23.05C5.54922 22.9673 5.47397 22.7942 5.47397 22.456H4.91397ZM5.23598 23.446C5.47134 23.6813 5.81588 23.768 6.20197 23.768V23.208C5.88405 23.208 5.7166 23.1347 5.63196 23.05L5.23598 23.446ZM6.20197 23.768C6.36665 23.768 6.53715 23.7497 6.71288 23.7146L6.60306 23.1654C6.45879 23.1943 6.32528 23.208 6.20197 23.208V23.768ZM6.71288 23.7146C6.88343 23.6805 7.04671 23.6376 7.20251 23.5856L7.02543 23.0544C6.89322 23.0984 6.75251 23.1355 6.60306 23.1654L6.71288 23.7146ZM6.83862 23.3708L7.12662 24.9308L7.67732 24.8292L7.38932 23.2692L6.83862 23.3708ZM7.2821 24.627C6.99805 24.7615 6.72684 24.8487 6.46794 24.8918L6.56 25.4442C6.8771 25.3913 7.19789 25.2865 7.52183 25.133L7.2821 24.627ZM6.46794 24.8918C6.19405 24.9375 5.92947 24.96 5.67397 24.96V25.52C5.96247 25.52 6.25789 25.4945 6.56 25.4442L6.46794 24.8918ZM9.72303 25H9.44303V25.28H9.72303V25ZM9.72303 11.848V11.568H9.44303V11.848H9.72303ZM11.211 11.848L11.4864 11.7974L11.4442 11.568H11.211V11.848ZM11.595 13.936L11.3196 13.9866L11.3618 14.216H11.595V13.936ZM11.691 13.936V14.216H11.8846L11.953 14.035L11.691 13.936ZM13.179 12.232L13.3191 12.4744L13.3191 12.4744L13.179 12.232ZM18.243 12.112L18.1178 12.3625L18.1249 12.3659L18.243 12.112ZM19.827 13.6L19.5814 13.7345L19.5814 13.7345L19.827 13.6ZM20.379 25V25.28H20.659V25H20.379ZM18.243 25H17.963V25.28H18.243V25ZM13.467 13.936L13.3117 13.703L13.3117 13.703L13.467 13.936ZM12.267 15.376L12.5215 15.4929L12.5226 15.4903L12.267 15.376ZM11.859 25V25.28H12.139V25H11.859ZM10.003 25V11.848H9.44303V25H10.003ZM9.72303 12.128H11.211V11.568H9.72303V12.128ZM10.9356 11.8986L11.3196 13.9866L11.8704 13.8854L11.4864 11.7974L10.9356 11.8986ZM11.595 14.216H11.691V13.656H11.595V14.216ZM11.953 14.035C12.2002 13.3804 12.6502 12.8609 13.3191 12.4744L13.039 11.9896C12.2678 12.4351 11.7258 13.0516 11.4291 13.837L11.953 14.035ZM13.3191 12.4744C13.9877 12.0881 14.8089 11.888 15.795 11.888V11.328C14.7332 11.328 13.8104 11.5439 13.039 11.9896L13.3191 12.4744ZM15.795 11.888C16.7233 11.888 17.494 12.0505 18.1178 12.3624L18.3683 11.8616C17.6481 11.5015 16.7868 11.328 15.795 11.328V11.888ZM18.1249 12.3659C18.7582 12.6604 19.2418 13.1143 19.5814 13.7345L20.0726 13.4655C19.6762 12.7417 19.1038 12.2036 18.3611 11.8581L18.1249 12.3659ZM19.5814 13.7345C19.9196 14.3521 20.099 15.1733 20.099 16.216H20.659C20.659 15.1147 20.4704 14.1919 20.0726 13.4655L19.5814 13.7345ZM20.099 16.216V25H20.659V16.216H20.099ZM20.379 24.72H18.243V25.28H20.379V24.72ZM18.523 25V16.336H17.963V25H18.523ZM18.523 16.336C18.523 15.3321 18.2718 14.523 17.7242 13.9573L17.3218 14.3467C17.7343 14.773 17.963 15.4199 17.963 16.336H18.523ZM17.7242 13.9573C17.1744 13.3891 16.3782 13.128 15.387 13.128V13.688C16.2839 13.688 16.9117 13.9229 17.3218 14.3467L17.7242 13.9573ZM15.387 13.128C14.5902 13.128 13.8937 13.3151 13.3117 13.703L13.6223 14.169C14.0964 13.8529 14.6799 13.688 15.387 13.688V13.128ZM13.3117 13.703C12.7375 14.0858 12.3039 14.608 12.0114 15.2617L12.5226 15.4903C12.7742 14.928 13.1405 14.4902 13.6223 14.169L13.3117 13.703ZM12.0126 15.2591C11.7213 15.893 11.579 16.6058 11.579 17.392H12.139C12.139 16.6742 12.2687 16.043 12.5215 15.4929L12.0126 15.2591ZM11.579 17.392V25H12.139V17.392H11.579ZM11.859 24.72H9.72303V25.28H11.859V24.72ZM26.22 24.712L26.1078 24.9685L26.1097 24.9694L26.22 24.712ZM24.54 23.296L24.2949 23.4315L24.2977 23.4363L24.54 23.296ZM24.348 19.384L24.0976 19.2588L24.0958 19.2625L24.348 19.384ZM25.164 18.4L25.0166 18.1619L25.0114 18.1652L25.164 18.4ZM26.196 17.992L26.2461 18.2675L26.476 18.2257V17.992H26.196ZM26.196 17.896H26.476V17.6877L26.2765 17.6278L26.196 17.896ZM24.3 16.48L24.0556 16.6169L24.0599 16.6241L24.3 16.48ZM24.348 13.384L24.5968 13.5124L24.5968 13.5124L24.348 13.384ZM25.596 12.16L25.732 12.4048L25.732 12.4048L25.596 12.16ZM29.076 11.776L29.0334 12.0529L29.0439 12.0542L29.076 11.776ZM30.036 12.04L30.3088 12.1032L30.3559 11.9003L30.175 11.7969L30.036 12.04ZM29.652 13.696L29.5563 13.9591L29.8534 14.0672L29.9248 13.7592L29.652 13.696ZM28.956 13.528L28.8919 13.8006L28.9009 13.8027L28.91 13.8042L28.956 13.528ZM26.604 13.912L26.7969 14.1151L26.802 14.11L26.604 13.912ZM26.532 16.408L26.3284 16.6003L26.334 16.606L26.532 16.408ZM27.612 17.008L27.5417 17.2793L27.5534 17.2818L27.612 17.008ZM29.46 17.152H29.74V16.872H29.46V17.152ZM29.46 18.712V18.992H29.74V18.712H29.46ZM26.868 19.24L27.036 19.464L27.0373 19.4631L26.868 19.24ZM26.46 22.216L26.2053 22.3327L26.2096 22.3412L26.46 22.216ZM27.42 23.128L27.2948 23.3785L27.2983 23.3802L27.42 23.128ZM31.236 23.128L31.1143 22.8758L31.1108 22.8776L31.236 23.128ZM32.22 22.168L32.4743 22.2853L32.4759 22.2817L32.22 22.168ZM32.508 11.848V11.568H32.228V11.848H32.508ZM34.644 11.848H34.924V11.568H34.644V11.848ZM33.348 24.112L33.1665 23.8988L33.1645 23.9005L33.348 24.112ZM29.34 24.936C28.0642 24.936 27.0662 24.77 26.3303 24.4546L26.1097 24.9694C26.9419 25.326 28.0239 25.496 29.34 25.496V24.936ZM26.3323 24.4555C25.608 24.1386 25.099 23.7027 24.7824 23.1557L24.2977 23.4363C24.685 24.1053 25.296 24.6134 26.1078 24.9685L26.3323 24.4555ZM24.7851 23.1606C24.4761 22.6015 24.316 21.93 24.316 21.136H23.756C23.756 22.006 23.9319 22.7745 24.295 23.4314L24.7851 23.1606ZM24.316 21.136C24.316 20.4217 24.4177 19.8847 24.6003 19.5055L24.0958 19.2625C23.8624 19.7473 23.756 20.3783 23.756 21.136H24.316ZM24.5985 19.5092C24.807 19.0922 25.0495 18.8084 25.3166 18.6348L25.0114 18.1652C24.6386 18.4076 24.3371 18.7798 24.0976 19.2588L24.5985 19.5092ZM25.3114 18.6381C25.6207 18.4466 25.932 18.3246 26.2461 18.2675L26.1459 17.7165C25.756 17.7874 25.3793 17.9374 25.0167 18.1619L25.3114 18.6381ZM26.476 17.992V17.896H25.916V17.992H26.476ZM26.2765 17.6278C25.9864 17.5408 25.6738 17.3932 25.3384 17.1798L25.0377 17.6522C25.4063 17.8868 25.7657 18.0592 26.1156 18.1642L26.2765 17.6278ZM25.3384 17.1798C25.0272 16.9817 24.7604 16.7031 24.5401 16.3359L24.0599 16.6241C24.3196 17.0569 24.6449 17.4023 25.0377 17.6522L25.3384 17.1798ZM24.5443 16.3432C24.3502 15.9964 24.244 15.5432 24.244 14.968H23.684C23.684 15.6088 23.8019 16.1636 24.0557 16.6168L24.5443 16.3432ZM24.244 14.968C24.244 14.4525 24.3614 13.9686 24.5968 13.5124L24.0992 13.2556C23.8227 13.7914 23.684 14.3635 23.684 14.968H24.244ZM24.5968 13.5124C24.8232 13.0738 25.1954 12.7029 25.732 12.4048L25.4601 11.9152C24.8447 12.2571 24.3848 12.7022 24.0992 13.2556L24.5968 13.5124ZM25.732 12.4048C26.2523 12.1157 26.9603 11.96 27.876 11.96V11.4C26.9038 11.4 26.0918 11.5643 25.4601 11.9152L25.732 12.4048ZM27.876 11.96C28.2445 11.96 28.6302 11.9907 29.0335 12.0527L29.1186 11.4993C28.6898 11.4333 28.2756 11.4 27.876 11.4V11.96ZM29.0439 12.0542C29.4429 12.1002 29.7202 12.182 29.8971 12.2831L30.175 11.7969C29.9039 11.642 29.5411 11.5478 29.1081 11.4978L29.0439 12.0542ZM29.7633 11.9768L29.3793 13.6328L29.9248 13.7592L30.3088 12.1032L29.7633 11.9768ZM29.7477 13.4329C29.5493 13.3607 29.2987 13.3013 29.0021 13.2518L28.91 13.8042C29.1893 13.8507 29.4028 13.9033 29.5563 13.9591L29.7477 13.4329ZM29.0202 13.2554C28.7254 13.1861 28.4157 13.152 28.092 13.152V13.712C28.3763 13.712 28.6427 13.7419 28.8919 13.8006L29.0202 13.2554ZM28.092 13.152C27.3815 13.152 26.7993 13.3207 26.406 13.714L26.802 14.11C27.0487 13.8633 27.4586 13.712 28.092 13.712V13.152ZM26.4112 13.709C26.0265 14.0744 25.844 14.5606 25.844 15.136H26.404C26.404 14.6874 26.5415 14.3576 26.7969 14.115L26.4112 13.709ZM25.844 15.136C25.844 15.7378 25.9902 16.2421 26.3285 16.6003L26.7356 16.2157C26.5298 15.9979 26.404 15.6542 26.404 15.136H25.844ZM26.334 16.606C26.6607 16.9326 27.0662 17.1557 27.5418 17.279L27.6823 16.737C27.2939 16.6363 26.9794 16.4594 26.73 16.21L26.334 16.606ZM27.5534 17.2818C28.0215 17.3821 28.5052 17.432 29.004 17.432V16.872C28.5428 16.872 28.0985 16.8259 27.6707 16.7342L27.5534 17.2818ZM29.004 17.432H29.46V16.872H29.004V17.432ZM29.18 17.152V18.712H29.74V17.152H29.18ZM29.46 18.432H29.004V18.992H29.46V18.432ZM29.004 18.432C28.0192 18.432 27.2341 18.6108 26.6988 19.0169L27.0373 19.4631C27.43 19.1652 28.0689 18.992 29.004 18.992V18.432ZM26.7 19.016C26.1548 19.425 25.916 20.0958 25.916 20.944H26.476C26.476 20.1922 26.6853 19.727 27.036 19.464L26.7 19.016ZM25.916 20.944C25.916 21.4443 26.0111 21.9086 26.2055 22.3327L26.7146 22.0993C26.5569 21.7554 26.476 21.3717 26.476 20.944H25.916ZM26.2096 22.3412C26.433 22.7881 26.802 23.132 27.2948 23.3784L27.5453 22.8776C27.1421 22.676 26.871 22.4119 26.7105 22.0908L26.2096 22.3412ZM27.2983 23.3802C27.8161 23.6301 28.5039 23.744 29.34 23.744V23.184C28.5442 23.184 27.952 23.0739 27.5418 22.8758L27.2983 23.3802ZM29.34 23.744C30.1753 23.744 30.8573 23.6304 31.3613 23.3784L31.1108 22.8776C30.7187 23.0736 30.1368 23.184 29.34 23.184V23.744ZM31.3578 23.3802C31.8725 23.1317 32.2517 22.7676 32.4743 22.2853L31.9658 22.0507C31.8044 22.4004 31.5276 22.6763 31.1143 22.8758L31.3578 23.3802ZM32.4759 22.2817C32.6873 21.8061 32.788 21.2536 32.788 20.632H32.228C32.228 21.1944 32.1368 21.6659 31.9642 22.0543L32.4759 22.2817ZM32.788 20.632V11.848H32.228V20.632H32.788ZM32.508 12.128H34.644V11.568H32.508V12.128ZM34.364 11.848V20.488H34.924V11.848H34.364ZM34.364 20.488C34.364 22.1261 33.9428 23.2375 33.1665 23.8989L33.5296 24.3251C34.4812 23.5145 34.924 22.2099 34.924 20.488H34.364ZM33.1645 23.9005C32.3909 24.572 31.1361 24.936 29.34 24.936V25.496C31.192 25.496 32.6092 25.124 33.5316 24.3235L33.1645 23.9005Z" fill="#666666"/>
</svg>
